<?xml version="1.0" encoding="UTF-8" standalone="no"?>
<!-- Created with Inkscape (http://www.inkscape.org/) -->

<svg
   width="72.648537mm"
   height="41.218067mm"
   viewBox="0 0 72.648537 41.218067"
   version="1.1"
   id="svg5"
   xml:space="preserve"
   xmlns="http://www.w3.org/2000/svg"
   xmlns:svg="http://www.w3.org/2000/svg"><defs
     id="defs2" /><g
     id="layer1"
     transform="translate(94.97062,-121.92888)"><g
       id="g1457"
       transform="translate(56.03777,28.804462)"><path
         style="fill:#000000;stroke-width:0.211511"
         d="m -145.92487,116.47686 v -14.70001 h 26.22736 26.227352 v 1.16245 1.16244 l -25.011162,0.0537 -25.01117,0.0537 v 12.16188 12.16188 h 29.50578 29.505768 l 0.05444,-13.37806 0.05444,-13.37808 h 1.161737 1.161733 v 14.70001 14.70002 h -31.938148 -31.93816 z m 11.10433,8.05123 c -0.11633,-0.0454 -0.47566,-0.14089 -0.7985,-0.21218 -0.96209,-0.21246 -2.2008,-1.50453 -2.71514,-2.83209 -0.58038,-1.49804 -0.80484,-5.8869 -0.405,-7.91919 0.28118,-1.42926 1.00372,-3.01801 1.62977,-3.58366 1.48116,-1.33823 4.78867,-1.33823 6.26982,0 1.17695,1.06339 1.8356,3.47786 1.8356,6.72894 0,5.08435 -1.42855,7.5197 -4.57962,7.80719 -0.56398,0.0515 -1.1206,0.0564 -1.23693,0.0109 z m 2.41556,-2.14722 c 0.78002,-0.65635 1.20735,-2.00503 1.40156,-4.42343 0.16458,-2.04944 -0.20353,-4.95647 -0.76765,-6.06224 -1.0065,-1.9729 -3.54416,-1.89901 -4.4414,0.12933 -0.87939,1.98803 -1.0171,6.13496 -0.28947,8.71712 0.40775,1.447 1.2624,2.1863 2.52744,2.1863 0.68025,0 1.08843,-0.14228 1.56952,-0.54708 z m 8.37282,1.90072 c -0.81359,-0.18143 -1.59883,-0.42909 -1.74497,-0.55038 -0.14614,-0.12129 -0.26571,-0.63194 -0.26571,-1.13479 v -0.91425 l 1.21619,0.54213 c 1.41508,0.63079 3.47533,0.86344 4.53867,0.5125 1.23279,-0.40686 1.75378,-1.13912 1.75378,-2.46497 0,-1.63136 -0.51604,-2.08321 -3.24922,-2.84504 -3.30667,-0.92168 -4.10907,-1.5918 -4.39384,-3.66949 -0.25044,-1.82713 0.66407,-3.50502 2.33424,-4.28271 1.33381,-0.62107 3.69538,-0.67755 5.30882,-0.12696 1.03395,0.35283 1.05904,0.38158 1.12395,1.28762 0.0592,0.82674 0.025,0.90884 -0.31726,0.76088 -1.34971,-0.58351 -2.62015,-0.93444 -3.40449,-0.94042 -1.85273,-0.0142 -3.21875,1.06012 -3.21875,2.53123 0,1.0635 0.62676,1.80159 1.8534,2.18264 0.5511,0.17119 1.68626,0.52164 2.52259,0.77878 1.06471,0.32736 1.73905,0.68599 2.24927,1.19621 1.34456,1.34455 1.54097,3.64126 0.46799,5.47217 -0.96102,1.63986 -3.78004,2.33262 -6.77466,1.66485 z m 10.3532,-0.35036 c -0.0561,-0.14619 -0.0769,-3.50128 -0.0462,-7.45577 l 0.0557,-7.18997 1.00468,-0.0644 1.00467,-0.0644 v 3.07849 3.0785 h 2.8554 2.8554 v -3.06691 -3.06691 h 0.9518 0.9518 v 7.50864 7.50864 h -0.94668 -0.94669 l -0.058,-3.54281 -0.0579,-3.54281 h -2.74964 -2.74965 l -0.058,3.54281 -0.058,3.54281 h -0.95332 c -0.57022,0 -0.99431,-0.10682 -1.05531,-0.26579 z m 13.34325,-0.21012 c -0.0579,-0.26174 -0.54039,-3.47406 -1.07222,-7.13849 -0.53182,-3.66443 -1.01617,-6.82916 -1.07633,-7.03274 -0.0929,-0.31429 0.0358,-0.37014 0.85265,-0.37014 1.16046,0 1.00259,-0.52853 1.705812,5.71079 0.66483,5.89851 0.73226,6.31973 0.94716,5.91612 0.0911,-0.17109 0.47432,-1.83395 0.8516,-3.69526 0.37728,-1.86129 0.76333,-3.48059 0.8579,-3.59845 0.0946,-0.11786 0.59122,-0.18093 1.10368,-0.14018 l 0.93175,0.0741 0.79396,3.73586 c 0.77372,3.64067 0.875,4.00685 1.0576,3.824 0.0484,-0.0485 1.16847,-5.27544 2.489032,-11.61548 l 2.401016,-11.527351 0.895149,-0.06507 c 0.704913,-0.05124 0.895148,0.0064 0.895148,0.271696 0,0.307205 -3.274644,15.582255 -4.9208,22.953795 l -0.684875,3.0669 -0.95149,0.0617 -0.95147,0.0617 -0.93484,-4.18621 c -0.51415,-2.30242 -1.00378,-4.26656 -1.08804,-4.36476 -0.14205,-0.16554 -0.48704,1.16759 -1.67455,6.471 l -0.46176,2.06223 h -0.93041 c -0.792662,0 -0.945992,-0.0704 -1.035672,-0.4759 z"
         id="path1837" /></g></g></svg>
