<?xml version="1.0" encoding="UTF-8" standalone="no"?>
<!-- Created with Inkscape (http://www.inkscape.org/) -->

<svg
   width="72.648537mm"
   height="41.218067mm"
   viewBox="0 0 72.648537 41.218067"
   version="1.1"
   id="svg5"
   xml:space="preserve"
   xmlns="http://www.w3.org/2000/svg"
   xmlns:svg="http://www.w3.org/2000/svg"><defs
     id="defs2" /><g
     id="layer1"
     transform="translate(94.97062,-121.92888)"><g
       id="g1457"
       transform="translate(56.03777,28.804462)"><path
         style="fill:#000000;stroke-width:0.23946"
         d="m -115.81555,131.15242 c -1.0899,-0.31476 -2.38573,-1.6952 -2.70528,-2.88191 -0.95239,-3.53691 2.74085,-6.65358 5.946,-5.01773 2.18302,1.11417 3.05889,3.63083 1.9915,5.72221 -1.02092,2.0003 -2.99742,2.82283 -5.23222,2.17743 z m -6.3672,-10.42841 c -0.75169,-0.75169 0.64572,-2.33152 3.06277,-3.4626 3.29988,-1.5442 6.3681,-1.4939 9.87323,0.16185 0.68329,0.32278 1.416,0.58686 1.62826,0.58686 0.68591,0 1.6981,-0.66591 1.99173,-1.31035 0.74593,-1.63714 -0.0761,-2.85028 -2.65113,-3.9124 -2.57681,-1.06286 -4.0918,-1.32384 -6.91551,-1.19135 -2.91313,0.13669 -5.07614,0.80147 -7.6315,2.34544 -1.83621,1.10945 -3.10795,1.39081 -4.38356,0.96982 -2.54188,-0.8389 -3.68772,-3.4651 -2.57802,-5.90874 0.51929,-1.14351 1.35254,-1.82827 3.87924,-3.18797 8.083,-4.34968 17.78484,-3.75268 25.56279,1.573 0.838689,0.57427 1.787109,1.04412 2.107589,1.04412 1.520285,0 2.67815,-1.4017 2.358821,-2.85558 -0.189128,-0.86112 -1.083614,-1.64482 -3.643561,-3.1923 -9.546069,-5.770607 -21.632809,-5.491589 -30.913879,0.71364 -2.53322,1.69368 -3.24095,1.8343 -3.34553,0.66475 -0.0561,-0.6276 0.1103,-0.84581 1.31702,-1.72683 3.16859,-2.313337 7.89474,-4.335556 12.27674,-5.25295 2.50202,-0.523815 8.3835,-0.585448 11.0152,-0.115439 4.10571,0.733253 8.66548,2.582032 12.256897,4.969599 2.099197,1.39554 2.867764,2.39474 3.014201,3.91869 0.150283,1.56404 -0.04272,2.21868 -0.963044,3.26689 -0.915719,1.04295 -1.959448,1.52521 -3.300915,1.52521 -1.11026,0 -1.39421,-0.12494 -3.629879,-1.59715 -6.17895,-4.06893 -13.52572,-4.96316 -20.34107,-2.47587 -2.09959,0.76626 -4.8352,2.27627 -5.5453,3.06093 -0.23582,0.26058 -0.48974,0.8495 -0.56426,1.30871 -0.112,0.6902 -0.0157,0.96902 0.55558,1.60839 0.99912,1.11821 1.9242,1.07703 4.03979,-0.17981 5.11724,-3.0401 11.22872,-3.42041 16.50682,-1.0272 2.82413,1.28052 3.88518,2.74847 3.66241,5.06688 -0.13935,1.45025 -1.07277,2.73877 -2.43072,3.35544 -1.37915,0.6263 -2.33069,0.56824 -4.21077,-0.25693 -2.4273,-1.06535 -3.79565,-1.29904 -5.68245,-0.97048 -1.72516,0.30044 -3.06745,0.89511 -4.41694,1.95686 -0.83516,0.65707 -1.61999,0.86794 -1.96105,0.52687 z"
         id="path1631" /></g></g></svg>
