<?xml version="1.0" encoding="UTF-8" standalone="no"?>
<!-- Created with Inkscape (http://www.inkscape.org/) -->

<svg
   width="72.648537mm"
   height="41.218067mm"
   viewBox="0 0 72.648537 41.218067"
   version="1.1"
   id="svg5"
   xml:space="preserve"
   xmlns="http://www.w3.org/2000/svg"
   xmlns:svg="http://www.w3.org/2000/svg"><defs
     id="defs2" /><g
     id="layer1"
     transform="translate(94.97062,-121.92888)"><path
       style="fill:#000000;stroke-width:0.327989"
       d="m -43.079841,156.59524 c -0.120258,-0.12024 -0.219782,-1.33792 -0.22115,-2.70591 -0.0024,-2.27678 -0.240872,-4.98015 -0.830404,-9.40886 l -0.222807,-1.67377 1.072221,-0.21444 c 0.589723,-0.11802 1.146343,-0.14033 1.236938,-0.0497 0.322646,0.32265 1.008734,5.91579 1.234014,10.05994 l 0.228937,4.21144 h -1.139544 c -0.626752,0 -1.237945,-0.0984 -1.358205,-0.21866 z m 3.717214,-7.4693 v -7.72755 h 1.318003 1.318004 l -0.08804,7.62577 -0.08804,7.62575 -1.22996,0.10178 -1.229961,0.10177 z m 4.032202,3.17811 c 0.106523,-2.48042 0.373721,-5.734 0.593785,-7.23016 l 0.400118,-2.7203 1.012835,0.21293 c 0.557061,0.11715 1.114535,0.30809 1.238836,0.42438 0.124302,0.11628 0.03021,1.53979 -0.209103,3.16334 -0.239307,1.62355 -0.540064,4.68616 -0.668344,6.80579 l -0.23324,3.85387 h -1.164278 -1.16428 z m -49.844412,-1.51758 c -4.079594,-1.33677 -6.341319,-4.36276 -6.334923,-8.47556 0.0079,-5.06368 3.806218,-8.76104 9.016508,-8.77681 2.996611,-0.009 5.52663,1.16191 8.000318,3.70277 l 1.768518,1.81654 1.610888,-1.76256 c 2.31776,-2.53601 4.918672,-3.76637 7.942049,-3.75701 3.751957,0.0112 6.773813,1.7123 8.262475,4.65004 2.312202,4.5629 0.657899,9.59402 -3.948186,12.00738 -1.389667,0.7281 -2.089081,0.87118 -4.284679,0.87649 -2.373377,0.006 -2.822252,-0.10116 -4.701093,-1.11985 -1.172707,-0.6358 -2.698272,-1.83618 -3.503569,-2.75676 l -1.426394,-1.63058 -1.681916,1.84028 c -0.963233,1.05393 -2.416121,2.1995 -3.400154,2.68094 -2.120413,1.03743 -5.354281,1.34875 -7.319842,0.70469 z m 6.862634,-3.91074 c 0.94752,-0.65595 2.223777,-1.93271 2.836128,-2.83724 l 1.113366,-1.6446 -0.825775,-1.23572 c -2.141551,-3.20471 -4.385264,-4.67962 -7.118879,-4.67962 -2.164454,0 -3.545482,0.59179 -4.851063,2.07877 -2.180303,2.48323 -2.088325,5.43528 0.241958,7.76556 2.361574,2.36158 5.683233,2.57499 8.604265,0.55285 z m -6.312981,-4.67116 c 0,-0.82955 0.01285,-0.83328 2.541919,-0.73797 2.352417,0.0886 2.549733,0.15081 2.646729,0.83377 0.101266,0.71299 0.01524,0.73797 -2.54192,0.73797 -2.616196,0 -2.646728,-0.01 -2.646728,-0.83377 z m 24.131951,5.5559 c 1.554549,-0.73767 3.341604,-2.82717 3.601132,-4.21058 0.91107,-4.85641 -4.157463,-8.56662 -8.966217,-6.56334 -2.361721,0.98386 -5.224831,4.42073 -4.867796,5.84327 0.104242,0.41534 0.814555,1.46522 1.578467,2.33308 2.418081,2.74709 6.045183,3.83574 8.654414,2.59757 z m -3.707515,-3.76813 c -0.210496,-0.55767 -0.516302,-0.93139 -0.679567,-0.83048 -0.163265,0.10091 -0.548016,-2e-4 -0.855002,-0.22467 -0.751013,-0.54915 -0.340834,-1.5388 0.637791,-1.5388 0.54058,0 0.792532,-0.21448 0.866879,-0.73797 0.14896,-1.04886 1.491166,-1.21028 1.637393,-0.19693 0.069,0.47816 0.400357,0.81222 0.927338,0.9349 0.520143,0.12111 0.858467,0.45712 0.925249,0.91896 0.08449,0.58436 -0.09357,0.76785 -0.901971,0.92952 -0.785054,0.15702 -1.007247,0.3733 -1.007247,0.98043 0,1.17207 -1.081622,1.0082 -1.550863,-0.23496 z m 15.424345,2.99515 c -2.100018,-1.28045 -2.654884,-4.21263 -1.213465,-6.41251 0.458289,-0.69945 0.594487,-1.41625 0.525609,-2.76624 -0.167285,-3.27862 1.875044,-5.33793 5.181788,-5.22487 1.295317,0.0443 2.19329,-0.13778 3.184832,-0.64574 1.799544,-0.92188 4.127459,-0.92994 5.847528,-0.0202 0.941423,0.4979 1.829201,0.67347 3.223072,0.63742 1.556094,-0.0403 2.160786,0.10711 3.163974,0.77099 1.644819,1.08848 2.556176,3.32633 2.080461,5.10859 -0.287303,1.0764 -0.235297,1.33664 0.41915,2.09748 1.706721,1.98418 0.99823,5.46691 -1.337613,6.57534 -1.947123,0.92397 -2.265047,0.75533 -1.952019,-1.03546 0.693989,-3.97026 0.04216,-5.44136 -2.848583,-6.42895 -4.454633,-1.52187 -11.200349,-0.8589 -13.373594,1.31434 -1.116496,1.1165 -1.121694,1.13574 -0.91328,3.37821 0.115287,1.24043 0.29932,2.48911 0.408964,2.77484 0.287161,0.74832 -1.082983,0.6779 -2.396824,-0.12322 z"
       id="path790" /></g></svg>
