<?xml version="1.0" encoding="UTF-8" standalone="no"?>
<!-- Created with Inkscape (http://www.inkscape.org/) -->

<svg
   width="72.648537mm"
   height="41.218067mm"
   viewBox="0 0 72.648537 41.218067"
   version="1.1"
   id="svg5"
   xml:space="preserve"
   xmlns="http://www.w3.org/2000/svg"
   xmlns:svg="http://www.w3.org/2000/svg"><defs
     id="defs2" /><g
     id="layer1"
     transform="translate(94.97062,-121.92888)"><path
       style="fill:#000000;stroke-width:0.367125"
       d="m -76.043145,157.97199 c -6.066468,-0.92178 -11.275,-6.09723 -12.052073,-11.97552 -0.323868,-2.44993 0.362786,-6.13533 1.551377,-8.32653 1.258145,-2.31941 4.02507,-4.85893 6.61836,-6.0744 1.880003,-0.88116 2.523,-0.98392 6.156665,-0.98392 3.950692,0 4.130904,0.0363 6.85111,1.38072 2.172228,1.07357 3.390027,2.01594 5.474429,4.2363 l 2.680737,2.85559 2.950415,-2.97833 c 4.552946,-4.59603 8.667622,-6.23554 14.090423,-5.61443 4.831666,0.55341 9.191284,3.57956 11.265982,7.8201 1.473355,3.01143 1.704045,7.49858 0.543746,10.5764 -3.484533,9.24308 -15.133667,12.16044 -23.398726,5.85989 -1.256542,-0.95788 -2.889406,-2.52632 -3.628586,-3.48545 -0.739181,-0.9591 -1.470725,-1.74384 -1.625654,-1.74384 -0.154928,0 -1.121382,0.96927 -2.147674,2.15394 -4.161082,4.80319 -9.834738,7.13456 -15.330531,6.29948 z m 6.591746,-5.32034 c 1.047571,-0.49791 2.547585,-1.43784 3.333366,-2.08875 1.740596,-1.44182 4.628877,-5.29155 4.628877,-6.16971 0,-0.7318 -2.988269,-4.76645 -4.823145,-6.51205 -2.729745,-2.5969 -8.003976,-3.61999 -11.383144,-2.20808 -3.426319,1.43161 -5.821232,4.96392 -5.821232,8.58585 0,6.70605 7.809636,11.36606 14.065278,8.39274 z m -7.991295,-7.85399 c -0.525509,-1.65573 -0.0046,-1.88735 4.244805,-1.88735 h 3.9991 v 1.28494 1.28494 h -4.013639 c -3.589829,0 -4.036514,-0.072 -4.230266,-0.68253 z m 38.164621,7.8288 c 3.67773,-1.76887 6.083165,-5.9091 5.492871,-9.45433 -1.031394,-6.1944 -7.294553,-9.64462 -13.597361,-7.49046 -3.317681,1.13391 -8.232586,6.33418 -8.232586,8.71057 0,1.12112 0.77344,2.25457 3.455367,5.06368 1.881177,1.97041 3.872839,3.24345 5.906328,3.77528 1.795452,0.46956 5.389598,0.15797 6.975381,-0.60474 z m -5.936221,-5.56558 c -0.301263,-1.2818 -0.442812,-1.40664 -1.714872,-1.51236 -1.317676,-0.10947 -1.380877,-0.17327 -1.273209,-1.28493 0.102915,-1.06254 0.239439,-1.18015 1.490015,-1.28365 1.29268,-0.10698 1.376719,-0.18864 1.376719,-1.33744 0,-2.14826 2.432577,-2.23224 2.639723,-0.0912 0.100098,1.03455 0.267669,1.19737 1.398656,1.35893 1.12727,0.16104 1.298768,0.32612 1.397639,1.34534 0.08624,0.88891 -0.05574,1.21524 -0.604449,1.38939 -0.394432,0.12516 -0.858163,0.20235 -1.030514,0.17148 -0.880826,-0.15782 -1.194997,0.13806 -1.299697,1.22395 -0.09452,0.9803 -0.287797,1.21317 -1.083343,1.30535 -0.850802,0.0985 -1.008145,-0.0573 -1.296668,-1.28494 z"
       id="path766" /></g></svg>
