<?xml version="1.0" encoding="UTF-8" standalone="no"?>
<!-- Created with Inkscape (http://www.inkscape.org/) -->

<svg
   width="72.648537mm"
   height="41.218067mm"
   viewBox="0 0 72.648537 41.218067"
   version="1.1"
   id="svg5"
   xml:space="preserve"
   xmlns="http://www.w3.org/2000/svg"
   xmlns:svg="http://www.w3.org/2000/svg"><defs
     id="defs2" /><g
     id="layer1"
     transform="translate(94.97062,-121.92888)"><path
       style="fill:#000000;stroke-width:0.333996"
       d="m -73.788246,158.0773 -0.937113,-0.80583 -0.09394,-14.23924 -0.09394,-14.23924 0.986745,-0.98673 0.986744,-0.98676 h 14.235703 14.235702 l 0.819806,0.81982 0.81981,0.81981 v 14.34001 c 0,13.61747 -0.03213,14.37973 -0.638003,15.12849 -0.63709,0.78737 -0.650327,0.78862 -9.268387,0.87731 l -8.630386,0.0889 5.171479,-4.96174 c 4.648885,-4.46034 5.104528,-4.99574 4.508946,-5.29815 -0.364394,-0.18503 -2.766709,-1.0613 -5.338478,-1.9473 -2.571768,-0.88597 -4.743429,-1.66532 -4.825912,-1.73189 -0.181261,-0.14624 6.386478,-6.7793 6.712554,-6.7793 0.126058,0 0.67552,0.77306 1.221029,1.71791 0.800931,1.38727 1.029366,1.5962 1.186833,1.08549 0.335527,-1.0882 2.179195,-9.96788 2.08845,-10.05862 -0.08887,-0.0889 -9.332924,1.83038 -10.219364,2.12173 -0.320247,0.10528 0.136059,0.52836 1.285646,1.19206 l 1.782096,1.02889 -5.607926,5.61521 c -5.334499,5.34143 -5.568175,5.62965 -4.792604,5.91112 0.448428,0.16275 2.940946,1.02977 5.53893,1.92673 l 4.723605,1.63081 -4.38961,4.25266 -4.389609,4.25266 -3.070839,0.0155 c -2.776382,0.014 -3.160696,-0.0617 -4.007951,-0.79028 z"
       id="path628" /></g></svg>
