<?xml version="1.0" encoding="UTF-8" standalone="no"?>
<!-- Created with Inkscape (http://www.inkscape.org/) -->

<svg
   width="72.648537mm"
   height="41.218067mm"
   viewBox="0 0 72.648537 41.218067"
   version="1.1"
   id="svg5"
   xml:space="preserve"
   xmlns="http://www.w3.org/2000/svg"
   xmlns:svg="http://www.w3.org/2000/svg"><defs
     id="defs2" /><g
     id="layer1"
     transform="translate(94.97062,-121.92888)"><g
       id="g1457"
       transform="translate(56.03777,28.804462)"><path
         style="fill:#000000;stroke-width:0.189229"
         d="m -123.75447,131.76192 c -5.52779,-1.11161 -10.25546,-4.72399 -12.41463,-9.48593 -1.14682,-2.52923 -1.39767,-3.8476 -1.3836,-7.27126 0.0117,-2.82774 0.0608,-3.2795 0.52137,-4.78891 1.67421,-5.48686 5.48208,-9.1192 10.67496,-10.18288 l 1.18268,-0.242249 v -0.87853 c 0,-1.25943 0.66176,-2.415618 1.6955,-2.962272 0.80548,-0.42596 0.94761,-0.435744 6.32596,-0.435744 h 5.50196 l -2.06482,2.071238 -2.06481,2.071238 -1.14885,-0.10699 c -0.85715,-0.0798 -1.34105,-0.024 -1.90576,0.22003 l -0.75692,0.327009 1.13537,0.33256 c 1.79077,0.52451 2.60781,0.91786 2.49847,1.20279 -0.0536,0.13963 -0.44943,1.10206 -0.87967,2.13878 l -0.78227,1.8849 -1.61994,-0.54184 c -0.89096,-0.298 -1.6693,-0.49246 -1.72963,-0.43213 -0.22328,0.22328 1.04211,1.7275 1.81063,2.15236 0.88497,0.48922 2.38366,0.58991 3.35162,0.22517 1.59114,-0.59956 2.79796,-2.78082 2.37858,-4.29911 l -0.19822,-0.7176 3.26007,-3.264199 3.26005,-3.264206 h 3.89877 c 3.704923,0 3.939743,0.02165 4.722784,0.435744 0.5632,0.297833 0.961916,0.696538 1.259749,1.259749 l 0.435744,0.824003 v 11.576279 c 0,6.36696 -0.05963,11.63588 -0.132411,11.70871 -0.07283,0.0728 -1.006459,-0.73866 -2.074733,-1.8033 l -1.942323,-1.93573 0.11184,-1.06994 c 0.18613,-1.78065 -0.53928,-3.21661 -1.99418,-3.94762 -1.0551,-0.53012 -1.91902,-0.61982 -2.96842,-0.30818 -2.36539,0.70245 -3.4849,3.4526 -2.31155,5.67853 l 0.2964,0.56231 0.31518,-0.75154 c 0.17335,-0.41334 0.45274,-1.24456 0.62086,-1.84713 0.23138,-0.82929 0.37484,-1.06907 0.59016,-0.98643 0.15648,0.06 1.16764,0.33046 2.24703,0.60092 l 1.96254,0.49177 -0.12697,0.58929 c -0.0698,0.3241 -0.3272,1.14277 -0.57193,1.81928 l -0.44498,1.22998 1.98176,1.99 c 1.08998,1.09449 1.981763,2.05246 1.981763,2.12882 0,0.0763 -1.426303,0.13942 -3.169583,0.14012 l -3.16958,10e-4 -0.44483,0.65322 c -0.75232,1.10478 -3.55959,3.66835 -5.0971,4.65464 -2.97958,1.91135 -6.10186,2.83134 -9.50178,2.79974 -1.0928,-0.0104 -2.49783,-0.1212 -3.12229,-0.24677 z m 5.99138,-1.50703 c 6.21567,-1.19348 11.68411,-6.2852 13.67345,-12.73146 0.11034,-0.35742 0.0299,-0.44141 -0.58518,-0.61123 -0.82067,-0.2266 -0.88039,-0.1849 -1.19783,0.83635 -0.72373,2.32844 -3.19209,5.90618 -5.20745,7.54787 -4.89935,3.99099 -10.86108,4.69291 -16.16894,1.9037 -4.69324,-2.46623 -7.22232,-6.70951 -7.21232,-12.10077 0.007,-3.74765 1.04122,-6.53918 3.31467,-8.94649 2.97535,-3.15054 6.85698,-3.97428 12.24507,-2.59859 0.45075,0.11509 0.52358,0.0581 0.7317,-0.57252 0.2852,-0.86417 0.26591,-0.87859 -1.77447,-1.32617 -1.82047,-0.39934 -4.66953,-0.44529 -6.27005,-0.10108 -2.46562,0.53019 -5.12666,2.15 -6.75813,4.11373 -3.76898,4.53663 -4.24095,12.01065 -1.09301,17.3094 2.02784,3.41336 5.86281,6.16968 9.83804,7.07092 0.78057,0.17697 1.50436,0.34906 1.60844,0.38244 0.53075,0.17022 3.63961,0.0575 4.85601,-0.17605 z m 0.82087,-3.41594 c 1.54048,-0.54049 2.7934,-1.18133 3.98688,-2.03917 l 1.12231,-0.80666 -5.58226,-0.0946 c -3.74076,-0.0635 -5.70711,-0.16727 -5.96072,-0.31487 -0.59143,-0.3442 -1.3752,-1.24083 -1.59641,-1.82628 -0.13109,-0.34695 -0.20127,-3.43689 -0.20127,-8.86149 v -8.3288 l -0.61499,0.12221 c -1.22257,0.24294 -3.07161,1.29712 -4.12992,2.35454 -1.16899,1.168 -2.25652,3.17027 -2.72679,5.02032 -0.36552,1.43796 -0.36659,4.5649 -0.002,6.11087 0.97714,4.14439 4.43358,7.56932 8.83918,8.75859 1.75614,0.47407 5.38788,0.42401 6.86608,-0.0946 z"
         id="path1777" /></g></g></svg>
