<?xml version="1.0" encoding="UTF-8" standalone="no"?>
<!-- Created with Inkscape (http://www.inkscape.org/) -->

<svg
   width="72.648537mm"
   height="41.218067mm"
   viewBox="0 0 72.648537 41.218067"
   version="1.1"
   id="svg5"
   xml:space="preserve"
   xmlns="http://www.w3.org/2000/svg"
   xmlns:svg="http://www.w3.org/2000/svg"><defs
     id="defs2" /><g
     id="layer1"
     transform="translate(94.97062,-121.92888)"><path
       style="fill:#000000;stroke-width:0.194577"
       d="m -63.390808,152.47454 v -6.81021 h -2.320809 c -2.27545,0 -2.328691,-0.01 -2.724087,-0.51269 -0.353494,-0.44939 -0.402949,-0.77966 -0.40062,-2.67544 0.0015,-1.18952 0.05637,-2.36327 0.12202,-2.60835 0.149696,-0.55883 1.006232,-1.01374 1.908725,-1.01374 h 0.690684 l 0.0011,-2.77273 c 6.2e-4,-1.52501 0.08705,-3.29809 0.192076,-3.9402 0.70151,-4.28903 4.929861,-7.40706 9.12786,-6.731 2.285925,0.36814 4.112734,1.44974 5.402281,3.19854 1.331075,1.80512 1.621178,3.05023 1.621178,6.95806 v 3.28733 h 0.884442 c 0.679604,0 0.995058,0.11061 1.362044,0.4776 0.458267,0.45826 0.4776,0.58035 0.4776,3.01595 0,3.37583 0.05554,3.31667 -3.113242,3.31667 h -2.334932 v 6.81021 6.81022 h -0.681022 -0.681021 v -6.81022 -6.81021 h -4.08613 -4.086131 v 6.81021 6.81022 h -0.681021 -0.681022 z m 14.982478,-10.21532 v -2.04307 h -9.534304 -9.534304 v 2.04307 2.04306 h 9.534304 9.534304 z m -2.760103,-7.05344 c -0.0619,-3.40413 -0.09822,-3.71346 -0.542738,-4.62122 -1.159407,-2.3677 -3.485916,-3.83568 -6.134174,-3.87051 -2.047453,-0.0269 -3.221158,0.47025 -4.76721,2.01941 -1.815856,1.81952 -1.992345,2.3811 -2.095205,6.6669 l -0.08289,3.45375 h 6.844277 6.844278 z"
       id="path533" /></g></svg>
