<?xml version="1.0" encoding="UTF-8" standalone="no"?>
<!-- Created with Inkscape (http://www.inkscape.org/) -->

<svg
   width="72.648537mm"
   height="41.218067mm"
   viewBox="0 0 72.648537 41.218067"
   version="1.1"
   id="svg5"
   xml:space="preserve"
   xmlns="http://www.w3.org/2000/svg"
   xmlns:svg="http://www.w3.org/2000/svg"><defs
     id="defs2" /><g
     id="layer1"
     transform="translate(94.97062,-121.92888)"><path
       style="fill:#000000;stroke-width:0.467417"
       d="m -73.293031,159.00261 c -0.934033,-1.18744 -0.968759,-1.76547 -0.968759,-16.12589 0,-14.2711 0.03911,-14.93344 0.934835,-15.82915 0.870947,-0.87096 1.549743,-0.93406 9.932616,-0.92353 l 8.997782,0.0106 -5.56251,5.25858 -5.56251,5.2586 3.926551,1.36518 c 2.159602,0.75085 4.815683,1.70193 5.902403,2.1135 l 1.975856,0.7483 -3.659364,3.63789 -3.659364,3.6379 -1.155264,-1.95621 -1.155263,-1.95621 -1.24614,5.74145 c -0.685375,3.15781 -1.1958,5.777 -1.134274,5.82046 0.06153,0.0435 2.611667,-0.45277 5.666983,-1.10267 5.980118,-1.27206 5.946563,-1.23379 2.796958,-3.1903 -0.791356,-0.49158 -0.326709,-1.0938 4.946351,-6.411 3.200866,-3.22764 5.724919,-5.94788 5.609008,-6.04495 -0.115908,-0.0972 -2.52446,-0.98171 -5.352334,-1.96584 -2.827874,-0.98413 -5.235932,-1.86512 -5.351239,-1.95775 -0.115307,-0.0926 1.773581,-2.15993 4.197523,-4.594 l 4.407173,-4.42556 h 3.559271 c 5.445878,0 5.106412,-1.14263 5.106412,17.18788 0,15.46498 -8.96e-4,15.47894 -1.038837,16.20595 -0.888024,0.62199 -3.224212,0.72762 -16.091972,0.72762 h -15.053132 z"
       id="path571" /></g></svg>
