<?xml version="1.0" encoding="UTF-8" standalone="no"?>
<!-- Created with Inkscape (http://www.inkscape.org/) -->

<svg
   width="72.648537mm"
   height="41.218067mm"
   viewBox="0 0 72.648537 41.218067"
   version="1.1"
   id="svg5"
   xml:space="preserve"
   xmlns="http://www.w3.org/2000/svg"
   xmlns:svg="http://www.w3.org/2000/svg"><defs
     id="defs2" /><g
     id="layer1"
     transform="translate(94.97062,-121.92888)"><g
       id="g1457"
       transform="translate(56.03777,28.804462)"><path
         style="fill:#000000;stroke-width:0.234437"
         d="m -126.57918,129.92859 c -0.42023,-0.25623 -0.97369,-0.80969 -1.22992,-1.22992 -0.45095,-0.73962 -0.46585,-1.20658 -0.46585,-14.59587 0,-13.38928 0.0149,-13.85623 0.46585,-14.595862 0.25623,-0.42022 0.80969,-0.9737 1.22992,-1.229913 0.71338,-0.43495 1.19148,-0.465918 7.20669,-0.466733 l 6.44263,-8.77e-4 -2.33636,2.345155 -2.33634,2.34515 -1.09123,-0.14474 c -3.53065,-0.46837 -6.28164,3.30555 -4.68254,6.42372 1.48021,2.88636 5.02304,3.48876 7.27482,1.23699 1.07197,-1.07198 1.58836,-2.77554 1.23226,-4.06523 l -0.22516,-0.81549 3.66815,-3.66279 3.66815,-3.662765 h 4.82723 c 4.620771,0 4.860291,0.0226 5.60001,0.527482 0.425027,0.290121 0.968112,0.895071 1.206861,1.344361 0.408049,0.767882 0.434082,1.629032 0.434082,14.359292 0,7.44831 -0.08134,13.54239 -0.180712,13.54239 -0.0994,0 -1.127993,-0.95174 -2.285765,-2.11498 l -2.105046,-2.11498 v -1.71167 c 0,-1.46435 -0.0908,-1.84896 -0.62892,-2.66209 -2.00851,-3.03534 -6.47674,-2.75119 -7.95626,0.50594 -1.47274,3.24223 1.17101,6.83202 4.68795,6.36548 l 1.09122,-0.14475 2.33635,2.34516 2.336355,2.34515 -13.710185,-8.9e-4 c -13.2671,-8.9e-4 -13.73486,-0.016 -14.47424,-0.46674 z m 9.23103,-4.43521 c 1.7493,-0.79439 2.80664,-2.81333 2.54683,-4.86309 l -0.1439,-1.13543 4.12102,-4.10264 4.12103,-4.10266 h 1.69701 c 1.37828,0 1.86512,-0.10457 2.59194,-0.55636 3.107954,-1.93216 2.869199,-6.53639 -0.41634,-8.02881 -3.24132,-1.47233 -6.83202,1.171 -6.36572,4.68617 l 0.14452,1.08942 -4.30713,4.30241 -4.30713,4.3024 -0.94185,-0.15913 c -2.67929,-0.45265 -5.19466,1.70794 -5.20938,4.47468 -0.0175,3.27838 3.44247,5.46749 6.4691,4.09304 z m -3.19213,-2.83361 c -0.69807,-0.69808 -0.62517,-1.95296 0.14883,-2.56179 0.81943,-0.64456 1.62018,-0.6137 2.32342,0.0896 0.70324,0.70325 0.7341,1.504 0.0896,2.32342 -0.60883,0.77401 -1.86371,0.84691 -2.56179,0.14884 z m 14.68395,-14.55213 c -1.26455,-0.99469 -0.46023,-3.03067 1.19728,-3.03067 0.84909,0 1.70157,0.90208 1.70157,1.80055 0,0.72794 -0.98807,1.71601 -1.716,1.71601 -0.31083,0 -0.84312,-0.21865 -1.18285,-0.48589 z m -0.10803,14.4784 c -0.72128,-0.76777 -0.67329,-1.87352 0.10803,-2.48806 0.81941,-0.64456 1.62018,-0.6137 2.32341,0.0896 0.70324,0.70325 0.7341,1.504 0.0896,2.32342 -0.63514,0.80745 -1.80033,0.84217 -2.52095,0.0751 z m -14.5351,-14.53511 c -1.0642,-1.13277 -0.3572,-2.97396 1.14197,-2.97396 0.88929,0 1.86485,0.91982 1.86485,1.75828 0,0.81721 -0.97625,1.75828 -1.82398,1.75828 -0.40046,0 -0.87957,-0.21976 -1.18284,-0.5426 z"
         id="path1691" /></g></g></svg>
