<?xml version="1.0" encoding="UTF-8" standalone="no"?>
<!-- Created with Inkscape (http://www.inkscape.org/) -->

<svg
   width="72.648537mm"
   height="41.218067mm"
   viewBox="0 0 72.648537 41.218067"
   version="1.1"
   id="svg5"
   xml:space="preserve"
   xmlns="http://www.w3.org/2000/svg"
   xmlns:svg="http://www.w3.org/2000/svg"><defs
     id="defs2" /><g
     id="layer1"
     transform="translate(94.97062,-121.92888)"><g
       id="g1457"
       transform="translate(56.03777,28.804462)"><path
         style="fill:#000000;stroke-width:0.284916"
         d="m -115.47379,131.11934 c -0.31341,-0.0702 -1.275,-0.26839 -2.13687,-0.44047 -5.6596,-1.13 -10.82446,-5.89349 -12.6938,-11.70733 -0.93096,-2.89536 -1.05653,-6.7534 -0.31223,-9.59244 1.62869,-6.21238 7.01807,-11.410345 13.18527,-12.716952 10.86683,-2.302304 21.189505,5.978992 21.189505,16.999132 0,4.47085 -1.685484,8.67443 -4.807605,11.99009 -2.14222,2.27501 -4.23013,3.61353 -7.16162,4.59116 -2.03239,0.67778 -6.00796,1.15774 -7.26265,0.87681 z m 2.66613,-9.04798 c 0.20189,-0.24325 0.34159,-2.57995 0.39104,-6.54024 l 0.0769,-6.16176 1.85195,1.68427 c 1.83807,1.67162 2.70501,2.02416 3.36202,1.36715 0.81253,-0.81253 0.33885,-1.57731 -2.76397,-4.46267 -2.11374,-1.96559 -3.31966,-2.88764 -3.77514,-2.88645 -0.44869,0.001 -1.65536,0.9099 -3.66091,2.75699 -1.6454,1.51539 -3.10199,2.93895 -3.23687,3.16345 -0.14392,0.23953 -0.11701,0.68965 0.0652,1.08938 0.54515,1.19648 1.57872,0.8903 3.62379,-1.07347 l 1.8273,-1.75466 v 6.15052 c 0,5.2115 0.0684,6.21888 0.44772,6.59825 0.54706,0.54706 1.36813,0.57881 1.79103,0.0692 z"
         id="path1917" /></g></g></svg>
