<?xml version="1.0" encoding="UTF-8" standalone="no"?>
<!-- Created with Inkscape (http://www.inkscape.org/) -->

<svg
   width="72.648537mm"
   height="41.218067mm"
   viewBox="0 0 72.648537 41.218067"
   version="1.1"
   id="svg5"
   xml:space="preserve"
   xmlns="http://www.w3.org/2000/svg"
   xmlns:svg="http://www.w3.org/2000/svg"><defs
     id="defs2" /><g
     id="layer1"
     transform="translate(94.97062,-121.92888)"><path
       style="fill:#000000;stroke-width:0.306978"
       d="m -80.875898,158.6527 c -0.02784,-2.3362 -0.723472,-10.95849 -1.070505,-13.26901 -0.253903,-1.69046 -0.461643,-3.19621 -0.461643,-3.34611 0,-0.25485 2.736498,-1.09416 2.922885,-0.89648 0.44697,0.47402 1.679277,12.29841 1.681049,16.1302 l 7.45e-4,1.61163 h -1.534892 c -0.844192,0 -1.536128,-0.10361 -1.537639,-0.23023 z m 4.607423,-9.28611 v -9.51633 h 1.534893 1.534892 v 9.51633 9.51634 h -1.534892 -1.534893 z m 5.022394,4.52794 c 0.190728,-4.59283 1.093697,-12.28125 1.488776,-12.67632 0.09223,-0.0922 0.813099,-0.005 1.601949,0.19347 1.325605,0.3338 1.421311,0.42206 1.263198,1.16499 -0.499129,2.3453 -1.087566,7.7797 -1.275354,11.77832 l -0.212646,4.52794 h -1.536538 -1.536539 z m 26.310191,4.41325 c -0.18026,-0.33681 -0.327749,-1.58846 -0.327749,-2.78144 v -2.16902 h -2.445028 c -2.111859,0 -2.48878,-0.0818 -2.766125,-0.59998 -0.263594,-0.49253 -0.155577,-0.76931 0.603157,-1.54548 0.966673,-0.98889 1.140658,-1.78824 0.606476,-2.78638 -0.311104,-0.5813 -0.111325,-0.59378 9.508662,-0.59378 h 9.826439 l -0.181928,0.90964 c -0.257402,1.28701 0.09179,2.39227 0.829793,2.6265 0.466206,0.14798 0.606379,0.41399 0.536501,1.01814 -0.0935,0.80845 -0.12544,0.81886 -2.780654,0.90654 l -2.686064,0.0886 v 2.607 c 0,2.13042 -0.09181,2.64224 -0.502192,2.79972 -1.095407,0.42034 -1.488926,-0.31091 -1.582493,-2.94066 l -0.08933,-2.51047 -3.28744,0.087 -3.287441,0.087 -0.153488,2.60932 c -0.140719,2.39221 -0.209231,2.61726 -0.823422,2.70469 -0.422893,0.0602 -0.790788,-0.13045 -0.99768,-0.51703 z m -41.875706,-10.92386 c -2.32948,-0.83056 -3.665601,-2.73739 -3.665601,-5.23132 0,-1.56073 0.577182,-3.097 1.429226,-3.80413 0.361747,-0.30023 0.423546,-0.83017 0.286892,-2.46016 -0.21904,-2.61273 0.186825,-3.87611 1.728973,-5.38197 1.44322,-1.40927 3.564313,-2.0695 5.507173,-1.71423 1.105025,0.20207 1.535242,0.10988 2.893515,-0.6202 2.861289,-1.53791 5.707058,-1.47475 8.256222,0.18326 0.988431,0.6429 1.316472,0.70441 2.538617,0.47609 2.914756,-0.54453 5.6123,0.80281 6.889469,3.44108 0.695309,1.43632 0.828268,3.36302 0.323666,4.69023 -0.271858,0.71503 -0.208046,0.95116 0.440938,1.63162 2.097708,2.19945 1.766511,6.22892 -0.653345,7.94891 -0.900594,0.64011 -3.165907,1.3785 -3.427282,1.11712 -0.08516,-0.0852 0.01067,-1.12002 0.212973,-2.29971 0.747236,-4.35755 0.212493,-5.97504 -2.405346,-7.27573 -2.21552,-1.10079 -7.471476,-1.75568 -10.733305,-1.33737 -3.625949,0.46501 -5.645562,1.115 -6.907662,2.22314 -1.512711,1.32817 -1.785281,2.62153 -1.224283,5.8093 0.250824,1.42526 0.456232,2.69499 0.456462,2.82162 6.14e-4,0.33064 -0.597093,0.26387 -1.947302,-0.21755 z m 35.910254,-2.33731 -0.808847,-0.63624 v -5.82426 c 0,-5.77448 0.0065,-5.83071 0.753495,-6.57776 l 0.753492,-0.75349 h 10.312982 c 11.110174,0 11.831472,0.0943 12.234639,1.59934 0.103574,0.38665 0.190204,3.0922 0.19251,6.01233 0.0042,5.23037 -0.0071,5.32054 -0.749304,6.06283 l -0.753492,0.75349 h -10.563316 c -10.221794,0 -10.589465,-0.0205 -11.372159,-0.63624 z"
       id="path647" /></g></svg>
