<?xml version="1.0" encoding="UTF-8" standalone="no"?>
<!-- Created with Inkscape (http://www.inkscape.org/) -->

<svg
   width="72.648537mm"
   height="41.218067mm"
   viewBox="0 0 72.648537 41.218067"
   version="1.1"
   id="svg5"
   xml:space="preserve"
   xmlns="http://www.w3.org/2000/svg"
   xmlns:svg="http://www.w3.org/2000/svg"><defs
     id="defs2" /><g
     id="layer1"
     transform="translate(94.97062,-121.92888)"><path
       style="fill:#000000;stroke-width:0.275079"
       d="m -78.291613,160.35177 c -1.275031,-0.50483 -2.699912,-2.16839 -3.059702,-3.57222 -0.337441,-1.31662 -0.342681,-1.32123 -1.596529,-1.40281 l -1.257978,-0.0818 -0.07577,-4.33666 -0.07577,-4.33664 0.650325,-0.24725 c 0.357679,-0.13599 0.979761,-0.63877 1.382404,-1.11728 1.389119,-1.65088 0.816171,-4.05232 -1.217767,-5.10411 l -0.800949,-0.41418 v -4.25668 -4.25667 h 1.375396 c 1.125932,0 1.375677,-0.0873 1.376932,-0.48138 0.01029,-3.22813 3.219145,-5.79641 6.27938,-5.02582 2.300023,0.57915 3.556415,1.96154 3.880194,4.26935 0.145983,1.04051 0.210435,1.10495 1.18592,1.18569 0.988038,0.0818 1.031549,0.0495 1.031549,-0.7653 0,-1.96309 1.727379,-4.099 3.774822,-4.66758 1.281465,-0.35587 1.34683,-0.35587 2.628292,0 2.039595,0.5664 3.774825,2.70438 3.774825,4.65098 0,0.74335 0.08975,0.83406 0.825239,0.83406 0.71541,0 0.826042,-0.10064 0.831279,-0.75646 0.01588,-1.98669 1.822759,-4.20057 3.880598,-4.75468 2.588432,-0.697 5.737883,1.23819 6.161627,3.78602 0.282421,1.6981 0.33547,1.76658 1.29687,1.67393 0.819816,-0.079 0.908506,-0.18076 1.044309,-1.19804 0.523749,-3.92331 5.248211,-5.76607 8.268151,-3.22495 0.99079,0.8337 1.883854,2.58772 1.89288,3.71772 0.006,0.75262 0.01584,0.75646 1.931597,0.75646 h 1.925556 v 12.1035 12.1035 h -1.894952 -1.894943 l -0.186649,1.03154 c -0.575445,3.18027 -3.968929,5.02021 -6.956641,3.77186 -0.556957,-0.23271 -1.246974,-0.63501 -1.533373,-0.89401 -0.725811,-0.65635 -1.562504,-2.37564 -1.562504,-3.21073 0,-0.63171 -0.10543,-0.69866 -1.100317,-0.69866 -0.994889,0 -1.100319,0.067 -1.100319,0.69866 0,0.83509 -0.836692,2.55438 -1.562503,3.21073 -2.905002,2.62702 -7.901927,0.93898 -8.518983,-2.87785 -0.14565,-0.9009 -0.262371,-1.03154 -0.921693,-1.03154 -0.659321,0 -0.776043,0.13064 -0.921691,1.03154 -0.368071,2.27673 -2.651015,4.19497 -4.992517,4.19497 -2.3415,0 -4.624445,-1.91824 -4.992516,-4.19497 -0.158183,-0.97843 -0.219745,-1.03154 -1.19571,-1.03154 -0.994038,0 -1.033994,0.0376 -1.177906,1.11062 -0.387392,2.88823 -4.006283,4.91505 -6.800461,3.80873 z m 3.552601,-2.0189 c 0.775099,-0.40082 1.673909,-1.88437 1.673909,-2.76291 0,-0.87854 -0.89881,-2.3621 -1.673909,-2.76291 -1.014613,-0.52468 -2.722864,-0.51059 -3.492964,0.0288 -0.772538,0.54109 -1.435035,1.80331 -1.435035,2.73409 0,0.93076 0.662497,2.19299 1.435035,2.73409 0.7701,0.53941 2.478351,0.55349 3.492964,0.0288 z m 12.842136,-0.53477 c 0.798316,-0.79831 0.93527,-1.12459 0.93527,-2.22814 0,-1.10356 -0.136954,-1.42983 -0.93527,-2.22815 -0.798317,-0.79831 -1.124589,-0.93526 -2.228144,-0.93526 -1.103554,0 -1.429828,0.13695 -2.228144,0.93526 -0.798315,0.79832 -0.93527,1.12459 -0.93527,2.22815 0,1.10355 0.136955,1.42983 0.93527,2.22814 0.798316,0.79832 1.12459,0.93528 2.228144,0.93528 1.103555,0 1.429827,-0.13696 2.228144,-0.93528 z m 11.522066,0.33893 c 2.497695,-1.96468 1.202838,-5.73048 -1.970407,-5.73048 -1.048267,0 -1.391581,0.14732 -2.17953,0.93526 -0.798316,0.79832 -0.935269,1.12459 -0.935269,2.22815 0,1.10355 0.136953,1.42983 0.935269,2.22814 0.78436,0.78436 1.133457,0.93528 2.163539,0.93528 0.843454,0 1.465792,-0.18684 1.986398,-0.59635 z m 12.719268,-0.37327 c 0.913255,-0.91326 0.961675,-1.0522 0.833072,-2.39061 -0.110843,-1.15355 -0.299324,-1.56644 -1.00146,-2.1938 -0.99439,-0.88849 -2.568282,-1.03959 -3.861677,-0.37075 -1.100871,0.56928 -1.79549,2.37562 -1.388156,3.60987 0.467011,1.41505 1.712612,2.31491 3.204351,2.31491 1.056908,0 1.390254,-0.146 2.21387,-0.96962 z m -42.907183,-5.21662 c 1.176675,-1.81664 4.045801,-2.59631 6.216526,-1.68933 0.496029,0.20726 1.339481,0.88808 1.87434,1.51294 0.898694,1.04992 1.076677,1.13611 2.346094,1.13611 1.182507,0 1.415424,-0.0917 1.674045,-0.65935 0.165231,-0.36264 0.763447,-1.01251 1.329368,-1.44416 0.909955,-0.69406 1.256587,-0.78482 2.997332,-0.78482 1.740745,0 2.087377,0.0908 2.997332,0.78482 0.565921,0.43165 1.164139,1.08152 1.329368,1.44416 0.254697,0.559 0.496315,0.65935 1.587508,0.65935 1.091195,0 1.332813,-0.10033 1.587509,-0.65935 0.538724,-1.18236 2.157968,-2.17496 3.765558,-2.30828 2.038819,-0.16907 3.273885,0.31461 4.476225,1.75299 0.920721,1.10148 1.129156,1.21464 2.237298,1.21464 1.091714,0 1.325666,-0.12111 2.19446,-1.13611 1.163229,-1.35897 2.318659,-1.89134 4.09167,-1.88524 1.602821,0.005 3.286338,0.88551 4.066258,2.12548 0.49024,0.77942 0.692465,0.87583 1.856785,0.88528 l 1.306628,0.0106 V 143.1914 132.87591 h -1.242484 c -1.108758,0 -1.36782,0.13034 -2.406946,1.21097 -1.457043,1.51522 -3.057332,2.03623 -4.824477,1.57071 -1.387801,-0.3656 -2.599054,-1.19639 -3.094807,-2.12272 -0.307803,-0.57512 -0.549183,-0.65896 -1.897353,-0.65896 -1.417055,0 -1.584097,0.0667 -2.021677,0.80749 -0.714524,1.2096 -3.1898,2.33715 -4.626363,2.10743 -1.515884,-0.24241 -2.468836,-0.77107 -3.493488,-1.93809 -0.745528,-0.84911 -1.020619,-0.97683 -2.103931,-0.97683 -0.685443,0 -1.246261,0.1064 -1.246261,0.23645 0,0.13004 -0.426154,0.65312 -0.947006,1.16239 -1.033424,1.01044 -2.297802,1.57351 -3.606566,1.60611 -1.16905,0.0291 -3.451948,-1.17739 -4.111432,-2.17289 -0.494626,-0.74664 -0.694522,-0.83055 -1.980327,-0.83127 -1.30441,-7.1e-4 -1.493075,0.0817 -2.145568,0.93715 -1.944706,2.54965 -5.458687,2.67317 -7.766664,0.27303 -0.77122,-0.80203 -1.398259,-1.21097 -1.856786,-1.21097 h -0.692327 v 2.83661 c 0,2.8314 0.0016,2.83771 0.823404,3.44537 2.621144,1.93789 2.793961,5.35969 0.387558,7.67368 l -1.210962,1.16445 v 2.75543 2.75542 l 0.756468,-0.003 c 0.558907,-0.002 0.917664,-0.25226 1.373691,-0.95631 z m 13.864163,-5.24645 c -0.5991,-0.43235 -1.41511,-1.92444 -1.41511,-2.58753 0,-0.15616 0.506732,-0.28392 1.126071,-0.28392 0.904323,0 1.155144,0.11118 1.273715,0.56459 0.100754,0.38528 0.332829,0.53816 0.730715,0.48139 0.495335,-0.0707 0.583071,-0.26946 0.583071,-1.32106 0,-1.07427 -0.08179,-1.24947 -0.618928,-1.32576 -0.340411,-0.0483 -0.618929,0.0445 -0.618929,0.20631 0,0.16182 -0.495143,0.29421 -1.100318,0.29421 h -1.100318 v -2.88833 -2.88834 h 2.888334 2.888336 v 0.96278 0.96278 h -1.788017 -1.788017 v 0.84148 c 0,0.56159 0.104678,0.77677 0.314722,0.64696 1.141548,-0.70552 3.079365,0.35791 3.412011,1.87243 0.273814,1.24667 -0.115358,3.16928 -0.803442,3.96922 -0.804371,0.93513 -2.995413,1.20616 -3.983896,0.49279 z m 7.116009,-0.32696 c -0.456643,-0.41606 -0.907319,-1.15878 -1.001501,-1.65048 -0.170451,-0.88987 -0.166082,-0.89401 0.944922,-0.89401 0.885113,0 1.153368,0.11721 1.29587,0.5662 0.122077,0.38463 0.370603,0.539 0.775006,0.48139 0.509593,-0.0726 0.595302,-0.26304 0.595302,-1.32267 0,-1.07427 -0.08179,-1.24947 -0.618928,-1.32576 -0.340411,-0.0483 -0.61893,0.0445 -0.61893,0.20631 0,0.16182 -0.495143,0.29421 -1.100317,0.29421 h -1.100318 v -2.88833 -2.88834 h 2.750795 2.750795 v 0.94966 0.94965 l -1.719247,0.0819 c -1.639094,0.0781 -1.723241,0.1165 -1.804904,0.82401 -0.07958,0.68946 -0.03079,0.72771 0.687698,0.53921 2.079786,-0.54568 3.11448,0.52913 3.105414,3.22582 -0.0044,1.30733 -0.139936,1.98489 -0.481389,2.40643 -1.15604,1.42715 -3.162482,1.62725 -4.460268,0.44481 z m 7.728847,0.37259 c -0.774687,-0.42938 -1.382249,-1.42963 -1.395927,-2.29815 -0.0084,-0.53727 0.131186,-0.61893 1.058488,-0.61893 0.83689,0 1.09939,0.11914 1.212104,0.55016 0.212835,0.81388 1.243426,0.71665 1.457814,-0.13754 0.261571,-1.04217 -0.08546,-2.0631 -0.701288,-2.0631 -0.290775,0 -0.605186,0.12379 -0.69869,0.27509 -0.09351,0.15129 -0.657848,0.27507 -1.254093,0.27507 h -1.084082 v -2.88833 -2.88834 h 2.888334 2.888334 v 0.96278 0.96278 h -1.788017 -1.788016 v 0.81843 c 0,0.76343 0.0471,0.80052 0.700856,0.55197 0.968125,-0.36809 2.51825,0.30407 2.876927,1.24746 0.37424,0.98432 0.343851,3.25323 -0.05531,4.12928 -0.616912,1.35397 -2.850898,1.93421 -4.317438,1.12137 z m -22.833783,-13.99799 c 1.330575,-0.89385 1.842442,-2.45116 1.260882,-3.83613 -0.466778,-1.11161 -1.854902,-2.1352 -2.897877,-2.13685 -2.714066,-0.004 -4.313918,3.2036 -2.608493,5.23037 1.262943,1.50092 2.733694,1.75819 4.245488,0.74261 z m 11.97718,0.17817 c 2.310096,-1.0962 2.353028,-4.57357 0.07104,-5.75362 -2.139148,-1.1062 -4.649162,0.38866 -4.649162,2.76884 0,1.3639 0.696291,2.57922 1.737048,3.03188 1.155445,0.50254 1.701913,0.49348 2.841077,-0.0471 z m 11.741713,0.0746 c 1.654012,-0.69109 2.436618,-2.93898 1.580282,-4.53905 -0.440396,-0.82289 -1.899471,-1.68546 -2.853179,-1.68673 -3.338401,-0.004 -4.438367,4.6966 -1.44463,6.1741 1.046944,0.5167 1.580321,0.52683 2.717527,0.0517 z m 13.319975,-0.84919 c 2.602336,-2.81851 -0.899678,-6.88988 -4.085513,-4.74973 -0.589766,0.39618 -1.078917,1.04177 -1.325531,1.74943 -0.358047,1.02742 -0.34492,1.21133 0.156418,2.19167 1.13181,2.21318 3.606215,2.59397 5.254626,0.80863 z"
       id="path685" /></g></svg>
