<?xml version="1.0" encoding="UTF-8" standalone="no"?>
<!-- Created with Inkscape (http://www.inkscape.org/) -->

<svg
   width="72.648537mm"
   height="41.218067mm"
   viewBox="0 0 72.648537 41.218067"
   version="1.1"
   id="svg5"
   xml:space="preserve"
   xmlns="http://www.w3.org/2000/svg"
   xmlns:svg="http://www.w3.org/2000/svg"><defs
     id="defs2" /><g
     id="layer1"
     transform="translate(94.97062,-121.92888)"><path
       style="fill:#000000;stroke-width:0.175658"
       d="m -71.429624,156.01456 c -2.207261,-2.27858 -4.229846,-4.46316 -4.494635,-4.85461 -0.90725,-1.34119 -1.082369,-2.97868 -0.488253,-4.56549 0.462211,-1.23451 1.170388,-2.05868 2.312497,-2.69128 l 0.940748,-0.52107 h 6.557098 c 6.287959,0 6.567344,-0.014 6.80676,-0.34098 0.344516,-0.47052 0.312461,-0.86518 -0.100639,-1.23903 -0.326354,-0.29534 -1.152008,-0.32815 -12.076511,-0.47976 -6.44941,-0.0895 -12.131329,-0.23931 -12.626476,-0.33291 -2.580302,-0.48774 -4.341451,-3.13421 -3.77378,-5.67085 0.478211,-2.13688 2.37217,-3.79341 4.337111,-3.79341 0.427647,0 0.606377,-0.0933 0.691338,-0.36102 0.333964,-1.05223 3.171418,-2.08214 5.079571,-1.84373 0.974429,0.12174 1.954357,-0.14687 2.57075,-0.7047 0.367947,-0.333 5.46811,-0.61777 6.035009,-0.33697 0.461308,0.22849 0.58298,1.16253 0.193536,1.48574 -0.17857,0.1482 -1.130412,0.27414 -2.687758,0.35563 -2.189702,0.11457 -2.499504,0.17281 -3.371466,0.63387 -0.866884,0.45837 -1.105869,0.50407 -2.459217,0.47037 -1.605145,-0.04 -3.140831,0.28417 -3.521939,0.74339 -0.328367,0.39566 0.01481,1.02064 0.752663,1.37078 0.437816,0.20775 1.079377,0.2855 2.301412,0.27887 1.584054,-0.008 1.760047,0.0272 2.702996,0.54954 l 1.008621,0.55872 6.645793,0.28808 c 3.655187,0.15845 6.678707,0.25515 6.718931,0.2149 0.04022,-0.0403 0.07314,-1.32475 0.07314,-2.85445 v -2.78126 h -0.786414 c -0.639224,0 -0.838823,-0.08 -1.066435,-0.42737 -0.229834,-0.35076 -0.241587,-0.50031 -0.06558,-0.83437 0.321243,-0.60973 0.482766,-0.66488 1.955502,-0.66781 1.102168,-0.002 1.413053,0.0591 1.668754,0.32909 0.242593,0.25613 0.686242,0.36062 1.94571,0.45832 1.629382,0.12637 2.145189,0.34066 2.145189,0.8912 0,0.20067 0.378261,0.25497 1.888327,0.27104 1.03858,0.011 3.957096,0.0704 6.485594,0.13174 4.552384,0.11055 4.601689,0.11581 5.050176,0.5375 0.498747,0.46896 0.557991,1.06973 0.336643,3.41383 -0.104045,1.10189 -0.160212,1.23397 -0.657469,1.54613 -0.522126,0.32776 -0.796421,0.33652 -6.911316,0.2206 l -6.367614,-0.12071 v 0.37103 c 0,0.69416 -0.697054,0.94607 -2.244399,0.81109 -1.343956,-0.11723 -1.402882,-0.10621 -1.856454,0.34737 -0.451776,0.45177 -0.519969,0.46488 -1.916536,0.36826 -0.796448,-0.0551 -4.254231,-0.22189 -7.683959,-0.37068 -5.289029,-0.22944 -6.298333,-0.31562 -6.647249,-0.56761 -1.082954,-0.78215 -1.446071,-0.89039 -2.648733,-0.78957 -1.701102,0.14261 -3.027172,-0.27886 -4.028839,-1.28052 -0.594514,-0.59452 -0.905295,-0.77407 -1.339788,-0.77407 -1.377291,0 -2.696856,1.74529 -2.468897,3.26542 0.151025,1.00709 1.034424,2.0406 1.976559,2.31243 0.419396,0.121 4.202098,0.23594 10.238514,0.31109 5.265358,0.0655 10.76172,0.17264 12.214138,0.23794 2.395445,0.10771 2.695305,0.15757 3.22791,0.53681 0.819937,0.58386 1.313117,1.75861 1.161824,2.7675 -0.144087,0.96085 -1.028676,2.01341 -1.9227,2.28779 -0.417617,0.12817 -2.489723,0.15866 -6.385863,0.094 -3.172205,-0.0528 -6.061397,-0.0407 -6.420429,0.0267 -0.784821,0.14723 -1.837814,1.02747 -2.164534,1.80942 -0.328117,0.7853 -0.296824,1.96755 0.07008,2.64766 0.169071,0.31338 2.085943,2.43266 4.259714,4.70951 2.173771,2.27684 4.022465,4.28905 4.108208,4.4716 0.219486,0.46727 -0.302838,1.22224 -0.845602,1.22224 -0.315131,0 -1.406638,-1.02045 -4.431323,-4.14291 z m 13.953268,-23.56718 0.04932,-2.15181 h -0.961198 -0.9612 l -0.05424,2.1008 -0.05425,2.10081 0.439145,0.0724 c 0.241531,0.0399 0.676285,0.0628 0.966122,0.051 l 0.526974,-0.0214 z m 14.091172,0.24767 v -0.93802 l -4.244244,-0.11593 c -2.334333,-0.0638 -5.061428,-0.11593 -6.060211,-0.11593 h -1.815968 v 0.96088 0.96087 l 2.239644,0.0549 c 1.231804,0.0302 3.958899,0.0721 6.06021,0.093 l 3.820569,0.0382 z m 11.681277,1.22842 c -0.386449,-0.12828 -1.137388,-0.45668 -1.668754,-0.72978 -1.419662,-0.72964 -2.738416,-0.71582 -4.212086,0.0441 -1.596716,0.82343 -2.287271,0.72272 -2.287271,-0.3336 0,-0.84761 1.633005,-1.81594 3.50984,-2.08123 1.321738,-0.18683 2.637101,0.0517 4.023523,0.72968 0.8618,0.42142 1.470791,0.58719 2.358866,0.64207 1.080015,0.0668 1.3068,0.0183 2.317931,-0.4949 1.288535,-0.65402 1.942423,-0.62545 2.122681,0.0927 0.161621,0.64395 -0.268964,1.16429 -1.444334,1.74544 -0.84651,0.41853 -1.299429,0.51977 -2.524667,0.56433 -0.916207,0.0334 -1.764571,-0.0358 -2.195729,-0.17891 z m -35.315755,-4.58224 c -0.322691,-0.49249 -0.142176,-1.0136 0.463387,-1.33768 0.797238,-0.42667 1.654905,0.90236 1.003012,1.55425 -0.367591,0.36759 -1.160355,0.25051 -1.466399,-0.21657 z"
       id="path666" /></g></svg>
