<?xml version="1.0" encoding="UTF-8" standalone="no"?>
<!-- Created with Inkscape (http://www.inkscape.org/) -->

<svg
   width="72.648537mm"
   height="41.218067mm"
   viewBox="0 0 72.648537 41.218067"
   version="1.1"
   id="svg5"
   xml:space="preserve"
   xmlns="http://www.w3.org/2000/svg"
   xmlns:svg="http://www.w3.org/2000/svg"><defs
     id="defs2" /><g
     id="layer1"
     transform="translate(94.97062,-121.92888)"><g
       id="g1457"
       transform="translate(56.03777,28.804462)"><path
         style="fill:#000000;stroke-width:0.179363"
         d="m -129.9942,130.83564 c -0.29833,-0.12918 -0.64135,-0.452 -0.76228,-0.71739 -0.28782,-0.6317 -0.31514,-19.5762 -0.0297,-20.60403 0.25616,-0.92242 1.13435,-1.87567 1.93212,-2.09724 0.37527,-0.10421 2.85365,-0.18328 5.76969,-0.18401 l 5.11184,-10e-4 2.15235,-1.43434 c 2.46241,-1.64096 3.17008,-1.81814 3.84329,-0.96231 0.41333,0.52548 0.47503,1.26228 0.14183,1.69348 -0.1202,0.15553 -1.34849,1.04212 -2.72958,1.9702 l -2.51107,1.68743 -2.12385,0.0925 c -1.95893,0.0853 -2.15043,0.12535 -2.46624,0.51591 -0.32716,0.40458 -0.34239,0.83964 -0.34239,9.78018 0,10.21214 0.034,9.87355 -1.03606,10.31677 -0.63153,0.2616 -1.33968,0.0324 -1.72426,-0.5583 -0.19484,-0.29918 -0.34464,-1.58701 -0.54865,-4.71628 -0.38337,-5.88082 -0.41844,-6.15441 -0.81636,-6.36737 -0.41193,-0.22046 -0.8513,-0.0672 -0.98123,0.34208 -0.054,0.16993 -0.25526,2.59867 -0.44738,5.39722 -0.33229,4.84019 -0.36939,5.10764 -0.76074,5.48536 -0.55884,0.53934 -1.02672,0.64052 -1.67131,0.36143 z m 11.03517,-13.20035 v -1.43491 h 9.5959 9.595912 v -8.161 -8.160993 h -9.595912 -9.5959 V 98.353804 96.82922 h 10.59619 10.596204 l 0.524293,0.524292 0.524292,0.52428 v 9.161298 c 0,8.14356 0.03074,9.16129 0.27719,9.16129 0.152465,0 0.475312,0.19813 0.717453,0.44027 0.582445,0.58244 0.582445,1.40683 0,1.98928 l -0.44025,0.44027 h -11.397682 -11.39769 z m -9.40982,-13.82104 c -2.31381,-1.15423 -3.18428,-3.841925 -1.96851,-6.078014 0.89764,-1.650946 2.46604,-2.476769 4.33941,-2.284845 3.80979,0.39032 5.32181,5.123279 2.44394,7.650099 -0.36858,0.3236 -0.93573,0.69936 -1.26035,0.83499 -0.8762,0.3661 -2.70138,0.30334 -3.55449,-0.1222 z"
         id="path1551" /></g></g></svg>
