<?xml version="1.0" encoding="UTF-8" standalone="no"?>
<!-- Created with Inkscape (http://www.inkscape.org/) -->

<svg
   width="72.648537mm"
   height="41.218067mm"
   viewBox="0 0 72.648537 41.218067"
   version="1.1"
   id="svg5"
   xml:space="preserve"
   xmlns="http://www.w3.org/2000/svg"
   xmlns:svg="http://www.w3.org/2000/svg"><defs
     id="defs2" /><g
     id="layer1"
     transform="translate(94.97062,-121.92888)"><g
       id="g1457"
       transform="translate(56.03777,28.804462)"><path
         style="fill:#000000;stroke-width:0.244628"
         d="m -130.14594,128.08299 v -2.93555 h 2.93555 2.93553 v 2.93555 2.93553 h -2.93553 -2.93555 z m 7.33885,0 v -2.93555 h 2.93555 2.93554 v 2.93555 2.93553 h -2.93554 -2.93555 z m 7.33885,0 v -2.93555 h 2.93555 2.93555 v 2.93555 2.93553 h -2.93555 -2.93555 z m 7.58349,0 v -2.93555 h 2.93554 2.93555 v 2.93555 2.93553 h -2.93555 -2.93554 z m 7.82812,-0.12234 v -2.81322 h 2.81322 2.813236 v 2.81322 2.81324 h -2.813236 -2.81322 z m 4.647936,0 v -1.8347 h -1.834716 -1.834716 v 1.8347 1.83472 h 1.834716 1.834716 z m -34.737246,-7.21653 v -2.93554 h 2.93555 2.93553 v 2.93554 2.93554 h -2.93553 -2.93555 z m 7.33885,0 v -2.93554 h 2.93555 2.93554 v 2.93554 2.93554 h -2.93554 -2.93555 z m 7.33885,0 v -2.93554 h 2.93555 2.93555 v 2.93554 2.93554 h -2.93555 -2.93555 z m 15.16697,0 v -2.93554 h 2.93555 2.935546 v 2.93554 2.93554 h -2.935546 -2.93555 z m -7.58348,-0.12233 v -2.81323 h 2.81323 2.81323 v 2.81323 2.81323 h -2.81323 -2.81323 z m 4.64794,0 v -1.83472 h -1.83471 -1.83471 v 1.83472 1.83471 h 1.83471 1.83471 z m -26.90913,-7.21654 v -2.93554 h 2.93555 2.93553 v 2.93554 2.93554 h -2.93553 -2.93555 z m 7.33885,0 v -2.93554 h 2.93555 2.93554 v 2.93554 2.93554 h -2.93554 -2.93555 z m 14.92234,0 v -2.93554 h 2.93554 2.93555 v 2.93554 2.93554 h -2.93555 -2.93554 z m 7.58348,0 v -2.93554 h 2.93555 2.935546 v 2.93554 2.93554 h -2.935546 -2.93555 z m -15.16697,-0.12234 v -2.81322 h 2.81324 2.81322 v 2.81322 2.81322 h -2.81322 -2.81324 z m 4.64796,0 v -1.83472 h -1.83472 -1.83472 v 1.83472 1.83472 h 1.83472 1.83472 z m -19.32566,-7.21654 v -2.93555 h 2.93555 2.93553 v 2.93555 2.93554 h -2.93553 -2.93555 z m 14.6777,0 v -2.93555 h 2.93555 2.93555 v 2.93555 2.93554 h -2.93555 -2.93555 z m 7.58349,0 v -2.93555 h 2.93554 2.93555 v 2.93555 2.93554 h -2.93555 -2.93554 z m 7.58348,0 v -2.93555 h 2.93555 2.935546 v 2.93555 2.93554 h -2.935546 -2.93555 z m -22.50582,-0.12234 v -2.81323 h 2.81324 2.81322 v 2.81323 2.81323 h -2.81322 -2.81324 z m 4.64794,0 v -1.83471 h -1.8347 -1.83472 v 1.83471 1.83472 h 1.83472 1.8347 z m -4.64794,-7.216539 v -2.935546 h 2.93555 2.93554 v 2.935546 2.935549 h -2.93554 -2.93555 z m 7.33885,0 v -2.935546 h 2.93555 2.93555 v 2.935546 2.935549 h -2.93555 -2.93555 z m 7.58349,0 v -2.935546 h 2.93554 2.93555 v 2.935546 2.935549 h -2.93555 -2.93554 z m 7.58348,0 v -2.935546 h 2.93555 2.935546 v 2.935546 2.935549 h -2.935546 -2.93555 z m -29.60004,-0.122335 V 95.79192 h 2.81323 2.81322 v 2.813236 2.813224 h -2.81322 -2.81323 z m 4.64794,0 V 96.77044 h -1.83471 -1.83472 v 1.834716 1.834704 h 1.83472 1.83471 z"
         id="path1757" /></g></g></svg>
