<?xml version="1.0" encoding="UTF-8" standalone="no"?>
<!-- Created with Inkscape (http://www.inkscape.org/) -->

<svg
   width="72.648537mm"
   height="41.218067mm"
   viewBox="0 0 72.648537 41.218067"
   version="1.1"
   id="svg5"
   xml:space="preserve"
   xmlns="http://www.w3.org/2000/svg"
   xmlns:svg="http://www.w3.org/2000/svg"><defs
     id="defs2" /><g
     id="layer1"
     transform="translate(94.97062,-121.92888)"><path
       style="fill:#000000;stroke-width:0.164911"
       d="m -69.447584,160.55294 c -3.76053,-0.74355 -6.353729,-4.78476 -5.485886,-8.54914 0.783824,-3.39993 4.316754,-5.95472 7.63247,-5.51931 l 0.798529,0.10486 1.782366,-1.77684 c 1.579109,-1.57422 1.831259,-1.76458 2.211102,-1.66924 0.331556,0.0832 0.428736,0.2103 0.428736,0.56066 0,0.35808 -0.395187,0.84712 -1.885167,2.33288 l -1.885168,1.87981 -1.866564,0.0161 c -1.626829,0.014 -1.972468,0.0679 -2.691121,0.41989 -1.217532,0.59637 -2.42979,1.88117 -2.887519,3.0603 -0.825093,2.1255 -0.400928,4.3885 1.134842,6.05462 2.777029,3.01271 7.585864,2.25475 9.446727,-1.48899 0.33934,-0.68269 0.386603,-1.01422 0.386603,-2.71178 v -1.934 l 1.398106,-1.40545 c 1.382167,-1.38943 1.849806,-1.63717 2.279417,-1.20756 0.37528,0.37528 0.193557,0.70661 -1.110614,2.02496 l -1.308507,1.32275 0.145138,0.74209 c 0.08718,0.44575 0.08116,1.17017 -0.01507,1.81403 -0.601796,4.02665 -4.476239,6.72672 -8.508423,5.92947 z m 23.509671,-0.0451 c -0.964251,-0.36091 -1.324458,-0.68589 -6.187761,-5.58255 -4.435269,-4.4657 -4.647616,-4.70804 -4.81129,-5.49098 -0.09418,-0.45049 -0.142765,-0.86514 -0.107972,-0.92144 0.03479,-0.0563 -0.225018,-0.38385 -0.577358,-0.72789 -0.521981,-0.50971 -0.726851,-0.60907 -1.106277,-0.53654 -0.642437,0.12281 -1.361627,-0.21413 -1.993753,-0.93409 -0.708705,-0.80716 -0.745349,-1.80301 -0.09479,-2.57615 l 0.438595,-0.52123 -4.758945,-4.76107 -4.758946,-4.76107 -1.053654,0.0337 -1.053654,0.0337 -1.545379,-2.63859 c -0.849958,-1.45121 -1.548479,-2.81792 -1.552269,-3.03711 -0.0048,-0.27471 0.317616,-0.72304 1.037549,-1.44297 0.57444,-0.57445 1.118751,-1.04444 1.20958,-1.04444 0.285,0 5.400784,2.97089 5.681853,3.29961 0.221333,0.25888 0.240502,0.46139 0.111076,1.17347 l -0.15642,0.86061 4.788781,4.78878 4.78878,4.78879 0.377305,-0.35347 c 0.572311,-0.53614 1.257488,-0.74686 1.806336,-0.55553 1.259641,0.43911 2.098688,1.6089 1.877226,2.61721 -0.142661,0.64952 0.709986,1.44405 1.723537,1.60606 0.408155,0.0652 0.927626,0.21869 1.154378,0.341 0.226754,0.12232 2.503435,2.28419 5.059292,4.80416 3.14409,3.09995 4.762036,4.81525 5.002655,5.30368 1.058436,2.14853 0.185691,4.93496 -1.875329,5.98739 -0.852214,0.43518 -2.586053,0.56024 -3.423143,0.24692 z m 2.581901,-1.41184 c 1.392776,-0.63266 2.0693,-2.0307 1.71497,-3.54403 -0.188672,-0.80581 -0.414253,-1.06404 -4.752892,-5.44088 -2.519741,-2.54191 -4.79192,-4.69711 -5.085486,-4.82366 -0.291866,-0.12581 -0.776375,-0.22874 -1.076687,-0.22874 -0.452505,0 -0.725991,-0.18158 -1.596811,-1.06021 -1.039006,-1.04833 -1.048389,-1.06601 -0.836663,-1.57716 0.190044,-0.45881 0.177069,-0.56678 -0.115372,-0.95996 -0.631133,-0.84854 -0.920518,-0.72018 -2.958978,1.3125 -1.02987,1.02695 -1.872489,1.98437 -1.872489,2.12761 0,0.14323 0.219073,0.47032 0.48683,0.72684 0.445577,0.42689 0.528155,0.4493 0.974505,0.26441 0.62057,-0.25705 0.858508,-0.131 1.968916,1.04311 0.708183,0.74879 0.847745,0.99004 0.764538,1.32156 -0.05599,0.22305 -0.0499,0.57788 0.01353,0.7885 0.178965,0.59437 9.274795,9.67948 10.056518,10.04467 0.831447,0.38843 1.469128,0.38992 2.31558,0.006 z m -6.355908,-7.02858 -4.200854,-4.20327 0.494734,-0.49474 0.494734,-0.49474 4.200854,4.20329 4.200855,4.20328 -0.494734,0.49473 -0.494734,0.49473 z m -9.200431,-10.2558 c 0.295508,-0.26743 0.106942,-0.48007 -4.670334,-5.2668 l -4.978272,-4.98813 0.100411,-0.96068 0.100412,-0.96067 -2.150231,-1.21858 -2.15023,-1.21857 -0.497702,0.4977 -0.497701,0.4977 1.224582,2.1247 c 0.700994,1.21626 1.324787,2.11851 1.458945,2.11021 0.128898,-0.008 0.530448,-0.0619 0.892332,-0.11974 l 0.65797,-0.10523 4.949013,4.94263 c 2.721959,2.71845 5.017382,4.94297 5.100941,4.94338 0.08356,5.1e-4 0.290499,-0.12464 0.459864,-0.27792 z m -11.585851,14.36225 c -0.927135,-0.90726 -1.475671,-1.57206 -1.473864,-1.78628 0.0038,-0.45986 0.924188,-3.56055 1.112768,-3.74913 0.155198,-0.15519 3.410116,-1.11388 3.810615,-1.12236 0.124458,-0.003 0.848007,0.60206 1.607884,1.34375 0.958687,0.93576 1.381597,1.46733 1.381597,1.7366 0,0.21342 -0.193228,1.15918 -0.429395,2.10167 -0.486229,1.94045 -0.323473,1.79137 -2.621464,2.40118 -0.72561,0.19256 -1.452515,0.38825 -1.615344,0.43487 -0.21033,0.0602 -0.723656,-0.33367 -1.772797,-1.3603 z m 3.331622,-0.47334 1.09786,-0.29308 0.32272,-1.28505 0.322719,-1.28505 -0.941806,-0.93198 -0.941807,-0.93198 -1.052108,0.27263 c -0.578659,0.14995 -1.167886,0.3346 -1.309392,0.41032 -0.141506,0.0757 -0.395014,0.66873 -0.563351,1.31776 l -0.306069,1.18006 0.969342,0.97956 c 0.533138,0.53876 1.044647,0.95263 1.136686,0.91973 0.09204,-0.0329 0.661383,-0.19173 1.265206,-0.35292 z m 18.815289,-13.36122 c -0.476121,-0.1332 -1.152267,-0.3884 -1.502547,-0.5671 l -0.636875,-0.32491 -0.466013,0.48641 c -0.256307,0.26753 -0.635044,0.48642 -0.841636,0.48642 -0.472925,0 -0.791796,-0.54166 -0.566592,-0.96246 0.196747,-0.36763 1.441976,-1.51121 1.645527,-1.51121 0.08026,0 0.655171,0.23913 1.277588,0.5314 2.307213,1.0834 4.196431,0.77055 5.529276,-0.91563 1.213954,-1.53576 2.281297,-4.08712 2.281297,-5.45318 0,-0.46985 -0.06991,-0.42227 -1.626012,1.10657 -1.534045,1.50717 -1.665093,1.59753 -2.316947,1.59753 -0.380016,0 -0.891328,-0.10512 -1.136253,-0.23358 -0.730039,-0.3829 -4.446812,-4.25426 -4.575091,-4.76536 -0.265372,-1.05733 -0.0015,-1.58244 1.606625,-3.19728 1.429184,-1.43515 1.497162,-1.53354 1.059495,-1.53354 -0.717869,0 -2.376884,0.47177 -3.306999,0.94041 -3.121292,1.57267 -4.225426,3.25582 -3.638537,5.54668 0.142063,0.55452 0.441074,1.32011 0.664468,1.70131 0.223394,0.38119 0.406169,0.78053 0.406169,0.88742 0,0.1069 -0.532011,0.74302 -1.182249,1.41361 -1.239581,1.27839 -1.783601,1.51049 -2.110174,0.90028 -0.246345,-0.4603 -0.256507,-0.44011 0.756072,-1.5017 l 0.926786,-0.97164 -0.460348,-1.11873 c -0.656489,-1.5954 -0.663989,-3.22208 -0.02092,-4.53647 1.396967,-2.85529 6.893735,-5.40198 9.873407,-4.57441 1.174108,0.32609 1.044997,0.6305 -1.252131,2.9521 -1.216701,1.22966 -2.07784,2.23182 -2.07784,2.4181 0,0.41386 3.938996,4.3535 4.352782,4.3535 0.171859,0 1.235155,-0.91002 2.408581,-2.06139 1.155489,-1.13376 2.173264,-2.06138 2.261721,-2.06138 0.760091,0 1.089006,2.09309 0.634902,4.04032 -0.148064,0.6349 -0.599792,1.83567 -1.003838,2.66837 -1.667318,3.43616 -4.253133,5.01784 -6.963697,4.25954 z"
       id="path457" /></g></svg>
