<?xml version="1.0" encoding="UTF-8" standalone="no"?>
<!-- Created with Inkscape (http://www.inkscape.org/) -->

<svg
   width="72.648537mm"
   height="41.218067mm"
   viewBox="0 0 72.648537 41.218067"
   version="1.1"
   id="svg5"
   xml:space="preserve"
   xmlns="http://www.w3.org/2000/svg"
   xmlns:svg="http://www.w3.org/2000/svg"><defs
     id="defs2" /><g
     id="layer1"
     transform="translate(94.97062,-121.92888)"><g
       id="g1457"
       transform="translate(56.03777,28.804462)"><path
         style="fill:#000000;stroke-width:0.296033"
         d="m -140.07253,129.46852 c -0.55468,-0.55467 -0.51073,-29.34552 0.0455,-29.807138 0.29343,-0.243521 7.36608,-0.313438 26.12491,-0.258278 l 25.722557,0.07563 v 15.097696 15.09767 l -25.768047,0.0756 c -19.79644,0.0581 -25.85076,-0.007 -26.12491,-0.28124 z m 18.29322,-14.90994 v -13.19134 l -1.11012,0.0919 -1.11013,0.0919 -0.0773,12.72943 c -0.0425,7.00117 -0.0134,12.89593 0.0647,13.09945 0.0781,0.20352 0.61241,0.37004 1.18738,0.37004 h 1.0454 z m 17.46594,0.0179 v -13.17347 h -1.03611 -1.03611 v 13.17347 13.17347 h 1.03611 1.03611 z m 10.359414,7.25629 c 1.913093,-3.82056 2.370008,-4.99054 2.370008,-6.06868 v -1.33562 h -4.73653 -4.736522 v 1.33214 1.33215 h 3.440619 c 2.707228,0 3.379856,0.0789 3.15549,0.37005 -0.156831,0.20352 -1.309877,2.33495 -2.562335,4.73652 l -2.277185,4.36648 h 1.48823 1.488224 z m -35.513324,-0.66955 c 2.36983,-1.19721 3.4005,-3.5752 3.18414,-7.3466 -0.2014,-3.51064 -1.63941,-5.60914 -4.25205,-6.20504 -2.44386,-0.55738 -5.01815,0.96543 -5.87296,3.47413 -0.53631,1.57401 -0.61443,5.02679 -0.15146,6.69408 0.17274,0.62209 0.78721,1.65478 1.36549,2.29486 1.63438,1.80906 3.57171,2.17731 5.72684,1.08857 z m -3.07096,-2.03747 c -0.30019,-0.17448 -0.73314,-0.76563 -0.96211,-1.31363 -0.54737,-1.31005 -0.53938,-5.18034 0.0134,-6.50339 0.81045,-1.93967 2.9231,-1.92697 3.84848,0.0232 0.58705,1.23711 0.61059,5.11944 0.0394,6.48666 -0.61333,1.46792 -1.77434,1.98431 -2.93911,1.30724 z m 20.79542,2.08712 c 1.40838,-0.8586 2.02241,-1.67051 2.54088,-3.35975 0.90417,-2.94587 0.34425,-6.89297 -1.21486,-8.56406 -2.09697,-2.24758 -5.66721,-2.20995 -7.59412,0.08 -1.01254,1.20334 -1.49345,2.92784 -1.49345,5.35539 0,4.5785 1.90047,7.06439 5.42192,7.0921 0.84249,0.007 1.70246,-0.21528 2.33963,-0.60372 z m -3.77585,-2.29997 c -1.26266,-1.26265 -1.49317,-5.4019 -0.42715,-7.67 0.73638,-1.56673 2.39671,-1.69682 3.46018,-0.27111 0.53516,0.71745 0.62344,1.2488 0.62344,3.75271 0,2.49989 -0.0888,3.03641 -0.62134,3.75271 -0.78994,1.0626 -2.20508,1.26574 -3.03513,0.43569 z m 22.279825,-8.86789 c 2.158787,-1.26079 2.952984,-4.37206 1.658142,-6.49576 l -0.586607,-0.96211 h -3.097989 c -2.638162,0 -3.142782,0.0769 -3.399722,0.51806 -0.28738,0.4934 -0.30218,0.4934 -0.31075,0 -0.008,-0.41756 -0.27511,-0.51806 -1.380919,-0.51806 h -1.37193 l 0.14344,1.99823 c 0.14984,2.08749 0.8914,3.94878 1.957249,4.91269 1.5536,1.40501 4.489545,1.65634 6.389086,0.54695 z m -3.876374,-1.8353 c -2.216732,-0.89315 -1.378572,-4.43843 1.049305,-4.43843 2.429257,0 3.326553,3.20603 1.204436,4.30342 -0.941872,0.48706 -1.323259,0.5099 -2.253741,0.13501 z"
         id="path1511" /></g></g></svg>
