<?xml version="1.0" encoding="UTF-8" standalone="no"?>
<!-- Created with Inkscape (http://www.inkscape.org/) -->

<svg
   width="72.648537mm"
   height="41.218067mm"
   viewBox="0 0 72.648537 41.218067"
   version="1.1"
   id="svg5"
   xml:space="preserve"
   xmlns="http://www.w3.org/2000/svg"
   xmlns:svg="http://www.w3.org/2000/svg"><defs
     id="defs2" /><g
     id="layer1"
     transform="translate(94.97062,-121.92888)"><g
       id="g1457"
       transform="translate(56.03777,28.804462)"><path
         style="fill:#000000;stroke-width:0.204388"
         d="m -113.84141,131.00793 c -0.50586,-0.18095 -1.51758,-0.72671 -2.24827,-1.21278 -1.69893,-1.13016 -8.09318,-7.55333 -8.2846,-8.32205 -0.24002,-0.96391 0.0668,-1.91198 0.83789,-2.589 1.32166,-1.16044 2.83719,-0.77306 4.68747,1.19816 l 0.61317,0.65324 0.10219,-7.25493 c 0.0975,-6.92208 0.12156,-7.28138 0.52416,-7.83159 0.23208,-0.31717 0.75555,-0.74262 1.16324,-0.94545 0.96846,-0.48181 2.14348,-0.1999 2.89641,0.69491 0.52116,0.61937 0.52589,0.6572 0.52589,4.20795 0,3.33523 0.0247,3.57224 0.35768,3.42777 1.25612,-0.54507 2.63907,-0.23348 3.3414,0.75285 0.39015,0.54792 0.4478,0.56671 0.85773,0.27959 0.92034,-0.64463 2.84858,-0.13859 3.40034,0.89239 0.20334,0.37995 0.25493,0.38533 0.84946,0.0888 0.93241,-0.46515 2.14539,-0.2418 2.92661,0.53888 l 0.63226,0.63182 0.063,4.44194 c 0.08,5.63728 -0.11647,6.49691 -1.92762,8.43317 -0.54966,0.58764 -1.39802,1.19109 -2.1753,1.54734 -1.22106,0.55963 -1.41919,0.58634 -4.74881,0.64003 -2.78326,0.0449 -3.6576,-0.009 -4.39435,-0.27299 z m -12.49612,-21.93218 c -0.43501,-0.35242 -0.48137,-0.54863 -0.47094,-1.99278 0.0211,-2.91712 1.01464,-5.54602 2.88149,-7.624384 4.36331,-4.857691 11.86528,-5.035757 16.44659,-0.390378 2.21776,2.248782 3.23839,4.761082 3.24279,7.982282 0.002,1.9194 -0.22259,2.41616 -1.09543,2.41616 -0.78947,0 -0.94602,-0.3799 -0.94602,-2.29559 0,-4.9325 -3.11521,-8.562456 -8.02079,-9.346131 -3.64514,-0.582311 -7.75384,1.54105 -9.44689,4.882111 -0.71652,1.414 -1.20037,3.7245 -1.03973,4.96501 0.1037,0.80078 0.0545,1.03509 -0.29007,1.3796 -0.51289,0.5129 -0.6543,0.5156 -1.261,0.0241 z m 3.90913,-1.34965 c -0.38348,-0.46206 -0.14494,-2.68727 0.40328,-3.76187 0.67633,-1.32572 2.15853,-2.79924 3.45733,-3.43707 1.01097,-0.49647 1.38372,-0.56444 3.09128,-0.56369 1.71076,7.57e-4 2.08029,0.06883 3.10718,0.57231 1.34926,0.66154 2.89441,2.26467 3.46766,3.59777 0.57748,1.34294 0.71867,3.12009 0.28254,3.55622 -0.79762,0.79762 -1.61999,0.19134 -1.81853,-1.34069 -0.53032,-4.09217 -5.32778,-5.88994 -8.43021,-3.15907 -1.10667,0.97414 -1.48254,1.65977 -1.72435,3.1455 -0.10116,0.6216 -0.29042,1.25848 -0.42057,1.4153 -0.31296,0.37709 -1.09345,0.36347 -1.41561,-0.0247 z"
         id="path1857" /></g></g></svg>
