<?xml version="1.0" encoding="UTF-8" standalone="no"?>
<!-- Created with Inkscape (http://www.inkscape.org/) -->

<svg
   width="72.648537mm"
   height="41.218067mm"
   viewBox="0 0 72.648537 41.218067"
   version="1.1"
   id="svg5"
   xml:space="preserve"
   xmlns="http://www.w3.org/2000/svg"
   xmlns:svg="http://www.w3.org/2000/svg"><defs
     id="defs2" /><g
     id="layer1"
     transform="translate(94.97062,-121.92888)"><path
       style="fill:#000000;stroke-width:0.308623"
       d="m -53.239275,157.95032 v -1.97759 l 1.003026,-0.18864 c 1.781762,-0.3351 4.817511,-1.97517 6.405598,-3.46064 7.664681,-7.16941 4.59387,-19.89693 -5.517549,-22.86847 l -1.890221,-0.5555 -3.08e-4,-1.94287 -3.09e-4,-1.94289 1.157339,0.20897 c 6.310675,1.13953 11.679273,5.90936 13.690644,12.16394 0.846368,2.63187 0.913217,7.10311 0.145345,9.72164 -1.324862,4.51794 -4.626945,8.59439 -8.666783,10.69924 -1.960256,1.02135 -2.87122,1.34216 -5.478067,1.92925 l -0.848715,0.19115 z m -9.892674,-4.05457 -5.726257,-5.70729 h -3.925037 -3.925038 l 0.08396,-5.7867 0.08396,-5.78669 3.857794,-0.0849 3.857793,-0.0849 5.786692,-5.7759 5.78669,-5.77592 v 17.35703 c 0,9.54636 -0.03473,17.35602 -0.07716,17.35478 -0.04244,-10e-4 -2.653971,-2.57052 -5.803412,-5.70953 z m 9.89505,-3.93271 c 0.0025,-1.91891 0.0086,-1.93246 1.209175,-2.61794 1.721706,-0.98305 2.959483,-3.54722 2.68367,-5.55949 -0.249661,-1.82149 -1.321233,-3.46178 -2.771872,-4.243 -1.10836,-0.5969 -1.123349,-0.6308 -1.123349,-2.54084 0,-2.25479 0.16412,-2.33617 2.402092,-1.19097 1.76345,0.90237 3.467286,2.6305 4.438412,4.5017 0.599014,1.1542 0.720772,1.85802 0.720772,4.16642 0,2.34241 -0.118983,3.01053 -0.759399,4.26417 -0.906051,1.77365 -2.951437,3.73746 -4.737089,4.54816 -1.980873,0.89932 -2.065091,0.84509 -2.062412,-1.32821 z"
       id="path552" /></g></svg>
