<?xml version="1.0" encoding="UTF-8" standalone="no"?>
<!-- Created with Inkscape (http://www.inkscape.org/) -->

<svg
   width="72.648537mm"
   height="41.218067mm"
   viewBox="0 0 72.648537 41.218067"
   version="1.1"
   id="svg5"
   xml:space="preserve"
   xmlns="http://www.w3.org/2000/svg"
   xmlns:svg="http://www.w3.org/2000/svg"><defs
     id="defs2" /><g
     id="layer1"
     transform="translate(94.97062,-121.92888)"><g
       id="g1457"
       transform="translate(56.03777,28.804462)"><path
         style="fill:#000000;stroke-width:0.1877"
         d="m -120.49541,132.06538 c -1.44373,-0.30888 -2.22022,-0.90234 -5.77884,-4.4167 -4.25854,-4.20557 -4.73356,-4.9217 -4.73052,-7.13154 0.003,-2.23714 0.37703,-2.80581 4.74967,-7.22291 2.08386,-2.10506 3.64018,-3.77556 3.45848,-3.71224 -0.85225,0.297 -2.8936,0.53461 -3.67832,0.42815 -1.47255,-0.1998 -3.12087,-0.84408 -4.17877,-1.63338 -1.1682,-0.8716 -1.56321,-1.49948 -1.38645,-2.20379 0.0683,-0.27184 1.05963,-1.44251 2.20312,-2.6015 l 2.07907,-2.10726 -0.68582,-0.75912 c -0.80959,-0.896119 -0.87467,-1.524733 -0.2251,-2.174311 0.67081,-0.670803 1.44853,-0.608793 2.31062,0.184229 l 0.70111,0.644945 2.17595,-2.146547 c 1.94689,-1.920583 2.24569,-2.146546 2.83852,-2.146546 0.54257,0 0.80046,0.149595 1.42394,0.825995 1.83542,1.991199 2.55494,5.057055 1.8279,7.788735 l -0.26957,1.01289 3.88502,-3.84186 c 4.48492,-4.43508 4.93077,-4.729169 7.16978,-4.729169 2.24415,0 2.7053,0.301829 6.96366,4.557749 4.3086,4.30614 4.58188,4.72745 4.57625,7.0554 -0.005,2.19979 -0.34931,2.72899 -4.3858,6.74716 l -3.38392,3.36855 1.6702,1.72648 c 1.4223,1.47021 1.71591,1.88367 1.97809,2.78553 0.82775,2.84739 -1.26421,5.73772 -4.15285,5.73772 -1.63984,0 -2.29514,-0.3368 -4.16375,-2.14004 l -1.74277,-1.6818 -3.5146,3.49695 c -2.47788,2.46544 -3.76322,3.60682 -4.35747,3.86941 -0.98741,0.43632 -2.44815,0.61749 -3.37683,0.41882 z m 2.0238,-3.12785 c 0.73226,-0.30506 2.1056,-1.51985 2.1056,-1.86253 0,-0.11003 -0.84451,-1.04139 -1.87669,-2.0697 l -1.87668,-1.86964 -1.59531,1.58702 -1.59531,1.58703 1.17267,1.19791 c 1.66176,1.69754 2.3649,1.97181 3.66572,1.42991 z m 15.97402,-4.16716 c 0.2176,-0.18067 0.45003,-0.60973 0.51651,-0.95348 0.11922,-0.61649 0.0189,-0.72713 -7.36406,-8.11858 l -7.48492,-7.49358 -1.03348,1.03349 -1.03349,1.03348 7.41179,7.41357 c 6.61437,6.61596 7.47528,7.41357 8.00191,7.41357 0.32456,0 0.76815,-0.14781 0.98574,-0.32847 z m -10.25991,-1.12117 c 0.69943,-0.69406 1.27168,-1.35025 1.27168,-1.45819 0,-0.10795 -0.84438,-1.03747 -1.8764,-2.06562 l -1.87641,-1.86937 -1.40909,1.39968 -1.40908,1.39969 1.92131,1.92787 c 1.05673,1.06033 1.96294,1.92788 2.01381,1.92788 0.0509,0 0.66476,-0.56787 1.36418,-1.26194 z m -11.36313,-4.5099 -1.83953,-1.83 -1.00866,1.07409 c -1.58614,1.68905 -1.51478,2.74671 0.30949,4.58735 l 1.1831,1.1937 1.59756,-1.59757 1.59757,-1.59756 z m 4.89259,-4.87732 -1.82697,-1.82696 -1.41017,1.40075 -1.41017,1.40077 1.82823,1.8351 1.82822,1.83512 1.40892,-1.40891 1.4089,-1.40891 z m 15.66783,0.18993 c 0.69943,-0.69407 1.27168,-1.35025 1.27168,-1.4582 0,-0.10794 -0.84438,-1.03747 -1.87641,-2.06562 l -1.8764,-1.86937 -1.40909,1.39969 -1.40908,1.39968 1.92132,1.92788 c 1.05672,1.06033 1.96293,1.92788 2.01381,1.92788 0.0509,0 0.66474,-0.56788 1.36417,-1.26194 z m 4.30262,-4.32213 c 1.01629,-1.07245 1.28616,-1.56563 1.28616,-2.35041 0,-0.96989 -0.32909,-1.53016 -1.67593,-2.85325 l -1.14131,-1.12119 -1.59505,1.58676 -1.59504,1.58676 1.92103,1.9276 c 1.05658,1.06018 1.96876,1.9276 2.02708,1.9276 0.0583,0 0.4062,-0.31674 0.77306,-0.70387 z m -10.77316,-5.0651 -1.82696,-1.82696 -1.41017,1.40076 -1.41018,1.40076 1.82823,1.83511 1.82823,1.83511 1.40891,-1.4089 1.40891,-1.40891 z m -13.16441,1.42188 c 1.83325,-0.86173 3.07017,-2.79339 3.07331,-4.79948 10e-4,-1.07272 -0.43249,-2.678523 -0.72422,-2.678523 -0.0672,0 -1.75864,1.638053 -3.75872,3.640113 -3.36394,3.36726 -3.60734,3.65572 -3.24722,3.84845 1.20443,0.6446 3.27303,0.6399 4.65685,-0.0106 z m 19.21345,-5.89446 c -1.18548,-1.209566 -1.80586,-1.583543 -2.62693,-1.583543 -0.78019,0 -1.23369,0.253269 -2.29816,1.283453 l -0.89343,0.86465 1.8295,1.83639 1.8295,1.83639 1.59398,-1.59399 1.59399,-1.59399 z"
         id="path1897" /></g></g></svg>
