<?xml version="1.0" encoding="UTF-8" standalone="no"?>
<!-- Created with Inkscape (http://www.inkscape.org/) -->

<svg
   width="72.648537mm"
   height="41.218067mm"
   viewBox="0 0 72.648537 41.218067"
   version="1.1"
   id="svg5"
   xml:space="preserve"
   inkscape:version="1.2.2 (732a01da63, 2022-12-09)"
   sodipodi:docname="icon2.svg"
   xmlns:inkscape="http://www.inkscape.org/namespaces/inkscape"
   xmlns:sodipodi="http://sodipodi.sourceforge.net/DTD/sodipodi-0.dtd"
   xmlns="http://www.w3.org/2000/svg"
   xmlns:svg="http://www.w3.org/2000/svg"><sodipodi:namedview
     id="namedview7"
     pagecolor="#ffffff"
     bordercolor="#000000"
     borderopacity="0.25"
     inkscape:showpageshadow="2"
     inkscape:pageopacity="0.0"
     inkscape:pagecheckerboard="0"
     inkscape:deskcolor="#d1d1d1"
     inkscape:document-units="mm"
     showgrid="false"
     inkscape:zoom="1.4289282"
     inkscape:cx="169.35771"
     inkscape:cy="91.677106"
     inkscape:window-width="1920"
     inkscape:window-height="974"
     inkscape:window-x="-11"
     inkscape:window-y="201"
     inkscape:window-maximized="1"
     inkscape:current-layer="layer1" /><defs
     id="defs2" /><g
     inkscape:label="Layer 1"
     inkscape:groupmode="layer"
     id="layer1"
     transform="translate(94.97062,-121.92888)"><path
       style="fill:#000000;stroke-width:0.176344"
       d="m -83.408227,161.21356 c -0.61545,-1.30097 -0.984043,-2.79765 -0.984043,-3.99576 v -0.99819 l 2.512902,-1.66677 c 4.377603,-2.90358 10.89433,-6.88407 14.617484,-8.92853 1.174703,-0.64506 1.359546,-0.81328 1.44082,-1.31128 0.301874,-1.8498 0.608085,-2.32673 1.493844,-2.32673 0.599252,0 0.722257,-0.0682 0.881049,-0.48896 0.14573,-0.38608 0.296897,-0.48895 0.718504,-0.48895 0.293668,0 0.582987,0.0794 0.642929,0.17635 0.226175,0.36595 0.440861,0.1543 0.440861,-0.43466 0,-0.4236 0.104615,-0.66699 0.341095,-0.79355 0.482728,-0.25835 1.120727,-0.22631 1.5209,0.0764 0.476851,0.36066 0.534692,0.34096 0.787016,-0.26822 0.12264,-0.29607 0.509205,-0.69901 0.859029,-0.89539 0.349826,-0.1964 1.109827,-0.62233 1.688893,-0.94654 l 1.052846,-0.58947 -1.581878,-0.0599 c -1.530762,-0.058 -1.597228,-0.0442 -2.056885,0.4268 -0.661781,0.67821 -1.572824,0.6704 -2.26262,-0.0195 -0.483393,-0.48339 -0.508599,-0.48943 -0.559554,-0.1339 -0.02935,0.20475 -0.273099,0.47727 -0.541672,0.60559 -0.415336,0.19845 -0.57122,0.19195 -1.043074,-0.0435 -0.494387,-0.24663 -0.586692,-0.24786 -0.848154,-0.0108 -0.386717,0.34998 -1.055208,0.33684 -1.58045,-0.0311 -0.28469,-0.1994 -0.701974,-0.28178 -1.273647,-0.25144 -0.757306,0.0402 -0.850234,0.005 -0.850234,-0.32063 0,-0.20118 -0.05952,-0.36558 -0.132258,-0.36534 -0.07274,2.3e-4 -1.600323,0.15446 -3.394626,0.34273 -5.328388,0.55907 -9.160602,0.73689 -14.053234,0.65207 -2.540345,-0.0441 -4.703329,-0.13231 -4.806624,-0.19615 -0.427298,-0.26408 -1.772406,-3.68582 -1.772406,-4.50873 0,-0.9577 0.188997,-0.9956 5.554843,-1.1139 6.406514,-0.14127 12.531373,-0.68071 17.281724,-1.52211 1.066882,-0.18896 3.923657,-0.83151 6.348389,-1.42787 3.767403,-0.9266 4.732831,-1.10058 6.637853,-1.19624 2.129318,-0.10687 2.263702,-0.13655 2.997848,-0.66076 1.030078,-0.73552 1.694268,-1.05535 2.491336,-1.19969 0.632917,-0.11456 0.704927,-0.0766 1.507288,0.79602 l 0.842616,0.91638 0.961533,-0.31727 c 1.645697,-0.54301 4.097755,-1.57602 4.979671,-2.09786 2.062378,-1.22031 4.344014,-1.48789 5.933418,-0.69586 1.849127,0.92146 3.245264,3.90408 2.395413,5.11741 -0.243009,0.34695 -0.231023,0.38122 0.168416,0.48147 0.499807,0.12545 1.191703,0.99094 1.479617,1.85087 0.45976,1.37318 0.134113,3.29419 -0.710903,4.19366 -0.269258,0.28661 -0.343141,0.54309 -0.280079,0.9723 0.173174,1.17862 -0.371432,1.63678 -3.071735,2.58414 -0.841543,0.29523 -1.930035,0.73946 -2.418867,0.98718 -0.488835,0.24771 -1.03784,0.45039 -1.220012,0.45039 -0.428138,0 -0.914913,-0.54134 -0.914913,-1.01747 0,-0.56581 -0.250218,-0.61568 -1.453411,-0.28965 -1.169626,0.31693 -1.544439,0.61254 -1.544439,1.21802 0,0.65325 -0.88708,2.19893 -1.420206,2.47463 -0.28312,0.1464 -0.977124,0.25963 -1.591424,0.25963 -0.996667,0 -1.368786,0.12932 -4.373275,1.51998 -1.806154,0.83598 -4.43456,1.9774 -5.840905,2.53646 -7.192931,2.85942 -14.248124,6.62438 -22.362144,11.93341 -1.678855,1.09849 -3.081645,1.99725 -3.117303,1.99725 -0.03565,0 -0.268385,-0.43026 -0.517162,-0.95614 z m 3.202448,-2.51085 c 7.476262,-4.87012 15.146292,-8.95474 21.912439,-11.66929 1.697314,-0.68096 4.554088,-1.91699 6.348389,-2.74673 3.070927,-1.4201 3.332369,-1.5088 4.455282,-1.51174 1.155277,-0.004 1.203941,-0.0213 1.542352,-0.57624 0.245489,-0.40263 0.349673,-0.88787 0.35023,-1.63119 l 7.33e-4,-1.05806 2.336426,-0.59904 c 1.285036,-0.32947 2.425807,-0.63178 2.535048,-0.67179 0.109239,-0.04 0.347305,0.2895 0.529032,0.73223 0.241269,0.5878 0.401777,0.77419 0.594928,0.69086 0.145484,-0.0628 1.206569,-0.45635 2.357965,-0.87465 1.151398,-0.41832 2.133298,-0.8004 2.182002,-0.84911 0.105215,-0.10519 -0.02618,-0.40765 -0.397797,-0.91565 -0.25546,-0.34921 -0.237461,-0.39436 0.306109,-0.76798 1.133087,-0.77881 1.544043,-1.76329 1.293515,-3.09872 l -0.120511,-0.64238 -0.38591,0.76336 c -0.212249,0.41984 -0.648044,0.93749 -0.968431,1.15032 -0.55983,0.37189 -0.568418,0.39451 -0.220431,0.58074 0.462978,0.24778 0.467329,0.9132 0.0086,1.32828 -0.29201,0.26425 -0.429867,0.28497 -0.793548,0.11924 -0.471551,-0.21485 -0.617163,-1.01862 -0.250888,-1.38489 0.134776,-0.13478 0.06506,-0.22043 -0.242195,-0.29754 -0.521199,-0.13081 -0.7471,-0.63759 -1.091834,-2.44935 -0.143026,-0.75166 -0.45977,-1.7608 -0.703875,-2.24252 -0.546755,-1.07897 -0.550216,-1.27325 -0.03339,-1.87409 0.555372,-0.64566 1.777458,-0.69809 2.572547,-0.11036 0.636015,0.47015 0.657697,0.42299 0.208382,-0.45316 -0.620888,-1.21087 -1.545222,-1.8005 -2.82246,-1.8005 -0.804092,0 -2.484348,0.55537 -3.180934,1.05138 -0.697116,0.49639 -4.223453,1.90184 -5.828743,2.3231 l -1.322581,0.34706 -0.807554,-0.89087 c -0.444156,-0.48999 -0.920284,-0.89047 -1.058064,-0.88995 -0.250567,6.6e-4 -0.515249,0.15764 -1.927724,1.14136 -0.714227,0.49743 -0.875728,0.53109 -3.065253,0.63867 -2.021822,0.0993 -2.907624,0.25881 -7.072591,1.27321 -2.618711,0.63782 -5.475484,1.27971 -6.348388,1.42645 -4.770073,0.80189 -10.600674,1.31618 -16.532262,1.45826 -2.594451,0.0621 -4.716535,0.15987 -4.715719,0.21716 6.73e-4,0.0573 0.219041,0.67843 0.48495,1.38032 l 0.483461,1.27614 3.934147,0.0877 c 4.470326,0.0997 8.231024,-0.0725 13.994082,-0.64072 3.440933,-0.33926 4.066575,-0.36067 4.496775,-0.15385 0.663292,0.31888 1.813214,0.333 2.31191,0.0285 0.261777,-0.1599 0.66054,-0.21036 1.146237,-0.14503 0.50584,0.068 0.854634,0.019 1.087115,-0.15301 0.423,-0.31288 1.319066,-0.31952 1.722803,-0.0128 0.165918,0.12605 0.383948,0.44561 0.484512,0.7101 l 0.182843,0.48092 0.426256,-0.49528 c 0.420519,-0.48862 0.453164,-0.49529 2.425166,-0.49529 1.534758,0 2.190501,-0.0761 2.824009,-0.32777 0.77506,-0.30789 0.860464,-0.31013 1.408329,-0.0368 0.440033,0.21952 0.601049,0.23751 0.655793,0.0733 0.180496,-0.54148 0.904728,-1.03126 1.524932,-1.03126 0.843485,0 1.669719,0.78535 1.669719,1.5871 0,1.2132 -1.598369,2.01829 -2.605923,1.31257 -0.23702,-0.166 -0.391926,-0.19769 -0.391926,-0.0801 0,0.38171 -0.867132,1.06006 -1.358653,1.06284 -0.271129,10e-4 -1.28651,0.42474 -2.256403,0.94045 -1.609996,0.85606 -1.768222,0.98587 -1.818383,1.49187 -0.06184,0.62382 -0.742823,1.26811 -1.340354,1.26811 -0.207813,0 -0.55421,-0.12353 -0.769767,-0.27452 -0.366947,-0.25702 -0.391927,-0.2514 -0.391927,0.0881 0,0.5657 -0.62207,1.06805 -1.322581,1.06805 -0.42678,0 -0.617204,0.0803 -0.617204,0.26046 0,0.42345 -0.819407,0.85415 -1.402955,0.73745 -0.415011,-0.083 -0.539358,-0.0333 -0.629767,0.25152 -0.06327,0.19936 0.0013,0.52882 0.147252,0.75162 0.25555,0.39001 0.218094,0.42005 -2.233764,1.79177 -4.421866,2.47385 -9.033602,5.27223 -14.543137,8.82466 l -2.174188,1.40189 0.09304,0.83084 c 0.09073,0.81028 0.461283,2.25517 0.578346,2.25517 0.03219,0 0.991755,-0.60787 2.132306,-1.35083 z m 32.316744,-20.86851 c -0.193979,-0.19398 -0.352689,-0.55468 -0.352689,-0.80157 0,-0.54264 0.724859,-1.31456 1.234409,-1.31456 0.50955,0 1.234409,0.77192 1.234409,1.31456 0,0.60579 -0.586561,1.15426 -1.234409,1.15426 -0.293907,0 -0.685783,-0.15676 -0.88172,-0.35269 z m 1.551828,-0.21162 c 0.45794,-0.45793 0.0072,-1.55183 -0.639468,-1.55183 -0.700038,0 -1.183013,1.06957 -0.700748,1.55183 0.272791,0.27279 1.067426,0.27279 1.340216,0 z m -2.786237,-4.02064 c -0.74538,-0.74538 -0.138315,-2.11614 0.937173,-2.11614 1.016662,0 1.606196,1.49849 0.856469,2.17697 -0.443702,0.40156 -1.36242,0.37038 -1.793642,-0.0609 z m 1.551828,-0.21162 c 0.116383,-0.11636 0.211613,-0.41793 0.211613,-0.6701 0,-0.5623 -0.295693,-0.88173 -0.816221,-0.88173 -0.772262,0 -1.259521,1.02791 -0.735608,1.55183 0.272791,0.27279 1.067426,0.27279 1.340216,0 z m 7.782472,-5.98274 c -0.307685,-0.57491 0.04887,-1.2121 0.678265,-1.2121 0.590952,0 0.920771,0.28424 0.920771,0.79355 0,0.50677 -0.329161,0.79355 -0.910786,0.79355 -0.316746,0 -0.55787,-0.13137 -0.68825,-0.375 z m 1.158175,-0.41614 c 0,-0.38904 -0.548235,-0.58277 -0.835694,-0.29532 -0.296392,0.2964 -0.0041,0.76485 0.438132,0.70206 0.260137,-0.037 0.397562,-0.17754 0.397562,-0.40674 z m -11.429647,9.9303 c 1.144269,-1.07499 -0.474745,-2.76679 -1.699033,-1.77542 -0.247857,0.20071 -0.388825,0.52172 -0.399882,0.91061 -0.03171,1.11545 1.263892,1.64927 2.098915,0.86481 z m 14.312591,-0.83073 c 0.320154,-0.20289 0.186368,-0.79521 -0.196254,-0.8689 -0.342747,-0.0659 -0.57433,0.35469 -0.418616,0.76048 0.11481,0.29918 0.27052,0.32664 0.61487,0.10843 z m 0.203079,-3.65985 c 0,-0.12892 -0.243346,-0.49356 -0.540768,-0.81032 l -0.54077,-0.5759 0.11409,0.86019 c 0.172807,1.30282 0.241575,1.41732 0.636544,1.05989 0.181994,-0.16471 0.330899,-0.40494 0.330899,-0.53386 z m -0.938287,-2.10733 c -0.114197,-0.7037 -0.396334,-1.1305 -0.747336,-1.1305 -0.17074,0 -0.130269,0.23085 0.15385,0.87757 0.452177,1.02925 0.739324,1.15163 0.593486,0.25293 z"
       id="path338" /></g></svg>
