<?xml version="1.0" encoding="UTF-8" standalone="no"?>
<!-- Created with Inkscape (http://www.inkscape.org/) -->

<svg
   width="72.648537mm"
   height="41.218067mm"
   viewBox="0 0 72.648537 41.218067"
   version="1.1"
   id="svg5"
   xml:space="preserve"
   xmlns="http://www.w3.org/2000/svg"
   xmlns:svg="http://www.w3.org/2000/svg"><defs
     id="defs2" /><g
     id="layer1"
     transform="translate(94.97062,-121.92888)"><g
       id="g1457"
       transform="translate(56.03777,28.804462)"><path
         style="fill:#000000;stroke-width:0.162167"
         d="m -132.79254,129.63658 c -0.006,-1.11489 -0.0109,-4.28933 -0.0109,-7.05429 0,-2.76495 0.005,-10.06249 0.0109,-16.21674 l 0.0109,-11.189554 h 18.97359 18.973604 v 18.243834 18.24385 h -18.973604 -18.97359 z m 5.49336,0.12164 0.0499,-0.68922 h -1.30667 -1.30666 v -0.81893 -0.81894 l -0.93247,0.0486 -0.93246,0.0487 -0.0478,1.28301 c -0.0263,0.70565 -0.01,1.3828 0.0373,1.50478 0.0673,0.17541 0.53495,0.21231 2.23709,0.17651 l 2.152,-0.0453 z m 8.78827,0.0405 v -0.72975 h -1.37843 -1.37842 v -0.81085 -0.81084 h -1.13517 -1.13517 v 0.81084 0.81085 h -1.29735 -1.29733 v 0.72975 0.72975 h 3.81092 3.81095 z m 8.75704,0 v -0.72975 h -1.29734 -1.29734 v -0.81085 -0.81084 h -1.29734 -1.29734 v 0.81084 0.81085 h -1.21626 -1.21625 v 0.72975 0.72975 h 3.81093 3.81094 z m 8.72582,-0.0405 0.0499,-0.68922 h -1.30667 -1.30667 v -0.81084 -0.81084 h -1.21625 -1.21626 v 0.81084 0.81084 h -1.29734 -1.29734 v 0.62164 c 0,0.34191 0.05,0.67163 0.11109,0.73272 0.0611,0.0611 1.75777,0.0915 3.77039,0.0676 l 3.65931,-0.0435 z m 5.058414,-0.77031 v -1.54059 h -0.64867 -0.64866 v 0.81084 0.81084 h -1.29735 -1.29733 v 0.72976 0.72975 h 1.946 1.94601 z m -33.893004,-4.45961 v -1.78383 h 1.29735 1.29733 v -1.0541 -1.05409 h -1.29733 -1.29735 v -0.98109 -0.9811 l -0.93246,0.0487 -0.93247,0.0486 -0.0435,3.77039 -0.0435,3.77039 h 0.97598 0.976 z m 8.59488,0 v -1.78383 h 1.37842 1.37843 v -1.0541 -1.05409 h -1.37843 -1.37842 v -0.973 -0.97301 h -1.13517 -1.13517 v 0.97301 0.973 h -1.29735 -1.29733 v 1.05409 1.0541 h 1.29733 1.29735 v 1.78383 1.78385 h 1.13517 1.13517 z m 8.91921,0 v -1.78383 h 1.29734 1.29734 v -1.0541 -1.05409 h -1.29734 -1.29734 v -0.973 -0.97301 h -1.29734 -1.29734 v 0.97301 0.973 h -1.21626 -1.21625 v 1.05409 1.0541 h 1.21625 1.21626 v 1.78383 1.78385 h 1.29734 1.29734 z m 8.75705,0 v -1.78383 h 1.29733 1.29734 v -1.0541 -1.05409 h -1.29734 -1.29733 v -0.973 -0.97301 h -1.21627 -1.21625 v 0.97301 0.973 h -1.29734 -1.29734 v 1.05409 1.0541 h 1.29734 1.29734 v 1.78383 1.78385 h 1.21625 1.21627 z m 7.621864,-2.02709 v -3.81094 h -0.64867 -0.64866 v 0.97301 0.973 h -1.29735 -1.29733 v 1.05409 1.0541 h 1.29733 1.29735 v 1.78383 1.78385 h 0.64866 0.64867 z m -33.893004,-6.56778 v -1.62167 h 1.29735 1.29733 v -0.973 -0.97301 h -1.29733 -1.29735 v -1.21626 -1.21626 h -0.973 -0.97301 v 3.81094 3.81093 h 0.97301 0.973 z m 8.59488,0 v -1.62167 h 1.37842 1.37843 v -0.973 -0.97301 h -1.37843 -1.37842 v -1.21626 -1.21626 h -1.13517 -1.13517 v 1.21626 1.21626 h -1.29735 -1.29733 v 0.97301 0.973 h 1.29733 1.29735 v 1.62167 1.62167 h 1.13517 1.13517 z m 8.91921,0 v -1.62167 h 1.29734 1.29734 v -0.973 -0.97301 h -1.29734 -1.29734 v -1.21626 -1.21626 h -1.29734 -1.29734 v 1.21626 1.21626 h -1.21626 -1.21625 v 0.97301 0.973 h 1.21625 1.21626 v 1.62167 1.62167 h 1.29734 1.29734 z m 8.75705,0 v -1.62167 h 1.29733 1.29734 v -0.973 -0.97301 h -1.29734 -1.29733 v -1.21626 -1.21626 h -1.21627 -1.21625 v 1.21626 1.21626 h -1.29734 -1.29734 v 0.97301 0.973 h 1.29734 1.29734 v 1.62167 1.62167 h 1.21625 1.21627 z m 7.621864,-2.18926 v -3.81094 h -0.64867 -0.64866 v 1.21626 1.21626 h -1.29735 -1.29733 v 0.97301 0.973 h 1.29733 1.29735 v 1.62167 1.62167 h 0.64866 0.64867 z m -33.893004,-6.32453 v -1.37843 h 1.29735 1.29733 v -0.973 -0.973 h -1.29733 -1.29735 v -1.4676 -1.4676 l -0.93246,0.0486 -0.93247,0.0486 -0.0438,3.56384 c -0.0241,1.96011 -0.008,3.65679 0.0355,3.7704 0.051,0.13283 0.39937,0.20654 0.97627,0.20654 h 0.89701 z m 8.59488,0 v -1.37843 h 1.37842 1.37843 v -0.973 -0.973 h -1.37843 -1.37842 v -1.4595 -1.45952 h -1.13517 -1.13517 v 1.45952 1.4595 h -1.29735 -1.29733 v 0.973 0.973 h 1.29733 1.29735 v 1.37843 1.37842 h 1.13517 1.13517 z m 8.91921,0 v -1.37843 h 1.29734 1.29734 v -0.973 -0.973 h -1.29734 -1.29734 v -1.4595 -1.45952 h -1.29734 -1.29734 v 1.45952 1.4595 h -1.21626 -1.21625 v 0.973 0.973 h 1.21625 1.21626 v 1.37843 1.37842 h 1.29734 1.29734 z m 8.75705,0 v -1.37843 h 1.29733 1.29734 v -0.973 -0.973 h -1.29734 -1.29733 v -1.4595 -1.45952 h -1.21627 -1.21625 v 1.45952 1.4595 h -1.29734 -1.29734 v 0.973 0.973 h 1.29734 1.29734 v 1.37843 1.37842 h 1.21625 1.21627 z m 7.621864,-2.43251 v -3.81094 h -0.64867 -0.64866 v 1.45952 1.4595 h -1.29735 -1.29733 v 0.973 0.973 h 1.29733 1.29735 v 1.37843 1.37842 h 0.64866 0.64867 z m -33.893004,-6.081282 v -1.135172 h 1.29735 1.29733 v -0.73433 -0.73433 l -2.2298,0.04511 -2.22981,0.04511 -0.0458,1.824384 -0.0458,1.82439 h 0.97831 0.97832 z m 8.59488,0 v -1.135172 h 1.37842 1.37843 v -0.729754 -0.729754 h -3.81095 -3.81092 v 0.729754 0.729754 h 1.29733 1.29735 v 1.135172 1.135172 h 1.13517 1.13517 z m 8.91921,0 v -1.135172 h 1.29734 1.29734 v -0.729754 -0.729754 h -3.81094 -3.81093 v 0.729754 0.729754 h 1.21625 1.21626 v 1.135172 1.135172 h 1.29734 1.29734 z m 8.75705,0 v -1.135172 h 1.29733 1.29734 v -0.729754 -0.729754 h -3.81094 -3.81093 v 0.729754 0.729754 h 1.29734 1.29734 v 1.135172 1.135172 h 1.21625 1.21627 z m 7.621864,-0.729753 v -1.864927 h -1.94601 -1.946 v 0.729754 0.729754 h 1.29733 1.29735 v 1.135172 1.135172 h 0.64866 0.64867 z"
         id="path1937" /></g></g></svg>
