<?xml version="1.0" encoding="UTF-8" standalone="no"?>
<!-- Created with Inkscape (http://www.inkscape.org/) -->

<svg
   width="72.648537mm"
   height="41.218067mm"
   viewBox="0 0 72.648537 41.218067"
   version="1.1"
   id="svg5"
   xml:space="preserve"
   xmlns="http://www.w3.org/2000/svg"
   xmlns:svg="http://www.w3.org/2000/svg"><defs
     id="defs2" /><g
     id="layer1"
     transform="translate(94.97062,-121.92888)"><g
       id="g1457"
       transform="translate(56.03777,28.804462)"><path
         style="fill:#000000;stroke-width:0.192904"
         d="m -118.27947,131.23408 c -2.93043,-0.22214 -5.29898,-0.64671 -6.04789,-1.0841 -0.33389,-0.195 -0.80101,-0.69694 -1.03804,-1.11542 l -0.43097,-0.76086 -0.003,-14.58212 -0.003,-14.582116 0.44885,-0.850186 c 0.24686,-0.467599 0.8185,-1.110601 1.27031,-1.42889 l 0.82147,-0.578711 9.9622,-0.05337 c 7.50407,-0.04017 10.10602,0.0051 10.54505,0.182235 1.02105,0.412743 1.63324,0.980146 2.12737,1.971731 l 0.48096,0.965156 v 14.368991 c 0,14.13885 -0.006,14.38223 -0.3995,15.19426 -0.22097,0.45648 -0.68897,1.00415 -1.0473,1.2256 -1.72882,1.06848 -10.04967,1.63087 -16.68616,1.12779 z m 3.29205,-1.52039 c 0.28481,-0.15243 0.37313,-0.40705 0.37313,-1.07581 0,-0.71113 0.10618,-0.9823 0.56386,-1.43999 1.12196,-1.12195 2.49912,-0.43312 2.66901,1.33498 0.1107,1.1521 0.52576,1.55055 1.22523,1.1762 0.36337,-0.19447 0.39868,-0.35044 0.32857,-1.45148 -0.0539,-0.84627 -0.20243,-1.40083 -0.47308,-1.76617 -1.44635,-1.95234 -4.05801,-1.89089 -5.4182,0.12749 -0.56907,0.84443 -0.63233,2.77668 -0.10104,3.08611 0.42354,0.2467 0.38844,0.24633 0.83252,0.009 z m 11.46509,-17.54746 v -11.09196 l -9.35583,-0.0505 c -8.62424,-0.0466 -9.37469,-0.0249 -9.59696,0.278 -0.31451,0.42852 -0.35309,21.09749 -0.0405,21.68163 0.1951,0.36453 0.46191,0.37356 9.59697,0.32489 l 9.39629,-0.05 z m -14.88117,7.91068 c -0.54113,-0.21837 -1.03339,-0.93584 -1.03339,-1.50616 0,-0.2498 0.25374,-0.70792 0.56387,-1.01805 l 0.56388,-0.56387 h 5.27677 c 4.52608,0 5.33949,0.044 5.71767,0.30882 0.63617,0.44559 0.87064,1.18258 0.591,1.85769 -0.43281,1.04488 -0.828,1.11405 -6.28956,1.10062 -2.73727,-0.007 -5.16288,-0.0873 -5.39024,-0.17905 z m -0.47715,-6.73266 c -0.63765,-0.51634 -0.63765,-1.83969 0,-2.35603 0.40001,-0.32391 0.79573,-0.36522 3.49897,-0.36522 h 3.04794 l 0.49941,0.59352 c 0.62866,0.74713 0.62866,1.1523 0,1.89943 l -0.49941,0.59351 h -3.04794 c -2.70324,0 -3.09896,-0.0413 -3.49897,-0.36521 z m 0.008,-6.56449 c -0.68959,-0.68959 -0.72111,-1.35364 -0.0986,-2.07779 l 0.46528,-0.54124 5.21791,-0.057 c 4.47343,-0.0489 5.30272,-0.0132 5.81237,0.25037 1.07319,0.55496 1.19352,1.85745 0.24085,2.60682 -0.45846,0.36062 -0.79276,0.38276 -5.78028,0.38276 h -5.29367 l -0.56388,-0.56388 z"
         id="path1797" /></g></g></svg>
