<?xml version="1.0" encoding="UTF-8" standalone="no"?>
<!-- Created with Inkscape (http://www.inkscape.org/) -->

<svg
   width="72.648537mm"
   height="41.218067mm"
   viewBox="0 0 72.648537 41.218067"
   version="1.1"
   id="svg5"
   xml:space="preserve"
   xmlns="http://www.w3.org/2000/svg"
   xmlns:svg="http://www.w3.org/2000/svg"><defs
     id="defs2" /><g
     id="layer1"
     transform="translate(94.97062,-121.92888)"><path
       style="fill:#000000;stroke-width:0.323868"
       d="m -40.078785,157.22441 -1.008702,-1.05256 1.215239,-1.35747 c 0.66838,-0.74661 1.660048,-2.27689 2.203703,-3.40062 3.16821,-6.54865 2.267227,-14.23425 -2.330235,-19.8775 l -0.809141,-0.99319 1.102351,-1.06844 1.102351,-1.06845 1.530958,2.06164 c 4.794962,6.45703 5.668926,14.76991 2.292804,21.80832 -1.040949,2.17012 -3.648469,6.00085 -4.084689,6.00085 -0.113263,0 -0.659853,-0.47365 -1.214639,-1.05258 z m -31.965625,-6.54484 -2.848598,-6.65279 h -3.203512 -3.203512 v -1.4668 -1.46682 l 4.262391,0.0903 4.26239,0.0903 1.621453,3.81603 c 0.891799,2.0988 1.720071,3.70195 1.840603,3.56254 0.120535,-0.1394 1.872681,-5.09934 3.893661,-11.02208 2.020981,-5.92275 3.756162,-10.76685 3.855958,-10.76469 0.0998,0.002 1.201632,3.35242 2.448524,7.44504 l 2.26708,7.44111 1.134589,0.004 c 0.840997,0.002 1.369064,-0.2445 2.040706,-0.9561 2.4145,-2.55817 6.374133,-0.88635 6.377609,2.69272 9.72e-4,0.9871 -0.228213,1.47631 -1.099942,2.34805 -1.473528,1.47352 -3.492511,1.55715 -5.082893,0.21051 -0.791822,-0.67047 -1.615892,-0.9707 -3.333522,-1.21451 l -2.281675,-0.32386 -1.319831,-4.19636 -1.31983,-4.19634 -3.506734,10.18791 c -1.928704,5.60336 -3.607891,10.37616 -3.731527,10.60624 -0.131602,0.2449 -1.405702,-2.33965 -3.073388,-6.23447 z m 26.881908,1.47128 -0.904645,-0.94424 1.019097,-1.48121 c 1.431961,-2.08129 1.964482,-3.81172 1.964482,-6.3836 0,-2.47128 -0.745886,-4.84876 -2.062916,-6.57548 l -0.815131,-1.06868 1.069854,-1.03695 1.069851,-1.03695 0.90674,1.0722 c 3.831939,4.53118 3.914571,11.94594 0.189706,17.02272 -0.555448,0.75704 -1.127464,1.37644 -1.271148,1.37644 -0.143683,0 -0.668334,-0.42491 -1.16589,-0.94425 z"
       id="path590" /></g></svg>
