<?xml version="1.0" encoding="UTF-8" standalone="no"?>
<!-- Created with Inkscape (http://www.inkscape.org/) -->

<svg
   width="72.648537mm"
   height="41.218067mm"
   viewBox="0 0 72.648537 41.218067"
   version="1.1"
   id="svg5"
   xml:space="preserve"
   xmlns="http://www.w3.org/2000/svg"
   xmlns:svg="http://www.w3.org/2000/svg"><defs
     id="defs2" /><g
     id="layer1"
     transform="translate(94.97062,-121.92888)"><g
       id="g1457"
       transform="translate(56.03777,28.804462)"><path
         style="fill:#000000;stroke-width:0.13975"
         d="m -114.66425,128.84002 c -0.0342,-0.0977 -0.0799,-0.46059 -0.10154,-0.80647 l -0.0394,-0.62888 -1.12526,-0.0699 c -1.25473,-0.0779 -1.72545,-0.29985 -2.16502,-1.02079 -0.26357,-0.43225 -0.27233,-0.7861 -0.27284,-11.01204 l -5.2e-4,-10.56543 0.31444,-0.46066 c 0.17294,-0.25336 0.53357,-0.5771 0.80139,-0.71942 0.46551,-0.24737 1.17002,-0.25876 16.00676,-0.25876 h 15.51982 l 0.61321,0.31444 c 1.19173,0.61108 1.12305,-0.10473 1.12281,11.70192 -1.4e-4,9.63805 -0.0184,10.44929 -0.24457,10.8928 -0.41827,0.82027 -0.8789,1.0516 -2.20444,1.10707 l -1.17118,0.049 -0.0415,0.7895 -0.0415,0.78949 h -2.86489 -2.86489 l -0.0419,-0.80357 -0.0419,-0.80356 h -7.67233 -7.67233 l -0.0419,0.80356 -0.0419,0.80357 -2.83322,0.0378 c -2.19279,0.0293 -2.84727,-0.002 -2.89535,-0.13975 z m 4.95993,-1.08961 v -0.42289 l -2.13119,0.0386 -2.1312,0.0386 -0.0442,0.38432 -0.0442,0.38431 h 2.17542 2.17541 z m 21.24209,0.004 v -0.41926 h -2.09626 -2.09626 v 0.41926 0.41925 h 2.09626 2.09626 z m 3.22501,-1.66626 0.40851,-0.40849 v -10.36335 -10.36304 l -0.40851,-0.4085 -0.4085,-0.40851 h -15.53381 -15.53382 l -0.4085,0.40851 -0.4085,0.4085 v 10.42852 10.42852 l 0.34303,0.34302 0.34302,0.34303 h 15.59929 15.59929 z m -31.27994,-1.22131 c -0.1303,-0.0526 -0.17469,-0.68505 -0.17469,-2.48952 0,-2.16082 0.0257,-2.4289 0.24088,-2.51147 0.4843,-0.18585 0.59763,0.28335 0.59763,2.47418 0,2.34929 -0.10579,2.75198 -0.66382,2.52681 z m 3.85276,-1.20191 c -0.46901,-0.1735 -0.67086,-0.54014 -0.67221,-1.22104 -5.3e-4,-0.34588 -0.0404,-1.0241 -0.0883,-1.50714 -0.11245,-1.13517 0.17484,-1.91408 0.97958,-2.65587 0.83383,-0.76859 1.3312,-0.89965 3.09654,-0.81593 1.38692,0.0658 2.10994,0.26965 2.18078,0.61495 0.0526,0.25617 0.1511,2.13344 0.14723,2.8049 -0.005,0.93027 -0.52866,1.84653 -1.40676,2.46314 -0.58938,0.41387 -0.6414,0.42362 -2.27069,0.42553 -0.91713,0.001 -1.80192,-0.0478 -1.96621,-0.10854 z m 3.67969,-0.95425 c 0.58505,-0.2961 1.03051,-0.94229 1.17065,-1.69818 0.21314,-1.14965 0.006,-1.088 -1.54721,0.45944 -1.19574,1.19167 -1.41741,1.47502 -1.21698,1.55559 0.32285,0.1298 0.96219,0.003 1.59354,-0.31685 z m -1.00076,-1.87227 c 2.05238,-2.05559 2.14889,-2.1767 1.91826,-2.40733 -0.23063,-0.23063 -0.34823,-0.13764 -2.33748,1.8483 -1.15205,1.15012 -2.09464,2.1915 -2.09464,2.31416 0,0.22736 0.11984,0.40935 0.26955,0.40935 0.0457,0 1.05571,-0.97402 2.24431,-2.16448 z m 0.0782,-2.6074 c -0.18995,-0.0508 -0.55363,-0.0454 -0.80818,0.012 -1.17888,0.26588 -1.81147,1.03155 -1.89442,2.29295 l -0.0565,0.85978 1.55225,-1.53619 c 1.46119,-1.44608 1.53199,-1.54161 1.20689,-1.62855 z m 11.54375,5.25723 c -0.5311,-0.4469 -0.65929,-1.00329 -0.38332,-1.66378 0.41024,-0.98185 1.69044,-1.16319 2.38494,-0.33783 1.12144,1.33276 -0.66885,3.12306 -2.00162,2.00161 z m 1.34857,-0.65305 c 0.29482,-0.29482 0.19738,-0.80302 -0.1876,-0.97843 -0.30429,-0.13864 -0.3982,-0.119 -0.65401,0.13682 -0.25582,0.25582 -0.27547,0.34973 -0.13683,0.65401 0.17542,0.38498 0.68361,0.48242 0.97844,0.1876 z m 2.47358,0.844 c -0.82585,-0.45416 -1.01928,-1.47498 -0.41547,-2.19256 1.00001,-1.18845 2.92275,-0.1505 2.43862,1.31643 -0.28858,0.8744 -1.26075,1.2954 -2.02315,0.87613 z m 1.21601,-1.0316 c 0.13864,-0.30428 0.11899,-0.39819 -0.13682,-0.65401 -0.25582,-0.25582 -0.34973,-0.27546 -0.65401,-0.13682 -0.6273,0.28581 -0.39871,1.14613 0.30452,1.14613 0.21188,0 0.38058,-0.12326 0.48631,-0.3553 z m 2.0836,0.836 c -0.83704,-0.70432 -0.64924,-1.96555 0.35517,-2.38522 0.89794,-0.37519 2.00512,0.29738 2.00512,1.21804 0,1.30063 -1.38673,1.98638 -2.36029,1.16718 z m 1.35408,-0.6484 c 0.29483,-0.29482 0.19739,-0.80302 -0.1876,-0.97843 -0.30428,-0.13864 -0.39819,-0.119 -0.654,0.13682 -0.25582,0.25582 -0.27547,0.34973 -0.13683,0.65401 0.17541,0.38498 0.68361,0.48242 0.97843,0.1876 z m -8.18762,-2.69266 c -0.94475,-0.42168 -1.06136,-1.77859 -0.21037,-2.44797 1.32476,-1.04207 3.03038,0.84344 1.89261,2.09221 -0.462,0.50706 -1.05995,0.63351 -1.68224,0.35576 z m 0.95773,-0.77807 c 0.30216,-0.16171 0.35935,-0.68865 0.10262,-0.94539 -0.5428,-0.54279 -1.39559,0.24131 -0.88095,0.80999 0.28871,0.31902 0.39929,0.33826 0.77833,0.1354 z m 2.70032,0.8462 c -0.44328,-0.1791 -0.89275,-0.82673 -0.89275,-1.28632 0,-1.70345 2.25937,-2.08635 2.79178,-0.47315 0.22593,0.68459 -0.10203,1.41865 -0.75587,1.69184 -0.54888,0.22933 -0.71817,0.23935 -1.14316,0.0676 z m 0.9944,-0.9816 c 0.51464,-0.56868 -0.33815,-1.35278 -0.88094,-0.80999 -0.24713,0.24713 -0.20388,0.7756 0.0769,0.93911 0.35915,0.20919 0.5215,0.18312 0.80408,-0.12912 z m 2.4891,0.91947 c -0.95944,-0.42903 -1.12304,-1.69206 -0.30801,-2.37786 1.3555,-1.14058 3.16756,0.70828 1.97597,2.0161 -0.4588,0.50356 -1.05949,0.63385 -1.66796,0.36176 z m 0.94346,-0.78407 c 0.30216,-0.16171 0.35935,-0.68865 0.10261,-0.94539 -0.54279,-0.54279 -1.39558,0.24131 -0.88094,0.80999 0.28871,0.31902 0.39929,0.33826 0.77833,0.1354 z m -26.64315,-0.18422 c -0.1509,-0.39325 -0.002,-0.859 0.27575,-0.859 0.37549,0 0.61575,0.42094 0.41879,0.7337 -0.20172,0.32031 -0.59264,0.39084 -0.69454,0.1253 z m 2.49555,-3.159 c -0.6429,-0.15534 -1.1128,-0.49829 -1.3981,-1.02039 -0.21296,-0.38973 -0.2536,-0.91373 -0.29143,-3.75843 -0.0267,-2.00659 0.0135,-3.51874 0.10211,-3.84804 0.0811,-0.30104 0.36831,-0.75801 0.64537,-1.02671 0.48697,-0.47227 0.52751,-0.48422 1.64188,-0.48422 1.00684,0 1.1487,0.0312 1.19416,0.26275 0.0734,0.37383 -0.21028,0.50129 -1.12107,0.50373 -0.63782,0.002 -0.8736,0.0691 -1.18788,0.33942 l -0.3921,0.33728 v 3.57256 3.57257 l 0.38745,0.38748 0.38746,0.38749 12.39972,0.0417 c 8.62887,0.029 12.55885,-0.005 12.92297,-0.11018 0.89325,-0.25924 0.94413,-0.493 0.94413,-4.33745 v -3.372 l -0.4085,-0.4085 -0.4085,-0.40851 h -10.20763 c -9.78234,0 -10.21337,-0.0108 -10.34574,-0.25809 -0.095,-0.17757 -0.0879,-0.30837 0.023,-0.41925 0.11877,-0.11877 2.84683,-0.16116 10.37212,-0.16116 11.58222,0 10.88555,-0.0683 11.50508,1.12835 0.31298,0.60454 0.3193,0.69969 0.2795,4.20721 -0.0385,3.39601 -0.0565,3.60983 -0.33483,3.98288 -0.16176,0.21683 -0.50764,0.52 -0.76863,0.67372 -0.46419,0.27342 -0.74688,0.28 -12.9822,0.30196 -6.87922,0.0124 -12.71048,-0.0266 -12.95836,-0.0864 z m 10.72236,-4.7574 c -0.92596,-1.2298 -1.71878,-2.23601 -1.76182,-2.23601 -0.0431,0 -0.63161,0.47326 -1.30792,1.05168 l -1.22966,1.05167 -2.28738,-0.0385 -2.28738,-0.0384 v -0.34938 -0.34938 l 2.14571,-0.0387 2.1457,-0.0387 1.38883,-1.18416 c 0.76385,-0.65129 1.43732,-1.18416 1.4966,-1.18416 0.18,0 0.75586,0.68437 2.11666,2.51551 0.71401,0.96078 1.35103,1.80569 1.4156,1.87757 0.0686,0.0764 0.8618,-0.64637 1.90747,-1.73794 1.26124,-1.31662 1.85503,-1.84369 2.01005,-1.78421 0.121,0.0464 0.64013,0.68701 1.15362,1.4235 l 0.93361,1.33908 h 1.34162 1.34162 l 0.47504,-0.48912 c 0.59865,-0.61642 1.21653,-0.65898 1.84836,-0.12733 0.34777,0.29263 0.42997,0.46835 0.42997,0.91913 0,1.35385 -1.70385,1.85794 -2.4469,0.72391 -0.20536,-0.31342 -0.28761,-0.32783 -1.87113,-0.32783 h -1.65633 l -0.75115,-1.07501 c -0.41313,-0.59125 -0.79539,-1.14051 -0.84948,-1.22058 -0.0566,-0.0838 -0.84692,0.63866 -1.86372,1.70388 -0.97097,1.0172 -1.85284,1.84946 -1.95971,1.84946 -0.10688,0 -0.95192,-1.0062 -1.87788,-2.23601 z m 12.36793,0.62888 c 0,-0.34894 -0.056,-0.41925 -0.33415,-0.41925 -0.44735,0 -0.69253,0.38782 -0.43861,0.69378 0.10411,0.12545 0.32057,0.20933 0.48102,0.1864 0.22172,-0.0317 0.29174,-0.1423 0.29174,-0.46093 z m -51.29665,8.67166 c -0.29326,-0.44757 -0.57598,-1.55169 -0.83165,-3.24785 -0.11366,-0.75407 -0.20702,-1.41566 -0.20747,-1.4702 -4.5e-4,-0.0545 -0.51965,-0.11743 -1.15377,-0.13975 -1.12581,-0.0396 -1.15294,-0.0488 -1.15294,-0.38997 0,-0.34295 0.0224,-0.35012 1.22186,-0.38974 1.57751,-0.0521 1.72388,0.031 1.84792,1.04959 0.28078,2.30555 0.69681,4.15547 0.90552,4.02648 0.16401,-0.10136 0.3834,-1.3696 0.77443,-4.4767 0.60012,-4.7685 0.87004,-5.72978 1.60892,-5.72978 0.73608,0 1.03465,0.98065 1.53176,5.03102 0.34996,2.85149 0.6661,4.77804 0.83297,5.07623 0.18092,0.32328 0.37801,-0.50247 0.71126,-2.97997 0.15509,-1.15294 0.38376,-2.85091 0.50815,-3.77327 0.33881,-2.51232 0.68682,-3.42388 1.30713,-3.42388 0.61371,0 0.95445,0.93958 1.31767,3.63351 0.11919,0.88392 0.34417,2.55979 0.49997,3.72416 0.30643,2.29009 0.52283,3.15194 0.70822,2.82066 0.15827,-0.28282 0.50606,-2.39168 0.7567,-4.58831 0.45709,-4.00601 0.81077,-5.38498 1.4204,-5.53798 0.82203,-0.20632 1.14388,0.72164 1.65515,4.77206 0.42533,3.36966 0.73955,5.26422 0.89965,5.42432 0.21209,0.2121 0.63045,-1.60151 0.92237,-3.99855 0.0692,-0.56787 0.17365,-0.84783 0.35206,-0.94332 0.13955,-0.0747 0.7924,-0.13578 1.45079,-0.13578 h 1.19706 v 0.41925 0.41925 h -1.10944 -1.10944 l -0.0854,0.66381 c -0.19488,1.51405 -0.66275,3.62646 -0.8899,4.01783 -0.2919,0.50295 -0.83837,0.61796 -1.174,0.2471 -0.3446,-0.38079 -0.61677,-1.5967 -0.94005,-4.19969 -0.53817,-4.33338 -0.85184,-6.07506 -1.05709,-5.8698 -0.13537,0.13536 -0.47521,2.20992 -0.83278,5.08359 -0.52274,4.20112 -0.82447,5.22793 -1.53626,5.22793 -0.7504,0 -1.00479,-0.8843 -1.6081,-5.59002 -0.44974,-3.50781 -0.65022,-4.61177 -0.83753,-4.61177 -0.18682,0 -0.41488,1.18682 -0.77246,4.02003 -0.67297,5.33199 -0.88647,6.11188 -1.67317,6.11188 -0.78672,0 -1.00022,-0.77989 -1.67318,-6.11188 -0.36044,-2.85587 -0.58559,-4.02003 -0.77747,-4.02003 -0.17518,0 -0.38137,1.15514 -0.8434,4.72508 -0.59438,4.59265 -0.85221,5.47671 -1.59723,5.47671 -0.20968,0 -0.43007,-0.13299 -0.56718,-0.34225 z m 47.45351,-23.974348 c 0,-0.07686 0.18865,-0.139749 0.41925,-0.139749 0.23058,0 0.41925,0.06289 0.41925,0.139749 0,0.07686 -0.18867,0.139754 -0.41925,0.139754 -0.2306,0 -0.41925,-0.06289 -0.41925,-0.139754 z"
         id="path1671" /></g></g></svg>
