<?xml version="1.0" encoding="UTF-8" standalone="no"?>
<!-- Created with Inkscape (http://www.inkscape.org/) -->

<svg
   width="72.648537mm"
   height="41.218067mm"
   viewBox="0 0 72.648537 41.218067"
   version="1.1"
   id="svg5"
   xml:space="preserve"
   xmlns="http://www.w3.org/2000/svg"
   xmlns:svg="http://www.w3.org/2000/svg"><defs
     id="defs2" /><g
     id="layer1"
     transform="translate(94.97062,-121.92888)"><g
       id="g1457"
       transform="translate(56.03777,28.804462)"><path
         style="fill:#000000;stroke-width:0.104581"
         d="m -131.95602,127.72172 c -1.58178,-2.01876 -2.94294,-3.76607 -3.0248,-3.88291 -0.13861,-0.19784 -0.10637,-0.24894 0.46962,-0.7441 1.39349,-1.19797 3.37774,-3.1008 4.3093,-4.13247 0.54523,-0.60382 2.51289,-2.93958 4.37259,-5.19057 l 3.38125,-4.09272 1.02413,-0.36861 c 0.56327,-0.20273 1.04003,-0.35475 1.05946,-0.33783 0.0932,0.0812 -1.04318,2.07119 -1.82471,3.19516 -0.81772,1.17602 -1.01056,1.55826 -0.78615,1.55826 0.0502,0 0.42958,-0.35614 0.84306,-0.79144 0.76494,-0.80527 1.87591,-2.39531 2.59131,-3.7087 0.38097,-0.69943 0.42187,-0.73723 1.06876,-0.98797 0.36995,-0.14339 0.68751,-0.24583 0.7057,-0.22765 0.10826,0.10826 -0.61559,1.79831 -1.48846,3.47523 -1.09426,2.1023 -1.18829,2.56983 -0.32336,1.6078 0.43204,-0.48051 1.60325,-2.30928 2.35706,-3.68037 0.14995,-0.27273 0.30793,-0.49627 0.35107,-0.49676 0.16309,-0.002 0.064,0.53606 -0.38638,2.099 -1.31417,4.55969 -3.16027,9.1375 -5.25063,13.02004 -1.43015,2.6563 -2.45906,4.0674 -4.0339,5.53228 -0.77203,0.71813 -2.28577,1.83923 -2.46926,1.82877 -0.0383,-0.002 -1.36387,-1.65568 -2.94566,-3.67444 z m 28.53964,2.24418 c -0.5174,-0.46743 -0.85627,-0.9598 -2.3959,-3.48108 -2.19435,-3.59342 -3.66614,-7.06481 -5.37445,-12.67617 -1.26764,-4.16387 -1.4543,-4.99803 -1.11838,-4.99803 0.044,0 0.44991,0.62356 0.90182,1.3857 0.45193,0.76212 1.05597,1.73866 1.34234,2.17006 0.79704,1.20071 2.47925,3.45117 2.57973,3.45117 0.21498,0 0.17024,-0.20949 -0.16881,-0.79042 -0.43026,-0.73722 -2.74978,-5.41764 -2.70826,-5.46483 0.0159,-0.018 0.45312,0.18046 0.97179,0.44095 0.82507,0.41437 0.97118,0.52996 1.16793,0.92392 0.38516,0.77121 3.52383,4.57664 3.77475,4.57664 0.19703,0 0.08,-0.29412 -0.68663,-1.72587 -0.738,-1.37826 -1.06339,-2.10915 -0.97728,-2.19525 0.0206,-0.0206 0.31951,0.0884 0.66406,0.24231 0.55412,0.2476 1.00078,0.66028 3.86846,3.57423 1.783114,1.81186 4.426644,4.4473 5.874524,5.85654 1.447873,1.40923 2.636173,2.62307 2.640667,2.69744 0.02324,0.38524 -1.46598,1.65357 -4.364567,3.7171 -2.924094,2.08168 -4.055234,2.68401 -5.040384,2.68401 -0.45481,0 -0.57645,-0.0497 -0.95141,-0.38842 z m 5.815254,-16.9361 c -2.955914,-0.35146 -5.350774,-0.96646 -8.118134,-2.08474 -1.22305,-0.49423 -4.00413,-1.81414 -3.94298,-1.87135 0.0189,-0.0176 0.45785,0.10681 0.97551,0.27657 4.12194,1.35168 8.714834,1.86844 13.873698,1.56097 1.169976,-0.0697 2.207173,-0.14976 2.304885,-0.17783 0.24025,-0.069 0.606694,0.31701 0.606694,0.63913 0,0.39918 -0.657898,1.05562 -1.297958,1.29511 -0.950506,0.35562 -3.022655,0.52611 -4.401715,0.36214 z m -39.423494,-0.71234 c -1.09476,-0.29381 -1.33886,-1.22384 -0.44494,-1.69524 0.27481,-0.14492 0.78901,-0.19163 2.79444,-0.25384 3.19241,-0.099 5.52272,-0.36133 10.18397,-1.14626 1.02838,-0.17318 1.88539,-0.29924 1.90448,-0.28015 0.0444,0.0444 -4.0714,1.4092 -5.91817,1.96233 -1.8789,0.56274 -4.52529,1.20987 -5.75196,1.40653 -1.19649,0.19183 -2.06997,0.19392 -2.76782,0.007 z m -1.48284,-2.6702 c 0.0345,-0.54643 0.1083,-1.37001 0.16401,-1.83017 0.13507,-1.11565 0.13617,-2.76463 0.002,-4.23553 -0.11023,-1.216 -0.52503,-4.160849 -0.73829,-5.241529 -0.2029,-1.028194 0.0904,-1.494455 1.30013,-2.066855 2.06237,-0.975819 4.8272,-1.307579 7.07678,-0.849144 2.62825,0.535611 6.05613,2.144502 9.30868,4.369096 1.6559,1.132552 3.76493,2.753562 3.76493,2.893742 0,0.14932 -0.18973,0.10815 -2.14392,-0.4653 -0.63271,-0.18566 -1.57395,-0.42561 -2.09162,-0.53323 -1.46479,-0.30449 -2.35775,-0.22808 -1.07962,0.0924 0.269,0.0674 1.09258,0.40058 1.83017,0.7403 0.73759,0.33972 1.75286,0.75054 2.25615,0.91294 0.87627,0.28276 0.91509,0.30835 0.91509,0.60313 v 0.30785 l -0.96737,-0.0689 c -0.53205,-0.0379 -2.02098,-0.0997 -3.30872,-0.13734 -1.99227,-0.0582 -2.33403,-0.0464 -2.2923,0.0794 0.13907,0.41907 2.24675,0.96834 4.17533,1.08809 2.10388,0.13065 2.28848,0.15984 2.28848,0.36195 0,0.17107 -0.1556,0.19151 -1.77942,0.23376 -1.83891,0.0479 -2.24033,0.14247 -1.76142,0.41524 0.17771,0.10121 0.70397,0.14004 1.88514,0.13906 l 1.63861,-8.2e-4 0.046,0.36738 c 0.0253,0.20207 0.0345,0.38165 0.0204,0.39908 -0.05,0.062 -3.06551,0.66466 -5.33067,1.06537 -5.18806,0.91778 -7.92362,1.24794 -11.19018,1.35056 -2.82887,0.0889 -3.14196,0.14911 -3.75155,0.72151 l -0.30038,0.28204 z m 37.66432,0.55718 c -1.11884,-0.094 -3.15955,-0.39248 -4.27547,-0.62527 -2.73928,-0.57143 -6.08859,-1.75671 -7.01929,-2.48404 -0.19277,-0.15066 -0.13952,-0.15855 0.67978,-0.10076 0.48891,0.0345 1.31719,0.0101 1.8406,-0.0543 0.87717,-0.10782 2.07512,-0.43471 2.25618,-0.61566 0.0418,-0.0418 -0.70984,-0.0761 -1.67045,-0.0761 -0.96061,0 -2.05898,-0.0385 -2.44083,-0.0855 -0.60864,-0.0749 -0.68793,-0.10983 -0.64273,-0.28264 0.0756,-0.28934 1.91997,-0.8517 4.97092,-1.51571 0.48058,-0.1046 0.78377,-0.21915 0.7452,-0.28155 -0.10059,-0.16277 -1.44808,-0.007 -3.42656,0.39451 -0.9716,0.19748 -1.85401,0.35906 -1.96089,0.35906 -0.15311,0 -0.19435,-0.0792 -0.19435,-0.37331 0,-0.37099 0.007,-0.37647 1.07757,-0.88159 1.3568,-0.64001 2.98643,-1.29107 3.79225,-1.51507 1.00816,-0.28026 1.61421,-0.50715 1.61421,-0.60433 0,-0.0501 -0.0824,-0.0664 -0.18302,-0.0363 -0.10065,0.0301 -1.18611,0.31475 -2.41212,0.63268 -1.42159,0.36864 -2.5483,0.72762 -3.1102,0.99093 l -0.88107,0.41289 -0.0863,-0.33259 c -0.10332,-0.39825 -0.18121,-0.32777 1.75739,-1.58996 5.18779,-3.37767 9.64114,-5.811139 12.247024,-6.692237 1.06816,-0.36117 1.2946,-0.401948 2.18516,-0.393562 2.482865,0.0234 4.314599,0.860798 4.91779,2.248244 0.397974,0.9154 0.389905,1.784153 -0.04104,4.421625 -0.661652,4.04919 -0.722722,4.69554 -0.663797,7.02593 l 0.05339,2.11061 -0.250708,-0.11423 c -0.182023,-0.0829 -0.730556,-0.0806 -2.002404,0.009 -1.569721,0.11004 -5.794601,0.14055 -6.876185,0.0497 z m -14.91831,-1.53889 c -0.36483,-0.0983 -0.61986,-0.27263 -1.02218,-0.69886 l -0.53606,-0.56792 0.0335,-1.72559 c 0.0259,-1.34051 0.0774,-1.85978 0.23077,-2.32693 0.21875,-0.66654 0.34649,-0.72615 0.92019,-0.42948 0.28606,0.14792 0.44188,0.15582 1.11906,0.0567 1.81629,-0.26581 1.85624,-0.26484 2.0629,0.0505 0.15164,0.23142 0.18494,0.49324 0.17663,1.38872 -0.0188,2.02209 -0.13486,3.97329 -0.24912,4.18679 -0.10238,0.1913 -0.21286,0.21038 -1.18122,0.20398 -0.58755,-0.004 -1.28703,-0.066 -1.55439,-0.138 z"
         id="path1471" /></g></g></svg>
