<?xml version="1.0" encoding="UTF-8" standalone="no"?>
<!-- Created with Inkscape (http://www.inkscape.org/) -->

<svg
   width="72.648537mm"
   height="41.218067mm"
   viewBox="0 0 72.648537 41.218067"
   version="1.1"
   id="svg5"
   xml:space="preserve"
   xmlns="http://www.w3.org/2000/svg"
   xmlns:svg="http://www.w3.org/2000/svg"><defs
     id="defs2" /><g
     id="layer1"
     transform="translate(94.97062,-121.92888)"><path
       style="fill:#000000;stroke-width:0.211422"
       d="m -58.804582,159.98057 c -0.44156,-0.1575 -1.20268,-0.55478 -1.691376,-0.88283 -0.488696,-0.32804 -1.363928,-0.8199 -1.944961,-1.09302 -0.581032,-0.27312 -1.199442,-0.62383 -1.374243,-0.77936 -0.174801,-0.15554 -0.84109,-0.56691 -1.480642,-0.91419 -1.743749,-0.94683 -2.785838,-2.34631 -3.5907,-4.82213 -0.369167,-1.13559 -1.040032,-2.67622 -1.490809,-3.42362 -1.616166,-2.67964 -1.309068,-5.47611 0.852094,-7.75928 0.659485,-0.69673 0.824724,-1.05076 0.938058,-2.0098 0.187125,-1.58348 0.856181,-2.67951 2.17808,-3.5681 0.60866,-0.40915 1.027248,-0.79618 0.930195,-0.86005 -0.09705,-0.0639 -0.28919,-0.33021 -0.426972,-0.59184 -0.137781,-0.26164 -0.37395,-0.4757 -0.524821,-0.4757 -0.292419,0 -1.532513,-1.43911 -2.001448,-2.32264 -0.631231,-1.18932 -0.953456,-2.51668 -0.969483,-3.99364 -0.01284,-1.18335 0.05954,-1.59962 0.300209,-1.72664 2.769624,-1.46159 7.339627,-1.75548 9.302571,-0.59824 0.174423,0.10282 0.459841,0.23916 0.634265,0.30293 1.131178,0.41363 1.86718,1.10484 2.417114,2.26998 0.09341,0.19791 0.146492,0.19791 0.239902,0 0.536518,-1.13674 1.173177,-1.76506 2.205691,-2.17683 0.290705,-0.11594 0.671265,-0.29455 0.845689,-0.39692 1.935069,-1.13569 6.421869,-0.84386 9.302568,0.60505 0.235836,0.11862 0.316931,0.53238 0.316341,1.61402 -7.98e-4,1.46362 -0.605623,3.88586 -0.970284,3.88586 -0.105465,0 -0.191745,0.1271 -0.191745,0.28244 0,0.41085 -1.486656,2.25463 -1.817931,2.25463 -0.154776,0 -0.394141,0.21406 -0.531923,0.4757 -0.137782,0.26163 -0.333104,0.52993 -0.434051,0.59621 -0.10095,0.0663 0.293815,0.42984 0.877246,0.80789 1.291263,0.8367 2.042712,2.05221 2.236205,3.61717 0.117582,0.95098 0.289218,1.31689 0.942115,2.00852 2.194215,2.32434 2.478116,5.05973 0.811876,7.82239 -0.471714,0.78212 -1.13192,2.29942 -1.467127,3.3718 -0.967775,3.09606 -1.722593,3.85797 -6.399499,6.45954 -0.731653,0.40699 -1.703921,0.9857 -2.160599,1.28601 -0.45668,0.30033 -1.153728,0.65711 -1.548996,0.79283 -0.958999,0.32933 -3.315443,0.29756 -4.312609,-0.0582 z m 3.551324,-1.78726 c 1.149881,-0.53238 2.062758,-1.53451 1.973349,-2.16628 -0.0882,-0.62317 -1.335016,-0.99304 -3.347591,-0.99304 -1.93238,0 -3.259828,0.37393 -3.340781,0.94107 -0.137356,0.96229 1.971606,2.60979 3.340781,2.60979 0.290705,0 0.909114,-0.17619 1.374242,-0.39154 z m -6.731273,-3.94834 c 0.467775,-0.46778 0.52455,-0.66248 0.407186,-1.39643 -0.25678,-1.60581 -1.32872,-3.19459 -2.82331,-4.18456 -1.19103,-0.78891 -1.827341,-0.81671 -2.296708,-0.10036 -0.457834,0.69875 -0.616173,2.38187 -0.31105,3.3064 0.265567,0.80467 1.476788,2.0826 2.452587,2.58765 0.968625,0.50132 1.937409,0.42119 2.571295,-0.21269 z m 13.361056,0.13604 c 1.108183,-0.56535 2.302636,-1.94906 2.474832,-2.86695 0.177254,-0.94483 -0.03834,-2.38344 -0.451869,-3.01532 -0.426912,-0.65233 -1.101866,-0.59779 -2.282805,0.18442 -1.502745,0.99539 -2.533015,2.53115 -2.794339,4.16538 -0.117365,0.73395 -0.06059,0.92865 0.407186,1.39643 0.660717,0.66072 1.530874,0.70543 2.646995,0.13604 z m -6.841205,-0.88618 c 1.171201,-0.32439 1.944561,-0.92343 2.436141,-1.887 1.573466,-3.08425 -2.03323,-6.19883 -5.404795,-4.66735 -2.355201,1.06981 -2.924893,3.7516 -1.16979,5.5067 1.125506,1.12551 2.552825,1.48683 4.138444,1.04765 z m -12.175802,-6.57699 c 1.07119,-1.71524 1.159438,-5.87173 0.124664,-5.87173 -0.459409,0 -1.711317,1.18551 -2.00782,1.90133 -0.859923,2.07605 0.834782,5.64912 1.883156,3.9704 z m 23.636256,-0.48048 c 0.565073,-0.99987 0.649245,-2.76878 0.175353,-3.68519 -0.361032,-0.69816 -1.494837,-1.70606 -1.919176,-1.70606 -0.570653,0 -0.789679,0.86361 -0.677016,2.66944 0.133592,2.14135 0.790215,3.734 1.497345,3.63187 0.261321,-0.0378 0.643182,-0.41405 0.923494,-0.91006 z m -15.710534,-0.53697 c 1.267451,-0.85785 1.895909,-1.95197 1.981421,-3.44956 0.09596,-1.68073 -0.368944,-2.59766 -1.650234,-3.25467 -1.192833,-0.61165 -1.775698,-0.59924 -3.111191,0.0662 -2.66888,1.32996 -3.410795,4.87606 -1.39117,6.64931 0.722496,0.63436 0.852185,0.6712 2.086536,0.5926 0.950652,-0.0605 1.52957,-0.22827 2.084638,-0.60395 z m 10.361055,-0.002 c 2.879123,-2.52791 -0.163226,-7.97016 -3.893931,-6.96559 -1.110227,0.29896 -2.047469,1.24089 -2.236311,2.24751 -0.535416,2.854 1.463885,5.3629 4.273605,5.3629 0.949509,0 1.235236,-0.0992 1.856637,-0.64483 z m -15.730677,-6.82968 c 1.207983,-0.80981 4.017019,-3.5059 4.017019,-3.85551 0,-0.65845 -2.18749,-0.57772 -3.594175,0.13265 -1.381387,0.6976 -2.325642,2.17951 -2.325642,3.64986 0,1.16991 0.252132,1.17958 1.902798,0.0731 z m 18.816562,-0.0503 c 0,-1.49284 -0.935897,-2.9708 -2.325644,-3.67261 -1.406683,-0.71037 -3.594174,-0.7911 -3.594174,-0.13265 0,0.34748 2.802106,3.03988 4.017019,3.85975 1.612778,1.08837 1.902799,1.08007 1.902799,-0.0545 z m -7.994212,-1.23216 c 0.885467,-0.42019 1.333811,-1.22276 1.015418,-1.81767 -0.339022,-0.63348 -1.499814,-1.41515 -2.494581,-1.67985 -1.307252,-0.34785 -2.935521,0.14986 -3.832518,1.17148 -0.668804,0.76173 -0.713356,1.26407 -0.172095,1.94046 0.687011,0.85854 3.996686,1.09124 5.483776,0.38558 z m -5.960737,-4.73261 c 0.447472,-0.21718 0.82044,-0.59501 0.945674,-0.95799 0.192069,-0.55671 0.121982,-0.68086 -0.984569,-1.74423 -0.655247,-0.62968 -1.13975,-1.14487 -1.076673,-1.14487 0.06307,0 0.764609,0.35105 1.55896,0.78009 1.413015,0.76321 1.453604,0.77165 1.875233,0.39008 0.549452,-0.49725 0.56199,-1.56454 0.03061,-2.60569 -0.477797,-0.93615 -1.290466,-1.74932 -1.29208,-1.29287 -5.7e-4,0.1644 -0.233204,0.0138 -0.520952,-0.33723 -0.285946,-0.34884 -0.523323,-0.51314 -0.527505,-0.36511 -0.0057,0.20113 -0.135837,0.18513 -0.515046,-0.0633 -0.368474,-0.24142 -0.530467,-0.26341 -0.591516,-0.0802 -0.06408,0.19223 -0.204972,0.18752 -0.592418,-0.0198 -0.366315,-0.19604 -0.530564,-0.20539 -0.587876,-0.0335 -0.05574,0.16725 -0.26115,0.14468 -0.686728,-0.0754 -0.743563,-0.38451 -0.855849,-0.39088 -0.721563,-0.0409 0.06653,0.17336 -0.07097,0.27432 -0.376625,0.27653 -1.461868,0.0107 -2.080161,0.10389 -1.961358,0.29611 0.07623,0.12334 -0.138754,0.21142 -0.516079,0.21142 -0.712937,0 -0.747085,0.0517 -0.427883,0.64816 0.150867,0.2819 0.150867,0.40895 0,0.40895 -0.329494,0 -0.263181,0.44628 0.131041,0.88189 0.326862,0.36118 0.324435,0.38664 -0.03685,0.38664 -0.345446,0 -0.333718,0.0565 0.109797,0.52855 0.318424,0.33895 0.394268,0.52856 0.211422,0.52856 -0.195474,0 -0.149045,0.14958 0.147658,0.4757 0.238034,0.26163 0.389854,0.59325 0.33738,0.73694 -0.05247,0.14369 0.149915,0.37302 0.449754,0.50965 0.299839,0.1366 0.545163,0.37401 0.545163,0.52754 0,0.15355 0.234677,0.33808 0.521505,0.41007 0.286827,0.072 0.500892,0.24029 0.475699,0.37401 -0.0252,0.13373 0.271046,0.27352 0.65831,0.31064 0.537393,0.0516 0.674108,0.14573 0.577389,0.39777 -0.109043,0.28415 0.02872,0.31003 0.98726,0.1854 0.612694,-0.0797 1.446486,-0.30624 1.852872,-0.50348 z m 9.93793,0.28904 c 0,-0.18815 0.261505,-0.32895 0.687122,-0.36998 0.377916,-0.0365 0.656867,-0.153 0.619888,-0.25902 -0.03698,-0.10603 0.231366,-0.31831 0.59632,-0.47177 0.364955,-0.15344 0.612258,-0.362 0.549562,-0.46344 -0.0627,-0.10143 0.128348,-0.29486 0.424542,-0.42981 0.296192,-0.13496 0.495599,-0.36293 0.443124,-0.50662 -0.05247,-0.14368 0.09934,-0.47531 0.337379,-0.73694 0.296704,-0.32612 0.343133,-0.47569 0.147659,-0.47569 -0.182846,0 -0.107003,-0.18962 0.211423,-0.52856 0.443514,-0.4721 0.455242,-0.52857 0.109797,-0.52857 -0.361291,0 -0.363719,-0.0255 -0.03685,-0.38662 0.394221,-0.43562 0.460535,-0.88191 0.131042,-0.88191 -0.150867,0 -0.150867,-0.12704 0,-0.40893 0.319202,-0.59644 0.285053,-0.64818 -0.427885,-0.64818 -0.377325,0 -0.592312,-0.088 -0.516077,-0.21142 0.118802,-0.19223 -0.49949,-0.28557 -1.961361,-0.2961 -0.305654,-0.002 -0.44315,-0.10314 -0.376622,-0.27652 0.134287,-0.34995 0.022,-0.34358 -0.721564,0.0409 -0.425579,0.22008 -0.630983,0.24263 -0.686728,0.0754 -0.05731,-0.17194 -0.22156,-0.16259 -0.587876,0.0335 -0.387446,0.20735 -0.528339,0.21207 -0.592417,0.0198 -0.06105,-0.18315 -0.223042,-0.16116 -0.591517,0.0803 -0.37921,0.24846 -0.509365,0.26447 -0.515046,0.0633 -0.0042,-0.14803 -0.24156,0.0163 -0.527506,0.36512 -0.287748,0.35105 -0.520369,0.50162 -0.52095,0.33723 -0.0017,-0.45647 -0.814284,0.35671 -1.292081,1.29286 -0.512161,1.0035 -0.508921,1.89063 0.0092,2.52207 l 0.409555,0.49912 1.753891,-0.93952 1.753887,-0.93952 -1.3507,1.26956 c -1.187391,1.11607 -1.333532,1.33798 -1.20869,1.8354 0.175981,0.70116 0.856565,1.16293 2.063521,1.40004 1.382428,0.27158 1.665954,0.25874 1.665954,-0.0755 z"
       id="path704" /></g></svg>
