<?xml version="1.0" encoding="UTF-8" standalone="no"?>
<!-- Created with Inkscape (http://www.inkscape.org/) -->

<svg
   width="72.648537mm"
   height="41.218067mm"
   viewBox="0 0 72.648537 41.218067"
   version="1.1"
   id="svg5"
   xml:space="preserve"
   xmlns="http://www.w3.org/2000/svg"
   xmlns:svg="http://www.w3.org/2000/svg"><defs
     id="defs2" /><g
     id="layer1"
     transform="translate(94.97062,-121.92888)"><g
       id="g1457"
       transform="translate(56.03777,28.804462)"><path
         style="fill:#000000;stroke-width:0.228274"
         d="m -122.09673,133.06057 c -0.58756,-0.46217 -0.59627,-0.51271 -0.65853,-3.82358 l -0.0631,-3.35522 -3.29924,-0.0636 c -3.64343,-0.0702 -4.11966,-0.23852 -4.11966,-1.45554 0,-0.68196 0.69194,-1.56254 1.22781,-1.56254 0.29527,0 0.6078,-0.58662 0.93838,-1.76128 0.13085,-0.46496 -0.0478,-1.41161 -0.45381,-2.40472 -0.15445,-0.37779 0.57032,-0.39948 13.35369,-0.39948 12.7859,0 13.50781,0.0216 13.34705,0.39948 -0.85022,1.99847 -0.57078,3.76731 0.67756,4.2889 0.79219,0.33099 1.04146,0.70737 1.04146,1.57244 0,1.10277 -0.55724,1.27222 -4.18397,1.27222 h -3.34906 v 3.32034 c 0,3.22095 -0.0168,3.33713 -0.56031,3.88066 -0.68247,0.68248 -1.02665,0.70006 -1.79975,0.0919 -0.58756,-0.46218 -0.59626,-0.51272 -0.65853,-3.82359 l -0.0631,-3.35521 -4.50842,-0.0619 -4.5084,-0.0619 v 3.32517 c 0,3.22606 -0.0167,3.34187 -0.56031,3.88548 -0.68247,0.68248 -1.02665,0.70006 -1.79975,0.0919 z m -8.1229,-18.20708 c -1.57296,-0.84693 -1.61555,-1.0938 -1.61555,-9.36417 0,-8.205186 0.048,-8.50989 1.47795,-9.393691 0.72576,-0.448544 1.10563,-0.460149 15.06434,-0.460149 16.184027,0 15.553697,-0.06531 16.353077,1.694743 0.38204,0.841138 0.42306,1.615557 0.4276,8.071297 0.005,7.72529 -0.0418,8.07558 -1.23936,9.18069 l -0.618397,0.57069 -14.53416,0.0606 c -13.75194,0.0574 -14.57623,0.038 -15.3155,-0.36005 z"
         id="path1611" /></g></g></svg>
