<?xml version="1.0" encoding="UTF-8" standalone="no"?>
<!-- Created with Inkscape (http://www.inkscape.org/) -->

<svg
   width="72.648537mm"
   height="41.218067mm"
   viewBox="0 0 72.648537 41.218067"
   version="1.1"
   id="svg5"
   xml:space="preserve"
   inkscape:version="1.2.2 (732a01da63, 2022-12-09)"
   sodipodi:docname="icon1.svg"
   xmlns:inkscape="http://www.inkscape.org/namespaces/inkscape"
   xmlns:sodipodi="http://sodipodi.sourceforge.net/DTD/sodipodi-0.dtd"
   xmlns="http://www.w3.org/2000/svg"
   xmlns:svg="http://www.w3.org/2000/svg"><sodipodi:namedview
     id="namedview7"
     pagecolor="#ffffff"
     bordercolor="#000000"
     borderopacity="0.25"
     inkscape:showpageshadow="2"
     inkscape:pageopacity="0.0"
     inkscape:pagecheckerboard="0"
     inkscape:deskcolor="#d1d1d1"
     inkscape:document-units="mm"
     showgrid="false"
     inkscape:zoom="1.4289282"
     inkscape:cx="210.6474"
     inkscape:cy="40.589864"
     inkscape:window-width="1920"
     inkscape:window-height="974"
     inkscape:window-x="-11"
     inkscape:window-y="201"
     inkscape:window-maximized="1"
     inkscape:current-layer="layer1" /><defs
     id="defs2" /><g
     inkscape:label="Layer 1"
     inkscape:groupmode="layer"
     id="layer1"
     transform="translate(94.97062,-121.92888)"><path
       style="fill:#000000;stroke-width:0.264583"
       d="m -88.16849,163.02147 c -0.10315,-0.10316 -0.18755,-3.79911 -0.18755,-8.21325 v -8.02569 h -2.61015 c -2.239988,0 -2.709017,-0.0778 -3.30729,-0.54837 -0.682381,-0.53676 -0.69714,-0.61411 -0.69714,-3.6536 0,-3.7033 0.15765,-4.03529 2.01763,-4.24889 l 1.28966,-0.1481 0.14113,-4.63021 c 0.087,-2.8549 0.27069,-4.93455 0.47906,-5.42396 3.0723,-7.21624 12.54463,-8.39633 17.26492,-2.15091 1.45835,1.92955 1.64885,2.74007 1.81143,7.70716 l 0.14721,4.49792 1.12002,0.13229 c 1.99322,0.23543 2.18727,0.60011 2.18727,4.11048 0,2.89327 -0.0348,3.09217 -0.64943,3.70675 -0.60319,0.6032 -0.83838,0.64944 -3.30346,0.64944 h -2.65404 l -0.07,8.13594 -0.07,8.13593 h -0.66146 -0.66146 l -0.07,-8.13593 -0.07,-8.13594 h -5.01943 -5.01944 l -0.07,8.13594 c -0.0685,7.96257 -0.0815,8.13758 -0.61002,8.21324 -0.29703,0.0425 -0.62445,-0.007 -0.72761,-0.11024 z m 17.93641,-20.47228 v -2.24895 h -11.50937 -11.509378 l -0.07857,1.95961 c -0.04322,1.07779 -0.0167,2.12085 0.05892,2.31792 0.113278,0.2952 2.154218,0.34616 11.587948,0.28934 l 11.45045,-0.069 z m -3.3717,-8.6651 c -0.13908,-4.91233 -0.35701,-5.68135 -2.18269,-7.70216 -3.00399,-3.32506 -8.88776,-3.34523 -11.8732,-0.0407 -1.90748,2.11136 -2.1096,2.81205 -2.23354,7.74287 l -0.11139,4.43177 h 8.26315 8.26314 z m 13.12433,27.85793 c -0.30337,-0.21248 -0.69398,-0.73014 -0.86804,-1.15034 -0.33486,-0.80844 -0.30219,-0.90218 2.09236,-6.00394 0.40981,-0.87313 1.24812,-2.65907 1.86291,-3.96875 0.61478,-1.30969 1.73898,-3.69094 2.4982,-5.29167 0.75922,-1.60073 1.59356,-3.36198 1.85408,-3.9139 0.46516,-0.98546 0.46353,-1.01428 -0.091,-1.60455 -0.76231,-0.81145 -0.71259,-1.80209 0.13287,-2.64755 1.3654,-1.36541 1.42941,-1.31993 9.5412,6.77804 8.04672,8.03301 8.0899,8.09246 6.93997,9.55436 -0.68124,0.86607 -1.94153,0.93587 -2.77416,0.15365 l -0.57852,-0.54349 -3.1427,1.49844 c -1.72849,0.82414 -4.03567,1.91569 -5.12708,2.42566 -1.0914,0.50998 -3.05594,1.43049 -4.36562,2.04558 -1.30969,0.61509 -3.3103,1.55405 -4.44579,2.08657 -2.28926,1.07362 -2.72422,1.14535 -3.52867,0.58189 z m 27.35855,-0.0278 c -1.34511,-0.72984 -1.29884,-2.71817 0.0798,-3.43112 0.91402,-0.47266 1.62134,-0.33071 2.37314,0.47626 0.9087,0.97537 0.58141,2.36853 -0.71916,3.06122 -0.72237,0.38474 -0.8423,0.37738 -1.73382,-0.10636 z m 5.40057,-6.28362 c -0.47311,-0.5036 -0.57529,-0.92889 -0.57529,-2.39439 0,-2.06257 -0.40874,-3.03304 -1.64965,-3.91673 -0.75164,-0.53526 -1.27141,-0.63317 -4.00022,-0.75352 -2.88391,-0.12719 -3.1767,-0.18819 -3.63802,-0.75789 -0.65132,-0.80435 -0.63574,-1.64208 0.0467,-2.50963 0.53682,-0.68246 0.61383,-0.69714 3.65703,-0.69714 3.74989,0 5.06766,0.38045 6.83942,1.97463 1.89421,1.70434 2.46832,2.9826 2.64314,5.88491 0.12055,2.00122 0.068,2.55565 -0.29443,3.10886 -0.59898,0.91415 -2.19688,0.94629 -3.02866,0.0609 z M -41.0547,142.18607 c -0.58296,-0.44278 -0.94105,-1.40952 -0.79845,-2.15553 0.0612,-0.32032 1.17434,-1.64083 2.47357,-2.93447 l 2.36224,-2.35206 1.91346,-0.1323 1.91347,-0.13229 0.0771,-1.88714 c 0.0987,-2.41458 0.37798,-2.68962 2.83927,-2.79575 l 1.84612,-0.0796 0.13229,-1.93444 0.13229,-1.93444 1.49809,-1.439 c 1.97416,-1.89629 3.43136,-1.9487 4.17632,-0.15019 0.37516,0.90572 0.15832,1.46328 -1.06829,2.7468 -0.72814,0.76194 -0.76966,0.92854 -0.76966,3.08852 0,3.13094 -0.24749,3.45921 -2.60792,3.45921 -1.0349,0 -1.9175,0.13333 -2.10166,0.3175 -0.18417,0.18417 -0.3175,1.06676 -0.3175,2.10166 0,2.36026 -0.3284,2.60792 -3.45806,2.60792 H -35.094 l -2.05648,1.98438 c -2.13566,2.06078 -2.90495,2.38023 -3.90423,1.62123 z m -21.73281,-2.15196 c -1.02959,-1.02959 -0.68509,-2.76298 0.65984,-3.32007 1.01229,-0.4193 1.90563,-0.0359 2.47299,1.0612 0.37116,0.71774 0.37361,0.88797 0.0225,1.56691 -0.21664,0.41893 -0.58662,0.83565 -0.82218,0.92604 -0.76034,0.29177 -1.92407,0.17501 -2.33317,-0.23408 z m 37.37086,0.13208 c -0.23558,-0.13765 -0.58059,-0.61786 -0.76668,-1.06714 -0.2987,-0.72111 -0.27633,-0.9002 0.19076,-1.52762 1.24017,-1.66587 3.29585,-1.17855 3.46671,0.82181 0.13596,1.59169 -1.4921,2.5902 -2.89079,1.77295 z m -20.98422,-3.63236 c -1.14285,-0.28457 -1.33853,-0.82152 -1.40764,-3.8627 -0.0508,-2.2334 -0.17639,-3.09386 -0.54347,-3.7224 -0.64837,-1.11015 -2.05665,-2.00993 -3.14583,-2.00993 -1.90338,0 -2.88288,-2.17459 -1.54545,-3.43104 0.57679,-0.54187 0.83512,-0.59629 2.23005,-0.4698 2.87772,0.26094 5.41385,2.18145 6.46857,4.89838 0.6495,1.67309 0.6319,7.48196 -0.0244,8.05828 -0.5686,0.49929 -1.35449,0.70786 -2.03181,0.53921 z m -12.29172,-4.23722 c -0.30673,-0.25466 -0.63088,-0.84208 -0.72034,-1.30538 -0.1312,-0.67946 -0.0314,-0.97366 0.51634,-1.52135 0.82162,-0.82162 1.7172,-0.86574 2.65175,-0.13063 0.50562,0.39773 0.69714,0.79222 0.69714,1.43601 0,1.6059 -1.92276,2.53604 -3.14489,1.52135 z m 19.4343,-5.97768 c -0.83122,-0.83122 -0.89717,-2.07238 -0.14983,-2.81972 1.23358,-1.23358 3.67439,-0.0496 3.3404,1.6204 -0.20067,1.00336 -0.71664,1.51933 -1.72001,1.72 -0.62435,0.12487 -0.935,0.0149 -1.47056,-0.52068 z"
       id="path314" /></g></svg>
