<?xml version="1.0" encoding="UTF-8" standalone="no"?>
<!-- Created with Inkscape (http://www.inkscape.org/) -->

<svg
   width="72.648537mm"
   height="41.218067mm"
   viewBox="0 0 72.648537 41.218067"
   version="1.1"
   id="svg5"
   xml:space="preserve"
   xmlns="http://www.w3.org/2000/svg"
   xmlns:svg="http://www.w3.org/2000/svg"><defs
     id="defs2" /><g
     id="layer1"
     transform="translate(94.97062,-121.92888)"><g
       id="g1457"
       transform="translate(56.03777,28.804462)"><path
         style="fill:#000000;stroke-width:0.19744"
         d="m -116.08104,130.7513 v -0.78976 h -14.80801 -14.808 v -1.77696 -1.77696 h 14.808 14.80801 v -2.27056 -2.27056 h -14.80801 -14.808 v -1.77696 -1.77696 h 14.808 14.80801 v -2.27056 -2.27056 h -14.80801 -14.808 v -1.77696 -1.77696 h 14.808 14.80801 v -0.88848 -0.88848 h 7.66775 c 4.21726,0 11.680495,0.0589 16.584965,0.1309 l 8.91722,0.13091 v 11.28843 11.28843 l -8.91722,0.13091 c -4.90447,0.072 -12.367705,0.13091 -16.584965,0.13091 h -7.66775 z m 31.787845,-10.76048 v -10.16816 h -4.54111 -4.54113 v 10.16816 10.16816 h 4.54113 4.54111 z m -5.83527,2.47612 c -0.70804,-0.28676 -1.61954,-1.50954 -1.7644,-2.36695 -0.10859,-0.64274 -0.041,-1.00421 0.32547,-1.74026 0.57637,-1.15768 1.46221,-1.70261 2.76776,-1.70261 2.95463,0 4.03811,4.05617 1.49729,5.60533 -0.67096,0.40908 -2.07083,0.51038 -2.82612,0.20449 z m 2.06591,-1.28217 c 1.10691,-0.5724 1.2481,-2.10228 0.26535,-2.87531 -0.68042,-0.53522 -1.48005,-0.49195 -2.20659,0.11939 -0.8281,0.69679 -0.83989,1.65608 -0.0303,2.46564 0.64237,0.64237 1.14703,0.71667 1.97158,0.29028 z m -28.018485,6.99981 c 0,-0.39119 -0.13163,-0.39488 -14.11697,-0.39488 -13.98533,0 -14.11696,0.004 -14.11696,0.39488 0,0.3912 0.13163,0.39489 14.11696,0.39489 13.98534,0 14.11697,-0.004 14.11697,-0.39489 z m 0,-8.09504 c 0,-0.3912 -0.13163,-0.39488 -14.11697,-0.39488 -13.98533,0 -14.11696,0.004 -14.11696,0.39488 0,0.3912 0.13163,0.39488 14.11696,0.39488 13.98534,0 14.11697,-0.004 14.11697,-0.39488 z m 0,-7.99632 v -0.4936 h -14.11697 -14.11696 v 0.4936 0.4936 h 14.11696 14.11697 z"
         id="path1717" /></g></g></svg>
