<?xml version="1.0" encoding="UTF-8" standalone="no"?>
<!-- Created with Inkscape (http://www.inkscape.org/) -->

<svg
   width="72.648537mm"
   height="41.218067mm"
   viewBox="0 0 72.648537 41.218067"
   version="1.1"
   id="svg5"
   xml:space="preserve"
   xmlns="http://www.w3.org/2000/svg"
   xmlns:svg="http://www.w3.org/2000/svg"><defs
     id="defs2" /><g
     id="layer1"
     transform="translate(94.97062,-121.92888)"><path
       style="fill:#000000;stroke-width:0.264583"
       d="m -81.838662,161.83724 c 0.04851,-0.12335 5.071682,-8.7577 11.162611,-19.18744 l 11.074419,-18.96317 11.290903,18.85671 c 6.209996,10.37119 11.383614,19.00554 11.496927,19.18744 0.164213,0.26362 -4.392393,0.33073 -22.453516,0.33073 -12.462746,0 -22.619851,-0.10092 -22.571344,-0.22427 z m 21.91632,-7.97781 v -6.87917 l -5.88698,0.004 -5.886979,0.004 -3.902604,6.7039 c -2.146433,3.68717 -3.902605,6.78108 -3.902605,6.87537 0,0.0943 4.405313,0.17145 9.789584,0.17145 h 9.789584 z m -8.466667,0.79375 c 0,-3.1162 0.063,-3.70417 0.396875,-3.70417 0.333879,0 0.396875,0.58797 0.396875,3.70417 0,3.1162 -0.063,3.70417 -0.396875,3.70417 -0.333879,0 -0.396875,-0.58797 -0.396875,-3.70417 z m 28.992476,5.35781 c -0.214423,-0.40018 -2.039331,-3.46604 -4.05535,-6.81302 l -3.665488,-6.08542 -5.741027,-0.0713 -5.741027,-0.0713 v 6.88433 6.88433 h 9.796378 9.796378 z m -13.911225,-5.35781 v -3.70417 h 1.310468 c 1.653736,0 2.565209,0.41067 2.873351,1.29461 0.268549,0.77037 -0.03425,1.89046 -0.596051,2.20486 -0.283318,0.15855 -0.259167,0.38738 0.125871,1.19264 0.262051,0.54804 0.557596,1.3944 0.656767,1.88081 0.154379,0.75719 0.112397,0.87131 -0.291899,0.79345 -0.316204,-0.0609 -0.581464,-0.51922 -0.80291,-1.38728 -0.364924,-1.4305 -0.672298,-1.73568 -1.754243,-1.7417 -0.713357,-0.004 -0.727604,0.027 -0.727604,1.58345 0,1.23472 -0.08819,1.5875 -0.396875,1.5875 -0.333878,0 -0.396875,-0.58797 -0.396875,-3.70417 z m 3.023809,-0.68036 c 0.493461,-0.49346 0.543502,-1.46733 0.09827,-1.91256 -0.174625,-0.17462 -0.769937,-0.3175 -1.322917,-0.3175 h -1.005416 v 1.32292 1.32292 h 0.907142 c 0.49893,0 1.094243,-0.1871 1.322917,-0.41578 z m 1.618742,-9.43995 c -0.373507,-0.61847 -2.966088,-4.96207 -5.761286,-9.65246 -2.795199,-4.69039 -5.165247,-8.44086 -5.266775,-8.33438 -0.233056,0.24443 -11.076991,18.84145 -11.076991,18.99671 0,0.063 5.126436,0.11461 11.39208,0.11461 h 11.392081 z m -11.988957,-4.63057 c -1.240951,-3.76007 -1.290865,-4.03454 -0.7337,-4.03454 0.262501,0 0.708973,1.02908 1.391148,3.20649 l 1.004586,3.20648 1.043913,-3.20648 c 0.820986,-2.52174 1.145426,-3.20649 1.51927,-3.20649 0.261445,0 0.475355,0.034 0.475355,0.0754 0,0.0415 -0.578622,1.6786 -1.28583,3.63802 -1.73822,4.81598 -1.925452,4.83359 -3.414742,0.32107 z"
       id="path438" /></g></svg>
