<?xml version="1.0" encoding="UTF-8" standalone="no"?>
<!-- Created with Inkscape (http://www.inkscape.org/) -->

<svg
   width="72.648537mm"
   height="41.218067mm"
   viewBox="0 0 72.648537 41.218067"
   version="1.1"
   id="svg5"
   xml:space="preserve"
   xmlns="http://www.w3.org/2000/svg"
   xmlns:svg="http://www.w3.org/2000/svg"><defs
     id="defs2" /><g
     id="layer1"
     transform="translate(94.97062,-121.92888)"><g
       id="g1457"
       transform="translate(56.03777,28.804462)"><path
         style="fill:#000000;stroke-width:0.217415"
         d="m -123.51316,131.19952 c -0.29729,-0.29728 -0.54052,-0.78956 -0.54052,-1.09393 v -0.55342 h -2.39854 c -2.78562,0 -3.68556,-0.27933 -4.33575,-1.34576 -0.41231,-0.67627 -0.43882,-1.08499 -0.43959,-6.77551 l -8.1e-4,-6.05581 1.08886,-5.57587 c 1.07864,-5.5236 1.46197,-6.79924 2.14538,-7.13925 0.1942,-0.0966 2.60336,-0.22467 5.35365,-0.28453 l 5.00054,-0.10884 0.10871,-2.57461 c 0.10013,-2.371549 0.14891,-2.607105 0.61847,-2.986619 1.67155,-1.35099 5.46024,-0.940021 6.28076,0.681293 0.16094,0.318024 0.27034,1.427074 0.27225,2.760146 l 0.003,2.2285 4.83748,8.1e-4 c 4.42547,7.3e-4 4.89716,0.0372 5.538236,0.42807 0.38542,0.23501 0.75396,0.65045 0.81898,0.9232 0.065,0.27277 0.60573,2.93632 1.20161,5.919 l 1.08342,5.42308 v 6.27377 c 0,6.9733 -0.0431,7.21807 -1.38213,7.85349 -0.55949,0.2655 -1.38717,0.35544 -3.270806,0.35544 h -2.52176 v 0.61069 c 0,0.33588 -0.1388,0.8006 -0.30846,1.03271 -0.2956,0.40446 -0.68965,0.42459 -9.46056,0.48325 l -9.15212,0.0612 z m 18.15716,-1.32123 c 0,-0.28438 -1.09915,-0.32612 -8.58788,-0.32612 -7.48874,0 -8.58789,0.0417 -8.58789,0.32612 0,0.28438 1.09915,0.32612 8.58789,0.32612 7.48873,0 8.58788,-0.0417 8.58788,-0.32612 z m 6.836236,-2.33123 c 0.28174,-0.40224 0.33845,-1.29484 0.33845,-5.32667 v -4.84345 h -15.762566 -15.76258 v 5.06576 c 0,3.65016 0.0729,5.13868 0.2609,5.32667 0.19793,0.19792 3.92038,0.26089 15.42412,0.26089 h 15.163226 z m 0.22712,-11.9638 c 0.0509,-0.14947 -0.4231,-2.75875 -1.05319,-5.79839 -0.947966,-4.57308 -1.222526,-5.57769 -1.591346,-5.82257 -0.33159,-0.22017 -1.16313,-0.28031 -3.24757,-0.23487 l -2.80186,0.0611 0.81995,0.5098 c 2.01206,1.25095 2.68259,3.46044 1.5651,5.15718 -2.37081,3.59979 -10.89585,4.74438 -16.11705,2.16392 -3.97639,-1.96524 -4.41126,-4.90782 -1.08174,-7.31972 l 0.85573,-0.61988 h -2.92618 c -2.03483,0 -3.04213,0.0848 -3.30687,0.27837 -0.28164,0.20595 -0.6602,1.65507 -1.45475,5.56868 -0.59073,2.90966 -1.07404,5.52382 -1.07404,5.80924 v 0.51894 h 15.66069 c 12.33431,0 15.680316,-0.0577 15.753126,-0.27177 z m -12.477856,-4.29998 c 2.69631,-0.51924 5.01826,-1.94603 5.30709,-3.26113 0.28287,-1.28787 -1.0719,-2.6442 -3.4628,-3.46679 -0.70454,-0.2424 -1.31459,-0.44073 -1.35566,-0.44073 -0.0411,0 -0.0747,0.62843 -0.0747,1.39651 0,1.18176 -0.0857,1.49841 -0.55751,2.05909 -0.88146,1.04755 -3.03072,1.42042 -4.92175,0.85385 -1.30489,-0.39095 -1.69543,-1.04075 -1.69543,-2.82101 v -1.49673 l -0.59789,0.13832 c -1.28232,0.29666 -3.14023,1.27367 -3.75626,1.97529 -2.81042,3.2009 4.20074,6.3948 11.11489,5.06333 z m -1.53401,-4.34695 c 0.39579,-0.21181 0.42607,-0.47431 0.42607,-3.69358 v -3.465547 l -0.70661,0.157188 c -0.90241,0.200749 -2.03438,0.200339 -2.94046,-8.22e-4 l -0.71196,-0.158272 0.0597,3.528623 0.0597,3.52864 0.76095,0.27087 c 0.81513,0.29016 2.35601,0.20593 3.05257,-0.16685 z m -0.25862,-8.495762 c 0.37658,-0.131271 0.68469,-0.323505 0.68469,-0.427174 0,-0.621348 -2.54352,-0.921245 -3.76349,-0.443748 -1.66229,0.650617 1.30385,1.489673 3.0788,0.870922 z"
         id="path1491" /></g></g></svg>
