<?xml version="1.0" encoding="UTF-8" standalone="no"?>
<!-- Created with Inkscape (http://www.inkscape.org/) -->

<svg
   width="72.648537mm"
   height="41.218067mm"
   viewBox="0 0 72.648537 41.218067"
   version="1.1"
   id="svg5"
   xml:space="preserve"
   xmlns="http://www.w3.org/2000/svg"
   xmlns:svg="http://www.w3.org/2000/svg"><defs
     id="defs2" /><g
     id="layer1"
     transform="translate(94.97062,-121.92888)"><path
       style="fill:#000000;stroke-width:0.209323"
       d="m -68.767717,160.22366 c -0.836233,-0.24225 -1.869834,-1.41031 -2.154249,-2.43447 -0.310643,-1.11863 -0.301252,-28.54585 0.01016,-29.66752 0.293772,-1.05813 1.336166,-2.10053 2.3943,-2.3943 0.524503,-0.14561 3.396949,-0.23016 7.845269,-0.2309 l 7.017797,-7.9e-4 5.279961,5.29485 5.279962,5.29486 -0.005,10.35208 c -0.0028,5.69364 -0.09069,10.72157 -0.195427,11.17317 -0.262004,1.12968 -0.811388,1.81633 -1.897091,2.37109 l -0.921725,0.47098 -10.997463,-0.0189 c -6.048605,-0.0104 -11.294029,-0.10479 -11.656497,-0.2098 z m 22.114698,-12.8498 v -9.51997 l -4.343464,-0.0566 -4.343465,-0.0566 -0.05657,-4.34346 -0.05658,-4.34347 h -6.066136 -6.066135 v 13.92001 13.92003 h 10.466177 10.466178 z m -17.373856,4.39155 v -1.77925 h 6.907677 6.907678 v 1.77925 1.77925 h -6.907678 -6.907677 z m 0,-7.01234 v -1.67458 h 6.907677 6.907678 v 1.67458 1.67459 h -6.907678 -6.907677 z"
       id="path514" /></g></svg>
