<?xml version="1.0" encoding="UTF-8" standalone="no"?>
<!-- Created with Inkscape (http://www.inkscape.org/) -->

<svg
   width="72.648537mm"
   height="41.218067mm"
   viewBox="0 0 72.648537 41.218067"
   version="1.1"
   id="svg5"
   xml:space="preserve"
   xmlns="http://www.w3.org/2000/svg"
   xmlns:svg="http://www.w3.org/2000/svg"><defs
     id="defs2" /><g
     id="layer1"
     transform="translate(94.97062,-121.92888)"><path
       style="fill:#000000;stroke-width:0.17871"
       d="m -68.037623,160.3053 c -0.967337,-0.65732 -1.228637,-1.37922 -1.228637,-3.39434 0,-1.37138 0.05491,-1.7421 0.270337,-1.82476 0.572091,-0.21953 0.801922,0.27825 0.801922,1.73682 0,0.76966 0.09607,1.61025 0.2135,1.86797 0.444425,0.97541 0.469538,0.97791 9.799129,0.97791 h 8.600698 l 0.522381,-0.52238 0.522384,-0.52238 v -16.37383 -16.37384 l -0.426808,-0.4268 c -0.234744,-0.23475 -0.697156,-0.4761 -1.027582,-0.53635 -0.330426,-0.0603 -4.318408,-0.0857 -8.862182,-0.0565 l -8.261405,0.053 -0.49538,0.49545 -0.495381,0.49546 -0.08935,13.89069 -0.08936,13.8907 h -0.446769 -0.446776 l -0.04579,-13.95603 -0.04579,-13.95601 0.403176,-0.59241 c 0.221754,-0.32583 0.630165,-0.76065 0.907581,-0.96626 0.494057,-0.36619 0.688259,-0.37477 9.47163,-0.41826 l 8.967226,-0.0444 0.714839,0.40256 c 0.469179,0.26423 0.853026,0.67635 1.116938,1.19922 l 0.402097,0.79665 v 16.01936 c 0,11.5041 -0.05735,16.19058 -0.203465,16.62683 -0.111906,0.33411 -0.37327,0.79607 -0.580807,1.02655 -0.842291,0.93545 -0.682967,0.92125 -10.334742,0.92125 h -8.992237 z m 21.352566,0.16552 c -0.219631,-0.57235 0.278191,-0.80192 1.738941,-0.80192 1.202731,0 1.427749,-0.049 1.586508,-0.34567 0.116918,-0.21847 0.184997,-2.53954 0.184997,-6.30725 v -5.96157 l -0.580807,-0.17099 -0.580808,-0.17099 -0.04971,-2.56692 c -0.05314,-2.74397 0.02865,-3.06244 0.786428,-3.06244 0.399317,0 0.424894,-0.0634 0.424894,-1.05314 0,-0.80774 0.06774,-1.07914 0.290717,-1.1647 0.507806,-0.19486 0.781543,0.23751 0.781543,1.23447 0,0.90002 0.02209,0.94311 0.53613,1.04591 l 0.536129,0.10723 v 2.77894 2.77895 l -0.536129,0.10722 -0.53613,0.10723 v 6.3356 6.33562 l -0.522384,0.52238 c -0.504878,0.50488 -0.579915,0.52238 -2.239482,0.52238 -1.367878,0 -1.738199,-0.055 -1.82084,-0.27034 z m 4.582706,-16.43904 v -1.69774 h -0.625485 -0.625485 v 1.69774 1.69775 h 0.625485 0.625485 z m 0.641522,16.41867 c -0.184443,-0.48065 0.228533,-0.76083 1.204806,-0.81739 l 0.923676,-0.0535 0.04624,-9.50428 0.04624,-9.50428 -0.493012,-0.0567 -0.493013,-0.0567 v -2.77 -2.77001 l 0.491452,-0.0565 c 0.460831,-0.053 0.491453,-0.11058 0.491453,-0.92362 0,-1.13475 0.129979,-1.43242 0.625485,-1.43242 0.495505,0 0.625485,0.29767 0.625485,1.43242 0,0.81304 0.03062,0.87059 0.491452,0.92362 l 0.491452,0.0565 0.04935,2.72886 0.04935,2.72886 -0.540804,0.10816 -0.540804,0.10816 v 9.27632 c 0,9.88309 -0.02827,10.23143 -0.866672,10.68013 -0.198439,0.1062 -0.840001,0.1931 -1.425688,0.1931 -0.818585,0 -1.090692,-0.0673 -1.176447,-0.29072 z m 3.4306,-22.80755 0.05115,-1.74242 h -0.631956 -0.631956 v 1.66796 c 0,0.91738 0.0573,1.72526 0.127345,1.7953 0.07004,0.07 0.331401,0.10355 0.580807,0.0745 0.446818,-0.0521 0.454212,-0.0784 0.504611,-1.79531 z m -14.425046,19.21132 c -1.173826,-1.08944 -0.531611,-2.90404 1.027782,-2.90404 0.860887,0 1.568678,0.51662 1.733039,1.26495 0.359942,1.6388 -1.543525,2.76889 -2.760821,1.63909 z m 1.388385,-0.73779 c 0.131461,-0.0833 0.211879,-0.34346 0.178708,-0.57807 -0.04512,-0.31906 -0.172291,-0.42656 -0.504641,-0.42656 -0.505303,0 -0.696222,0.48827 -0.352741,0.90213 0.247136,0.29779 0.346838,0.31284 0.678674,0.1025 z m -8.919079,-1.32686 c -1.795264,-0.50931 -3.116517,-1.61522 -4.053223,-3.3926 -0.440623,-0.83607 -0.490997,-1.11493 -0.491119,-2.71873 -1.28e-4,-1.62579 0.04762,-1.88139 0.528633,-2.83167 0.601897,-1.18904 1.884799,-2.43196 3.109843,-3.01293 0.667517,-0.31657 1.16006,-0.39487 2.526879,-0.40173 1.478692,-0.007 1.829643,0.0533 2.720027,0.47062 1.698419,0.79604 3.511811,2.97174 3.065967,3.67854 -0.325872,0.51662 -0.629192,0.35825 -1.392762,-0.72717 -0.889587,-1.26456 -1.948068,-2.00243 -3.264553,-2.27573 -2.330265,-0.48377 -4.50499,0.55599 -5.688846,2.71986 -1.093461,1.99867 -0.532833,4.85719 1.237054,6.30748 2.154461,1.76542 5.25928,1.59716 7.085431,-0.38398 0.874957,-0.94922 1.410972,-2.05744 1.416348,-2.92832 0.0054,-0.86471 0.406284,-1.40084 0.842327,-1.12634 0.25462,0.1603 0.314572,0.40156 0.282489,1.13691 -0.08472,1.94224 -1.66127,4.1835 -3.582698,5.09325 -1.213791,0.5747 -3.098935,0.74514 -4.341797,0.39254 z m -1.316317,-3.46545 c -0.163165,-0.4252 5.012272,-5.62707 5.526795,-5.55503 0.870351,0.12187 0.499649,0.70902 -2.077867,3.29114 -2.558712,2.56329 -3.178036,2.96982 -3.448928,2.26389 z m -4.898811,-10.93536 c -0.132535,-0.084 -0.212176,-0.30392 -0.176979,-0.48872 0.09046,-0.47493 2.010269,-0.60043 2.185843,-0.1429 0.06309,0.16444 0.0231,0.4094 -0.08895,0.54438 -0.224367,0.27034 -1.53688,0.32998 -1.919915,0.0872 z m 3.394115,-0.0789 c -0.115831,-0.13957 -0.158971,-0.38829 -0.09587,-0.55273 0.09207,-0.23994 0.313221,-0.28851 1.12002,-0.24603 0.939056,0.0494 1.005289,0.0824 1.005289,0.4997 0,0.41108 -0.07265,0.45101 -0.909418,0.49979 -0.621079,0.0362 -0.976198,-0.0274 -1.120021,-0.20073 z m 3.434392,-0.031 c -0.223415,-0.58222 0.07256,-0.80419 1.07226,-0.80419 1.026411,0 1.409324,0.32018 0.988836,0.82684 -0.28927,0.34855 -1.925555,0.33056 -2.061096,-0.0226 z m 3.528373,0.0226 c -0.112022,-0.13498 -0.152048,-0.37995 -0.08895,-0.54438 0.175574,-0.45754 2.095382,-0.33204 2.185836,0.14289 0.03519,0.18481 -0.04444,0.40473 -0.176971,0.48872 -0.383042,0.24274 -1.695555,0.18311 -1.919916,-0.0872 z m 3.441315,-0.0226 c -0.223705,-0.58297 0.07243,-0.80419 1.076488,-0.80419 1.021896,0 1.265714,0.19032 0.97297,0.75951 -0.213702,0.41551 -1.893114,0.45212 -2.049458,0.0447 z m -14.316743,-2.70964 c -0.171325,-0.0691 -0.223388,-1.26919 -0.223388,-5.14935 0,-4.44849 0.03411,-5.07232 0.282678,-5.1677 0.155479,-0.0596 2.874372,-0.10848 6.041985,-0.10848 4.735788,0 5.820949,0.0458 6.1062,0.2576 0.277714,0.20623 0.307386,0.32206 0.148786,0.58081 -0.183368,0.29915 -0.618973,0.32672 -5.852748,0.37039 l -5.654642,0.0472 v 4.01845 4.01847 h 1.787098 1.787104 v -0.46712 c 0,-0.25692 0.173912,-0.77657 0.386479,-1.15477 l 0.386486,-0.68766 -0.741024,-0.80392 c -0.438954,-0.4762 -0.70014,-0.91046 -0.640735,-1.06528 0.21223,-0.55305 0.637243,-0.45542 1.490073,0.3423 0.778606,0.7283 0.908344,0.78858 1.342273,0.62359 0.772317,-0.29363 1.892432,-0.21177 2.744167,0.20055 0.902394,0.43684 1.823254,1.70514 1.823254,2.51117 v 0.50114 h 2.323234 2.323227 v -4.02097 -4.02098 h -0.976618 c -0.782003,0 -1.013408,-0.0688 -1.161262,-0.34501 -0.319598,-0.59717 0.204232,-0.90596 1.536908,-0.90596 1.985028,0 1.851941,-0.37674 1.851941,5.24249 0,3.55144 -0.05814,4.93064 -0.214452,5.08695 -0.161005,0.161 -2.265472,0.21093 -8.444045,0.20034 -4.526273,-0.008 -8.330117,-0.0546 -8.452979,-0.10425 z m 10.141786,-1.32899 c 0,-0.10801 -0.134939,-0.48075 -0.299868,-0.82831 -0.555467,-1.17056 -2.234055,-1.57549 -3.390346,-0.81786 -0.376463,0.24667 -0.95624,1.24476 -0.95624,1.64617 0,0.13263 0.754196,0.19638 2.323227,0.19638 1.569032,0 2.323227,-0.0638 2.323227,-0.19638 z"
       id="path476" /></g></svg>
