<?xml version="1.0" encoding="UTF-8" standalone="no"?>
<!-- Created with Inkscape (http://www.inkscape.org/) -->

<svg
   width="72.648537mm"
   height="41.218067mm"
   viewBox="0 0 72.648537 41.218067"
   version="1.1"
   id="svg5"
   xml:space="preserve"
   inkscape:version="1.2.2 (732a01da63, 2022-12-09)"
   sodipodi:docname="icon39.svg"
   xmlns:inkscape="http://www.inkscape.org/namespaces/inkscape"
   xmlns:sodipodi="http://sodipodi.sourceforge.net/DTD/sodipodi-0.dtd"
   xmlns="http://www.w3.org/2000/svg"
   xmlns:svg="http://www.w3.org/2000/svg"><sodipodi:namedview
     id="namedview7"
     pagecolor="#ffffff"
     bordercolor="#000000"
     borderopacity="0.25"
     inkscape:showpageshadow="2"
     inkscape:pageopacity="0.0"
     inkscape:pagecheckerboard="0"
     inkscape:deskcolor="#d1d1d1"
     inkscape:document-units="mm"
     showgrid="false"
     inkscape:zoom="2.8578563"
     inkscape:cx="100.42492"
     inkscape:cy="45.138728"
     inkscape:window-width="1920"
     inkscape:window-height="974"
     inkscape:window-x="-11"
     inkscape:window-y="201"
     inkscape:window-maximized="1"
     inkscape:current-layer="g1457" /><defs
     id="defs2" /><g
     inkscape:label="Layer 1"
     inkscape:groupmode="layer"
     id="layer1"
     transform="translate(94.97062,-121.92888)"><g
       id="g1457"
       transform="translate(56.03777,28.804462)"><path
         style="fill:#000000;stroke-width:0.229255"
         d="m -138.89004,130.33722 c -0.41294,-0.25176 -0.8256,-0.68983 -0.91702,-0.97348 -0.0914,-0.28364 -0.11465,-7.66888 -0.0516,-16.41163 l 0.11462,-15.895904 0.64324,-0.553167 0.64324,-0.553177 h 23.59691 23.596916 l 0.748697,0.668886 0.748697,0.668886 0.06195,15.604436 c 0.06915,17.40583 0.10766,16.9299 -1.421907,17.569 -0.687263,0.28715 -4.140176,0.33551 -23.908123,0.33477 -22.68793,-8.7e-4 -23.1184,-0.009 -23.85565,-0.45862 z m 7.61476,-4.35393 c 0.62295,-0.62295 0.64953,-2.2787 0.0472,-2.94422 -1.23533,-1.36501 -3.81626,-0.38228 -3.81626,1.4531 0,0.62628 0.6874,1.73274 1.2156,1.95664 0.7339,0.31111 2.00931,0.0786 2.55341,-0.46552 z m 5.87735,0.0166 c 1.29542,-1.29541 0.61469,-3.31654 -1.21514,-3.60785 -0.75743,-0.12058 -0.94474,-0.0448 -1.6621,0.67259 -0.86345,0.86344 -0.9952,1.5198 -0.48856,2.43388 0.71398,1.28818 2.3372,1.52998 3.3658,0.50138 z m 5.96064,0 c 1.28538,-1.28537 0.61478,-3.31661 -1.18976,-3.60372 -0.69304,-0.11027 -0.94571,-0.0248 -1.54804,0.52357 -0.39589,0.36043 -0.7836,0.98847 -0.86156,1.39564 -0.12168,0.63541 -0.0274,0.85468 0.6654,1.54748 1.04425,1.04424 1.98291,1.08809 2.93396,0.13703 z m 5.96064,0 c 0.49614,-0.49613 0.67013,-0.88763 0.67013,-1.50779 0,-1.09205 -1.01813,-2.17793 -2.04204,-2.17793 -1.08447,0 -2.17625,1.09263 -2.17625,2.17793 0,0.67953 0.15503,0.99901 0.73723,1.5192 0.98271,0.87806 1.9253,0.87423 2.81093,-0.0114 z m 5.92542,0.0766 c 0.57051,-0.48006 0.70536,-0.76831 0.70536,-1.50779 0,-1.18308 -0.98058,-2.25454 -2.0633,-2.25454 -1.0459,0 -2.0633,1.07392 -2.0633,2.17792 0,0.62017 0.174,1.01167 0.67014,1.50779 0.85431,0.85432 1.7957,0.88054 2.7511,0.0766 z m 6.02047,-0.0652 c 0.5822,-0.52019 0.73723,-0.83967 0.73723,-1.5192 0,-1.0853 -1.09178,-2.17793 -2.17625,-2.17793 -1.02391,0 -2.04204,1.08588 -2.04204,2.17793 0,0.62016 0.17399,1.01166 0.67012,1.50779 0.88565,0.88564 1.82823,0.88947 2.81094,0.0114 z m 5.655908,0.33204 c 0.667098,-0.34498 1.179524,-1.21365 1.179524,-1.99958 0,-0.25886 -0.363817,-0.83447 -0.808484,-1.27913 -0.71737,-0.71737 -0.90467,-0.79317 -1.6621,-0.67259 -1.82983,0.29131 -2.51056,2.31244 -1.21514,3.60785 0.74524,0.74524 1.52308,0.85183 2.5062,0.34345 z m -35.353958,-6.92578 c 2.06615,-0.98046 1.89113,-3.89858 -0.28845,-4.80927 -1.68388,-0.70357 -3.69349,0.89021 -3.45157,2.73736 0.13205,1.00817 0.66021,1.69094 1.64395,2.12518 0.9042,0.39912 1.15622,0.39271 2.09607,-0.0533 z m 7.35779,-0.2129 c 0.29528,-0.19347 0.70869,-0.71206 0.91868,-1.15241 0.34233,-0.7179 0.34733,-0.89825 0.0483,-1.74475 -0.40693,-1.15178 -1.25999,-1.82392 -2.35424,-1.85494 -1.60684,-0.0456 -2.67905,1.03506 -2.67905,2.70004 0,2.10155 2.25448,3.23926 4.06636,2.05206 z m 6.62679,0.2129 c 1.49492,-0.70939 1.93489,-2.69064 0.87675,-3.94816 -0.81037,-0.96308 -1.90825,-1.29603 -2.89584,-0.87822 -1.216,0.51445 -1.68177,1.193 -1.68177,2.45011 0,1.23026 0.45772,1.9232 1.6048,2.42954 0.90419,0.39912 1.15622,0.39271 2.09606,-0.0533 z m 7.36789,-0.21951 c 0.30082,-0.19711 0.70605,-0.73722 0.9005,-1.20025 0.68177,-1.62349 -0.5314,-3.49516 -2.2979,-3.54524 -1.60684,-0.0456 -2.67906,1.03506 -2.67906,2.70004 0,2.10775 2.25472,3.2391 4.07646,2.04545 z m 6.61669,0.21951 c 1.49493,-0.70939 1.9349,-2.69064 0.87675,-3.94816 -0.81037,-0.96308 -1.90825,-1.29603 -2.89584,-0.87822 -1.216,0.51445 -1.68176,1.193 -1.68176,2.45011 0,1.23026 0.45771,1.9232 1.60479,2.42954 0.9042,0.39912 1.15623,0.39271 2.09606,-0.0533 z m 7.367888,-0.21951 c 0.300825,-0.19711 0.706051,-0.73722 0.900497,-1.20025 0.681771,-1.62349 -0.531385,-3.49516 -2.297887,-3.54524 -1.59696,-0.0452 -2.69864,1.00834 -2.720638,2.60191 -0.0301,2.17838 2.251988,3.36627 4.118028,2.14358 z m -33.722638,-7.67347 c 0.79062,-0.29872 1.83638,-1.26344 2.27063,-2.09465 0.17788,-0.34048 0.32341,-1.09356 0.32341,-1.67349 0,-3.02616 -3.23914,-4.96153 -5.83923,-3.48888 -1.67301,0.94756 -2.49145,2.82195 -1.97901,4.53232 0.6851,2.28667 3.07899,3.53521 5.2242,2.7247 z m 10.775,0 c 2.06169,-0.77896 3.14238,-3.30374 2.2784,-5.32297 -1.38354,-3.23357 -6.0091,-3.23357 -7.39264,0 -1.35973,3.17789 1.87655,6.54625 5.11424,5.32297 z m 11.65807,-0.54943 c 0.91502,-0.69793 1.69794,-2.15215 1.70596,-3.16876 0.003,-0.35079 -0.15365,-1.01759 -0.3476,-1.48177 -1.12494,-2.69239 -4.30894,-3.43004 -6.37356,-1.4766 -0.93137,0.88122 -1.29775,1.70232 -1.29775,2.90842 0,1.20566 0.36593,2.02616 1.29775,2.90987 0.91505,0.86779 1.61724,1.10904 2.98425,1.02526 0.87338,-0.0536 1.41005,-0.24284 2.03095,-0.71642 z m 10.301288,0.27018 c 2.992132,-1.69468 2.720821,-5.95755 -0.45639,-7.17093 -2.847398,-1.08744 -5.560438,0.95695 -5.338668,4.02291 0.11454,1.58363 0.7229,2.51847 2.0742,3.18735 1.263158,0.62525 2.571908,0.61142 3.720858,-0.0393 z"
         id="path1531" /></g></g></svg>
