<?xml version="1.0" encoding="UTF-8" standalone="no"?>
<!-- Created with Inkscape (http://www.inkscape.org/) -->

<svg
   width="72.648537mm"
   height="41.218067mm"
   viewBox="0 0 72.648537 41.218067"
   version="1.1"
   id="svg5"
   xml:space="preserve"
   xmlns="http://www.w3.org/2000/svg"
   xmlns:svg="http://www.w3.org/2000/svg"><defs
     id="defs2" /><g
     id="layer1"
     transform="translate(94.97062,-121.92888)"><path
       style="fill:#000000;stroke-width:0.304898"
       d="m -67.528226,158.07793 c -3.689267,-1.85276 -7.03415,-3.66338 -7.433074,-4.02358 -1.412006,-1.27495 -1.56142,-2.15665 -1.56142,-9.21403 v -6.59686 l -2.439185,-2.7174 c -2.583327,-2.87796 -3.005592,-3.96242 -1.905614,-4.89401 0.973432,-0.82441 14.90135,-6.96013 15.805288,-6.96277 0.728594,-0.002 1.389963,0.52788 3.686466,2.95426 l 2.798583,2.95685 3.190277,-2.95426 c 2.151992,-1.99278 3.424247,-2.95483 3.909178,-2.956 0.794189,-0.002 14.732129,6.21652 15.582682,6.95226 1.139828,0.98597 0.694814,2.08535 -2.058062,5.08435 l -2.591635,2.82333 v 7.04876 7.04875 l -0.838469,0.90876 c -0.693613,0.75176 -14.106426,7.9429 -14.814986,7.9429 -0.110685,0 -0.201247,-4.05395 -0.201247,-9.00876 v -9.00877 l 3.735002,-1.73784 c 2.054251,-0.95581 4.749724,-2.22357 5.989937,-2.81724 l 2.254935,-1.0794 -6.789099,-3.114 c -3.734002,-1.7127 -6.974253,-3.11401 -7.200554,-3.11401 -0.591121,0 -13.704178,6.03661 -13.633322,6.27612 0.03253,0.10994 2.639412,1.40343 5.793063,2.87434 l 5.733913,2.6744 0.08076,9.02758 c 0.04441,4.96516 -0.02418,9.02024 -0.152449,9.01125 -0.128265,-0.009 -3.251702,-1.53221 -6.94097,-3.38498 z"
       id="path362" /></g></svg>
