<?xml version="1.0" encoding="UTF-8" standalone="no"?>
<!-- Created with Inkscape (http://www.inkscape.org/) -->

<svg
   width="72.648537mm"
   height="41.218067mm"
   viewBox="0 0 72.648537 41.218067"
   version="1.1"
   id="svg5"
   xml:space="preserve"
   xmlns="http://www.w3.org/2000/svg"
   xmlns:svg="http://www.w3.org/2000/svg"><defs
     id="defs2" /><g
     id="layer1"
     transform="translate(94.97062,-121.92888)"><path
       style="fill:#000000;stroke-width:0.226349"
       d="m -76.428651,161.456 c -0.05976,-0.15632 -0.08225,-6.70124 -0.04998,-14.54425 l 0.05867,-14.26004 2.376673,-0.0636 2.376672,-0.0636 0.0032,-1.8603 c 0.0036,-2.10865 0.280628,-2.80965 1.638233,-4.14509 1.169326,-1.15024 3.034921,-1.97643 4.696399,-2.0798 2.522483,-0.15696 4.18535,1.29975 4.971953,4.35555 0.190997,0.74199 0.347266,1.88691 0.347266,2.54427 v 1.19519 l 10.921376,0.0588 10.921376,0.0588 v 14.48638 14.48639 l -19.076576,0.0578 c -15.141411,0.0459 -19.098991,-6.9e-4 -19.185229,-0.22636 z m 37.356406,-2.43454 v -1.69763 h -18.221156 -18.221156 l -0.06824,1.44744 c -0.03753,0.79608 -0.01503,1.58609 0.05,1.75555 0.09865,0.25707 3.129556,0.29853 18.289395,0.2502 l 18.171155,-0.0579 z m -34.291989,0.9054 c 0,-0.3018 0.150899,-0.45271 0.452699,-0.45271 0.301799,0 0.452699,0.15091 0.452699,0.45271 0,0.3018 -0.1509,0.4527 -0.452699,0.4527 -0.3018,0 -0.452699,-0.1509 -0.452699,-0.4527 z m 1.358098,0 c 0,-0.3018 0.1509,-0.45271 0.4527,-0.45271 0.301799,0 0.452699,0.15091 0.452699,0.45271 0,0.3018 -0.1509,0.4527 -0.452699,0.4527 -0.3018,0 -0.4527,-0.1509 -0.4527,-0.4527 z m 1.584448,0 c 0,-0.3018 0.1509,-0.45271 0.4527,-0.45271 0.3018,0 0.4527,0.15091 0.4527,0.45271 0,0.3018 -0.1509,0.4527 -0.4527,0.4527 -0.3018,0 -0.4527,-0.1509 -0.4527,-0.4527 z m 1.584449,0 c 0,-0.3018 0.1509,-0.45271 0.452699,-0.45271 0.3018,0 0.4527,0.15091 0.4527,0.45271 0,0.3018 -0.1509,0.4527 -0.4527,0.4527 -0.301799,0 -0.452699,-0.1509 -0.452699,-0.4527 z m 1.358099,0 c 0,-0.3018 0.150899,-0.45271 0.452698,-0.45271 0.3018,0 0.4527,0.15091 0.4527,0.45271 0,0.3018 -0.1509,0.4527 -0.4527,0.4527 -0.301799,0 -0.452698,-0.1509 -0.452698,-0.4527 z m 1.584448,0 c 0,-0.3018 0.150899,-0.45271 0.452699,-0.45271 0.3018,0 0.4527,0.15091 0.4527,0.45271 0,0.3018 -0.1509,0.4527 -0.4527,0.4527 -0.3018,0 -0.452699,-0.1509 -0.452699,-0.4527 z m 1.584448,0 c 0,-0.3018 0.1509,-0.45271 0.452699,-0.45271 0.3018,0 0.4527,0.15091 0.4527,0.45271 0,0.3018 -0.1509,0.4527 -0.4527,0.4527 -0.301799,0 -0.452699,-0.1509 -0.452699,-0.4527 z m 1.584448,0 c 0,-0.3018 0.1509,-0.45271 0.4527,-0.45271 0.301799,0 0.452699,0.15091 0.452699,0.45271 0,0.3018 -0.1509,0.4527 -0.452699,0.4527 -0.3018,0 -0.4527,-0.1509 -0.4527,-0.4527 z m 1.358099,0 c 0,-0.3018 0.1509,-0.45271 0.4527,-0.45271 0.301799,0 0.452699,0.15091 0.452699,0.45271 0,0.3018 -0.1509,0.4527 -0.452699,0.4527 -0.3018,0 -0.4527,-0.1509 -0.4527,-0.4527 z m 1.584448,0 c 0,-0.3018 0.1509,-0.45271 0.4527,-0.45271 0.301799,0 0.4527,0.15091 0.4527,0.45271 0,0.3018 -0.150901,0.4527 -0.4527,0.4527 -0.3018,0 -0.4527,-0.1509 -0.4527,-0.4527 z m 1.584449,0 c 0,-0.3018 0.150901,-0.45271 0.452699,-0.45271 0.301799,0 0.4527,0.15091 0.4527,0.45271 0,0.3018 -0.150901,0.4527 -0.4527,0.4527 -0.301798,0 -0.452699,-0.1509 -0.452699,-0.4527 z m 1.584448,0 c 0,-0.3018 0.150901,-0.45271 0.4527,-0.45271 0.301799,0 0.4527,0.15091 0.4527,0.45271 0,0.3018 -0.150901,0.4527 -0.4527,0.4527 -0.301799,0 -0.4527,-0.1509 -0.4527,-0.4527 z m 1.358098,0 c 0,-0.3018 0.150901,-0.45271 0.4527,-0.45271 0.301799,0 0.4527,0.15091 0.4527,0.45271 0,0.3018 -0.150901,0.4527 -0.4527,0.4527 -0.301799,0 -0.4527,-0.1509 -0.4527,-0.4527 z m 1.584449,0 c 0,-0.3018 0.1509,-0.45271 0.452699,-0.45271 0.301799,0 0.4527,0.15091 0.4527,0.45271 0,0.3018 -0.150901,0.4527 -0.4527,0.4527 -0.301799,0 -0.452699,-0.1509 -0.452699,-0.4527 z m 1.584448,0 c 0,-0.3018 0.150901,-0.45271 0.4527,-0.45271 0.301799,0 0.452699,0.15091 0.452699,0.45271 0,0.3018 -0.1509,0.4527 -0.452699,0.4527 -0.301799,0 -0.4527,-0.1509 -0.4527,-0.4527 z m 1.584448,0 c 0,-0.3018 0.150901,-0.45271 0.4527,-0.45271 0.301799,0 0.4527,0.15091 0.4527,0.45271 0,0.3018 -0.150901,0.4527 -0.4527,0.4527 -0.301799,0 -0.4527,-0.1509 -0.4527,-0.4527 z m 1.358099,0 c 0,-0.3018 0.150901,-0.45271 0.4527,-0.45271 0.301799,0 0.4527,0.15091 0.4527,0.45271 0,0.3018 -0.150901,0.4527 -0.4527,0.4527 -0.301799,0 -0.4527,-0.1509 -0.4527,-0.4527 z m 1.584449,0 c 0,-0.3018 0.150901,-0.45271 0.452699,-0.45271 0.301799,0 0.4527,0.15091 0.4527,0.45271 0,0.3018 -0.150901,0.4527 -0.4527,0.4527 -0.301798,0 -0.452699,-0.1509 -0.452699,-0.4527 z m 1.584448,0 c 0,-0.3018 0.150901,-0.45271 0.4527,-0.45271 0.301799,0 0.452699,0.15091 0.452699,0.45271 0,0.3018 -0.1509,0.4527 -0.452699,0.4527 -0.301799,0 -0.4527,-0.1509 -0.4527,-0.4527 z m 1.358098,0 c 0,-0.3018 0.150901,-0.45271 0.4527,-0.45271 0.301799,0 0.4527,0.15091 0.4527,0.45271 0,0.3018 -0.150901,0.4527 -0.4527,0.4527 -0.301799,0 -0.4527,-0.1509 -0.4527,-0.4527 z m 1.584449,0 c 0,-0.3018 0.1509,-0.45271 0.452699,-0.45271 0.301799,0 0.4527,0.15091 0.4527,0.45271 0,0.3018 -0.150901,0.4527 -0.4527,0.4527 -0.301799,0 -0.452699,-0.1509 -0.452699,-0.4527 z m 1.358099,0 c 0,-0.3018 0.1509,-0.45271 0.452699,-0.45271 0.301799,0 0.4527,0.15091 0.4527,0.45271 0,0.3018 -0.150901,0.4527 -0.4527,0.4527 -0.301799,0 -0.452699,-0.1509 -0.452699,-0.4527 z m -31.688967,-1.58445 c 0,-0.3018 0.150899,-0.4527 0.452699,-0.4527 0.301799,0 0.452699,0.1509 0.452699,0.4527 0,0.30179 -0.1509,0.4527 -0.452699,0.4527 -0.3018,0 -0.452699,-0.15091 -0.452699,-0.4527 z m 1.358098,0 c 0,-0.3018 0.1509,-0.4527 0.4527,-0.4527 0.301799,0 0.452699,0.1509 0.452699,0.4527 0,0.30179 -0.1509,0.4527 -0.452699,0.4527 -0.3018,0 -0.4527,-0.15091 -0.4527,-0.4527 z m 1.584448,0 c 0,-0.3018 0.1509,-0.4527 0.4527,-0.4527 0.3018,0 0.4527,0.1509 0.4527,0.4527 0,0.30179 -0.1509,0.4527 -0.4527,0.4527 -0.3018,0 -0.4527,-0.15091 -0.4527,-0.4527 z m 1.584449,0 c 0,-0.3018 0.1509,-0.4527 0.452699,-0.4527 0.3018,0 0.4527,0.1509 0.4527,0.4527 0,0.30179 -0.1509,0.4527 -0.4527,0.4527 -0.301799,0 -0.452699,-0.15091 -0.452699,-0.4527 z m 1.358099,0 c 0,-0.3018 0.150899,-0.4527 0.452698,-0.4527 0.3018,0 0.4527,0.1509 0.4527,0.4527 0,0.30179 -0.1509,0.4527 -0.4527,0.4527 -0.301799,0 -0.452698,-0.15091 -0.452698,-0.4527 z m 1.584448,0 c 0,-0.3018 0.150899,-0.4527 0.452699,-0.4527 0.3018,0 0.4527,0.1509 0.4527,0.4527 0,0.30179 -0.1509,0.4527 -0.4527,0.4527 -0.3018,0 -0.452699,-0.15091 -0.452699,-0.4527 z m 1.584448,0 c 0,-0.3018 0.1509,-0.4527 0.452699,-0.4527 0.3018,0 0.4527,0.1509 0.4527,0.4527 0,0.30179 -0.1509,0.4527 -0.4527,0.4527 -0.301799,0 -0.452699,-0.15091 -0.452699,-0.4527 z m 1.584448,0 c 0,-0.3018 0.1509,-0.4527 0.4527,-0.4527 0.301799,0 0.452699,0.1509 0.452699,0.4527 0,0.30179 -0.1509,0.4527 -0.452699,0.4527 -0.3018,0 -0.4527,-0.15091 -0.4527,-0.4527 z m 1.358099,0 c 0,-0.3018 0.1509,-0.4527 0.4527,-0.4527 0.301799,0 0.452699,0.1509 0.452699,0.4527 0,0.30179 -0.1509,0.4527 -0.452699,0.4527 -0.3018,0 -0.4527,-0.15091 -0.4527,-0.4527 z m 1.584448,0 c 0,-0.3018 0.1509,-0.4527 0.4527,-0.4527 0.301799,0 0.4527,0.1509 0.4527,0.4527 0,0.30179 -0.150901,0.4527 -0.4527,0.4527 -0.3018,0 -0.4527,-0.15091 -0.4527,-0.4527 z m 1.584449,0 c 0,-0.3018 0.150901,-0.4527 0.452699,-0.4527 0.301799,0 0.4527,0.1509 0.4527,0.4527 0,0.30179 -0.150901,0.4527 -0.4527,0.4527 -0.301798,0 -0.452699,-0.15091 -0.452699,-0.4527 z m 1.584448,0 c 0,-0.3018 0.150901,-0.4527 0.4527,-0.4527 0.301799,0 0.4527,0.1509 0.4527,0.4527 0,0.30179 -0.150901,0.4527 -0.4527,0.4527 -0.301799,0 -0.4527,-0.15091 -0.4527,-0.4527 z m 1.358098,0 c 0,-0.3018 0.150901,-0.4527 0.4527,-0.4527 0.301799,0 0.4527,0.1509 0.4527,0.4527 0,0.30179 -0.150901,0.4527 -0.4527,0.4527 -0.301799,0 -0.4527,-0.15091 -0.4527,-0.4527 z m 1.584449,0 c 0,-0.3018 0.1509,-0.4527 0.452699,-0.4527 0.301799,0 0.4527,0.1509 0.4527,0.4527 0,0.30179 -0.150901,0.4527 -0.4527,0.4527 -0.301799,0 -0.452699,-0.15091 -0.452699,-0.4527 z m 1.584448,0 c 0,-0.3018 0.150901,-0.4527 0.4527,-0.4527 0.301799,0 0.452699,0.1509 0.452699,0.4527 0,0.30179 -0.1509,0.4527 -0.452699,0.4527 -0.301799,0 -0.4527,-0.15091 -0.4527,-0.4527 z m 1.584448,0 c 0,-0.3018 0.150901,-0.4527 0.4527,-0.4527 0.301799,0 0.4527,0.1509 0.4527,0.4527 0,0.30179 -0.150901,0.4527 -0.4527,0.4527 -0.301799,0 -0.4527,-0.15091 -0.4527,-0.4527 z m 1.358099,0 c 0,-0.3018 0.150901,-0.4527 0.4527,-0.4527 0.301799,0 0.4527,0.1509 0.4527,0.4527 0,0.30179 -0.150901,0.4527 -0.4527,0.4527 -0.301799,0 -0.4527,-0.15091 -0.4527,-0.4527 z m 1.584449,0 c 0,-0.3018 0.150901,-0.4527 0.452699,-0.4527 0.301799,0 0.4527,0.1509 0.4527,0.4527 0,0.30179 -0.150901,0.4527 -0.4527,0.4527 -0.301798,0 -0.452699,-0.15091 -0.452699,-0.4527 z m 1.584448,0 c 0,-0.3018 0.150901,-0.4527 0.4527,-0.4527 0.301799,0 0.452699,0.1509 0.452699,0.4527 0,0.30179 -0.1509,0.4527 -0.452699,0.4527 -0.301799,0 -0.4527,-0.15091 -0.4527,-0.4527 z m 1.358098,0 c 0,-0.3018 0.150901,-0.4527 0.4527,-0.4527 0.301799,0 0.4527,0.1509 0.4527,0.4527 0,0.30179 -0.150901,0.4527 -0.4527,0.4527 -0.301799,0 -0.4527,-0.15091 -0.4527,-0.4527 z m 1.584449,0 c 0,-0.3018 0.1509,-0.4527 0.452699,-0.4527 0.301799,0 0.4527,0.1509 0.4527,0.4527 0,0.30179 -0.150901,0.4527 -0.4527,0.4527 -0.301799,0 -0.452699,-0.15091 -0.452699,-0.4527 z m 1.358099,0 c 0,-0.3018 0.1509,-0.4527 0.452699,-0.4527 0.301799,0 0.4527,0.1509 0.4527,0.4527 0,0.30179 -0.150901,0.4527 -0.4527,0.4527 -0.301799,0 -0.452699,-0.15091 -0.452699,-0.4527 z m 2.664202,-6.16803 0.06118,-4.69676 h -18.338927 -18.338923 v 4.60245 c 0,2.53134 0.06851,4.67095 0.152237,4.75468 0.08373,0.0838 8.308715,0.12617 18.277744,0.0943 l 18.125505,-0.0579 z m -34.353169,3.67818 c 0,-0.3018 0.150899,-0.4527 0.452699,-0.4527 0.301799,0 0.452699,0.1509 0.452699,0.4527 0,0.3018 -0.1509,0.4527 -0.452699,0.4527 -0.3018,0 -0.452699,-0.1509 -0.452699,-0.4527 z m 1.358098,0 c 0,-0.3018 0.1509,-0.4527 0.4527,-0.4527 0.301799,0 0.452699,0.1509 0.452699,0.4527 0,0.3018 -0.1509,0.4527 -0.452699,0.4527 -0.3018,0 -0.4527,-0.1509 -0.4527,-0.4527 z m 1.584448,0 c 0,-0.3018 0.1509,-0.4527 0.4527,-0.4527 0.3018,0 0.4527,0.1509 0.4527,0.4527 0,0.3018 -0.1509,0.4527 -0.4527,0.4527 -0.3018,0 -0.4527,-0.1509 -0.4527,-0.4527 z m 1.584449,0 c 0,-0.3018 0.1509,-0.4527 0.452699,-0.4527 0.3018,0 0.4527,0.1509 0.4527,0.4527 0,0.3018 -0.1509,0.4527 -0.4527,0.4527 -0.301799,0 -0.452699,-0.1509 -0.452699,-0.4527 z m 1.358099,0 c 0,-0.3018 0.150899,-0.4527 0.452698,-0.4527 0.3018,0 0.4527,0.1509 0.4527,0.4527 0,0.3018 -0.1509,0.4527 -0.4527,0.4527 -0.301799,0 -0.452698,-0.1509 -0.452698,-0.4527 z m 1.584448,0 c 0,-0.3018 0.150899,-0.4527 0.452699,-0.4527 0.3018,0 0.4527,0.1509 0.4527,0.4527 0,0.3018 -0.1509,0.4527 -0.4527,0.4527 -0.3018,0 -0.452699,-0.1509 -0.452699,-0.4527 z m 1.584448,0 c 0,-0.3018 0.1509,-0.4527 0.452699,-0.4527 0.3018,0 0.4527,0.1509 0.4527,0.4527 0,0.3018 -0.1509,0.4527 -0.4527,0.4527 -0.301799,0 -0.452699,-0.1509 -0.452699,-0.4527 z m 1.584448,0 c 0,-0.3018 0.1509,-0.4527 0.4527,-0.4527 0.301799,0 0.452699,0.1509 0.452699,0.4527 0,0.3018 -0.1509,0.4527 -0.452699,0.4527 -0.3018,0 -0.4527,-0.1509 -0.4527,-0.4527 z m 1.358099,0 c 0,-0.3018 0.1509,-0.4527 0.4527,-0.4527 0.301799,0 0.452699,0.1509 0.452699,0.4527 0,0.3018 -0.1509,0.4527 -0.452699,0.4527 -0.3018,0 -0.4527,-0.1509 -0.4527,-0.4527 z m 1.584448,0 c 0,-0.3018 0.1509,-0.4527 0.4527,-0.4527 0.301799,0 0.4527,0.1509 0.4527,0.4527 0,0.3018 -0.150901,0.4527 -0.4527,0.4527 -0.3018,0 -0.4527,-0.1509 -0.4527,-0.4527 z m 1.584449,0 c 0,-0.3018 0.150901,-0.4527 0.452699,-0.4527 0.301799,0 0.4527,0.1509 0.4527,0.4527 0,0.3018 -0.150901,0.4527 -0.4527,0.4527 -0.301798,0 -0.452699,-0.1509 -0.452699,-0.4527 z m 1.584448,0 c 0,-0.3018 0.150901,-0.4527 0.4527,-0.4527 0.301799,0 0.4527,0.1509 0.4527,0.4527 0,0.3018 -0.150901,0.4527 -0.4527,0.4527 -0.301799,0 -0.4527,-0.1509 -0.4527,-0.4527 z m 1.358098,0 c 0,-0.3018 0.150901,-0.4527 0.4527,-0.4527 0.301799,0 0.4527,0.1509 0.4527,0.4527 0,0.3018 -0.150901,0.4527 -0.4527,0.4527 -0.301799,0 -0.4527,-0.1509 -0.4527,-0.4527 z m 1.584449,0 c 0,-0.3018 0.1509,-0.4527 0.452699,-0.4527 0.301799,0 0.4527,0.1509 0.4527,0.4527 0,0.3018 -0.150901,0.4527 -0.4527,0.4527 -0.301799,0 -0.452699,-0.1509 -0.452699,-0.4527 z m 1.584448,0 c 0,-0.3018 0.150901,-0.4527 0.4527,-0.4527 0.301799,0 0.452699,0.1509 0.452699,0.4527 0,0.3018 -0.1509,0.4527 -0.452699,0.4527 -0.301799,0 -0.4527,-0.1509 -0.4527,-0.4527 z m 1.584448,0 c 0,-0.3018 0.150901,-0.4527 0.4527,-0.4527 0.301799,0 0.4527,0.1509 0.4527,0.4527 0,0.3018 -0.150901,0.4527 -0.4527,0.4527 -0.301799,0 -0.4527,-0.1509 -0.4527,-0.4527 z m 1.358099,0 c 0,-0.3018 0.150901,-0.4527 0.4527,-0.4527 0.301799,0 0.4527,0.1509 0.4527,0.4527 0,0.3018 -0.150901,0.4527 -0.4527,0.4527 -0.301799,0 -0.4527,-0.1509 -0.4527,-0.4527 z m 1.584449,0 c 0,-0.3018 0.150901,-0.4527 0.452699,-0.4527 0.301799,0 0.4527,0.1509 0.4527,0.4527 0,0.3018 -0.150901,0.4527 -0.4527,0.4527 -0.301798,0 -0.452699,-0.1509 -0.452699,-0.4527 z m 1.584448,0 c 0,-0.3018 0.150901,-0.4527 0.4527,-0.4527 0.301799,0 0.452699,0.1509 0.452699,0.4527 0,0.3018 -0.1509,0.4527 -0.452699,0.4527 -0.301799,0 -0.4527,-0.1509 -0.4527,-0.4527 z m 1.358098,0 c 0,-0.3018 0.150901,-0.4527 0.4527,-0.4527 0.301799,0 0.4527,0.1509 0.4527,0.4527 0,0.3018 -0.150901,0.4527 -0.4527,0.4527 -0.301799,0 -0.4527,-0.1509 -0.4527,-0.4527 z m 1.584449,0 c 0,-0.3018 0.1509,-0.4527 0.452699,-0.4527 0.301799,0 0.4527,0.1509 0.4527,0.4527 0,0.3018 -0.150901,0.4527 -0.4527,0.4527 -0.301799,0 -0.452699,-0.1509 -0.452699,-0.4527 z m 1.358099,0 c 0,-0.3018 0.1509,-0.4527 0.452699,-0.4527 0.301799,0 0.4527,0.1509 0.4527,0.4527 0,0.3018 -0.150901,0.4527 -0.4527,0.4527 -0.301799,0 -0.452699,-0.1509 -0.452699,-0.4527 z m -31.688967,-1.3581 c 0,-0.3018 0.150899,-0.4527 0.452699,-0.4527 0.301799,0 0.452699,0.1509 0.452699,0.4527 0,0.3018 -0.1509,0.45271 -0.452699,0.45271 -0.3018,0 -0.452699,-0.15091 -0.452699,-0.45271 z m 1.358098,0 c 0,-0.3018 0.1509,-0.4527 0.4527,-0.4527 0.301799,0 0.452699,0.1509 0.452699,0.4527 0,0.3018 -0.1509,0.45271 -0.452699,0.45271 -0.3018,0 -0.4527,-0.15091 -0.4527,-0.45271 z m 1.584448,0 c 0,-0.3018 0.1509,-0.4527 0.4527,-0.4527 0.3018,0 0.4527,0.1509 0.4527,0.4527 0,0.3018 -0.1509,0.45271 -0.4527,0.45271 -0.3018,0 -0.4527,-0.15091 -0.4527,-0.45271 z m 1.584449,0 c 0,-0.3018 0.1509,-0.4527 0.452699,-0.4527 0.3018,0 0.4527,0.1509 0.4527,0.4527 0,0.3018 -0.1509,0.45271 -0.4527,0.45271 -0.301799,0 -0.452699,-0.15091 -0.452699,-0.45271 z m 1.358099,0 c 0,-0.3018 0.150899,-0.4527 0.452698,-0.4527 0.3018,0 0.4527,0.1509 0.4527,0.4527 0,0.3018 -0.1509,0.45271 -0.4527,0.45271 -0.301799,0 -0.452698,-0.15091 -0.452698,-0.45271 z m 1.584448,0 c 0,-0.3018 0.150899,-0.4527 0.452699,-0.4527 0.3018,0 0.4527,0.1509 0.4527,0.4527 0,0.3018 -0.1509,0.45271 -0.4527,0.45271 -0.3018,0 -0.452699,-0.15091 -0.452699,-0.45271 z m 1.584448,0 c 0,-0.3018 0.1509,-0.4527 0.452699,-0.4527 0.3018,0 0.4527,0.1509 0.4527,0.4527 0,0.3018 -0.1509,0.45271 -0.4527,0.45271 -0.301799,0 -0.452699,-0.15091 -0.452699,-0.45271 z m 1.584448,0 c 0,-0.3018 0.1509,-0.4527 0.4527,-0.4527 0.301799,0 0.452699,0.1509 0.452699,0.4527 0,0.3018 -0.1509,0.45271 -0.452699,0.45271 -0.3018,0 -0.4527,-0.15091 -0.4527,-0.45271 z m 1.358099,0 c 0,-0.3018 0.1509,-0.4527 0.4527,-0.4527 0.301799,0 0.452699,0.1509 0.452699,0.4527 0,0.3018 -0.1509,0.45271 -0.452699,0.45271 -0.3018,0 -0.4527,-0.15091 -0.4527,-0.45271 z m 1.584448,0 c 0,-0.3018 0.1509,-0.4527 0.4527,-0.4527 0.301799,0 0.4527,0.1509 0.4527,0.4527 0,0.3018 -0.150901,0.45271 -0.4527,0.45271 -0.3018,0 -0.4527,-0.15091 -0.4527,-0.45271 z m 1.584449,0 c 0,-0.3018 0.150901,-0.4527 0.452699,-0.4527 0.301799,0 0.4527,0.1509 0.4527,0.4527 0,0.3018 -0.150901,0.45271 -0.4527,0.45271 -0.301798,0 -0.452699,-0.15091 -0.452699,-0.45271 z m 1.584448,0 c 0,-0.3018 0.150901,-0.4527 0.4527,-0.4527 0.301799,0 0.4527,0.1509 0.4527,0.4527 0,0.3018 -0.150901,0.45271 -0.4527,0.45271 -0.301799,0 -0.4527,-0.15091 -0.4527,-0.45271 z m 1.358098,0 c 0,-0.3018 0.150901,-0.4527 0.4527,-0.4527 0.301799,0 0.4527,0.1509 0.4527,0.4527 0,0.3018 -0.150901,0.45271 -0.4527,0.45271 -0.301799,0 -0.4527,-0.15091 -0.4527,-0.45271 z m 1.584449,0 c 0,-0.3018 0.1509,-0.4527 0.452699,-0.4527 0.301799,0 0.4527,0.1509 0.4527,0.4527 0,0.3018 -0.150901,0.45271 -0.4527,0.45271 -0.301799,0 -0.452699,-0.15091 -0.452699,-0.45271 z m 1.584448,0 c 0,-0.3018 0.150901,-0.4527 0.4527,-0.4527 0.301799,0 0.452699,0.1509 0.452699,0.4527 0,0.3018 -0.1509,0.45271 -0.452699,0.45271 -0.301799,0 -0.4527,-0.15091 -0.4527,-0.45271 z m 1.584448,0 c 0,-0.3018 0.150901,-0.4527 0.4527,-0.4527 0.301799,0 0.4527,0.1509 0.4527,0.4527 0,0.3018 -0.150901,0.45271 -0.4527,0.45271 -0.301799,0 -0.4527,-0.15091 -0.4527,-0.45271 z m 1.358099,0 c 0,-0.3018 0.150901,-0.4527 0.4527,-0.4527 0.301799,0 0.4527,0.1509 0.4527,0.4527 0,0.3018 -0.150901,0.45271 -0.4527,0.45271 -0.301799,0 -0.4527,-0.15091 -0.4527,-0.45271 z m 1.584449,0 c 0,-0.3018 0.150901,-0.4527 0.452699,-0.4527 0.301799,0 0.4527,0.1509 0.4527,0.4527 0,0.3018 -0.150901,0.45271 -0.4527,0.45271 -0.301798,0 -0.452699,-0.15091 -0.452699,-0.45271 z m 1.584448,0 c 0,-0.3018 0.150901,-0.4527 0.4527,-0.4527 0.301799,0 0.452699,0.1509 0.452699,0.4527 0,0.3018 -0.1509,0.45271 -0.452699,0.45271 -0.301799,0 -0.4527,-0.15091 -0.4527,-0.45271 z m 1.358098,0 c 0,-0.3018 0.150901,-0.4527 0.4527,-0.4527 0.301799,0 0.4527,0.1509 0.4527,0.4527 0,0.3018 -0.150901,0.45271 -0.4527,0.45271 -0.301799,0 -0.4527,-0.15091 -0.4527,-0.45271 z m 1.584449,0 c 0,-0.3018 0.1509,-0.4527 0.452699,-0.4527 0.301799,0 0.4527,0.1509 0.4527,0.4527 0,0.3018 -0.150901,0.45271 -0.4527,0.45271 -0.301799,0 -0.452699,-0.15091 -0.452699,-0.45271 z m 1.358099,0 c 0,-0.3018 0.1509,-0.4527 0.452699,-0.4527 0.301799,0 0.4527,0.1509 0.4527,0.4527 0,0.3018 -0.150901,0.45271 -0.4527,0.45271 -0.301799,0 -0.452699,-0.15091 -0.452699,-0.45271 z m -31.688967,-1.58444 c 0,-0.3018 0.150899,-0.45271 0.452699,-0.45271 0.301799,0 0.452699,0.15091 0.452699,0.45271 0,0.30179 -0.1509,0.45269 -0.452699,0.45269 -0.3018,0 -0.452699,-0.1509 -0.452699,-0.45269 z m 1.358098,0 c 0,-0.3018 0.1509,-0.45271 0.4527,-0.45271 0.301799,0 0.452699,0.15091 0.452699,0.45271 0,0.30179 -0.1509,0.45269 -0.452699,0.45269 -0.3018,0 -0.4527,-0.1509 -0.4527,-0.45269 z m 1.584448,0 c 0,-0.3018 0.1509,-0.45271 0.4527,-0.45271 0.3018,0 0.4527,0.15091 0.4527,0.45271 0,0.30179 -0.1509,0.45269 -0.4527,0.45269 -0.3018,0 -0.4527,-0.1509 -0.4527,-0.45269 z m 1.584449,0 c 0,-0.3018 0.1509,-0.45271 0.452699,-0.45271 0.3018,0 0.4527,0.15091 0.4527,0.45271 0,0.30179 -0.1509,0.45269 -0.4527,0.45269 -0.301799,0 -0.452699,-0.1509 -0.452699,-0.45269 z m 1.358099,0 c 0,-0.3018 0.150899,-0.45271 0.452698,-0.45271 0.3018,0 0.4527,0.15091 0.4527,0.45271 0,0.30179 -0.1509,0.45269 -0.4527,0.45269 -0.301799,0 -0.452698,-0.1509 -0.452698,-0.45269 z m 1.584448,0 c 0,-0.3018 0.150899,-0.45271 0.452699,-0.45271 0.3018,0 0.4527,0.15091 0.4527,0.45271 0,0.30179 -0.1509,0.45269 -0.4527,0.45269 -0.3018,0 -0.452699,-0.1509 -0.452699,-0.45269 z m 1.584448,0 c 0,-0.3018 0.1509,-0.45271 0.452699,-0.45271 0.3018,0 0.4527,0.15091 0.4527,0.45271 0,0.30179 -0.1509,0.45269 -0.4527,0.45269 -0.301799,0 -0.452699,-0.1509 -0.452699,-0.45269 z m 1.584448,0 c 0,-0.3018 0.1509,-0.45271 0.4527,-0.45271 0.301799,0 0.452699,0.15091 0.452699,0.45271 0,0.30179 -0.1509,0.45269 -0.452699,0.45269 -0.3018,0 -0.4527,-0.1509 -0.4527,-0.45269 z m 1.358099,0 c 0,-0.3018 0.1509,-0.45271 0.4527,-0.45271 0.301799,0 0.452699,0.15091 0.452699,0.45271 0,0.30179 -0.1509,0.45269 -0.452699,0.45269 -0.3018,0 -0.4527,-0.1509 -0.4527,-0.45269 z m 1.584448,0 c 0,-0.3018 0.1509,-0.45271 0.4527,-0.45271 0.301799,0 0.4527,0.15091 0.4527,0.45271 0,0.30179 -0.150901,0.45269 -0.4527,0.45269 -0.3018,0 -0.4527,-0.1509 -0.4527,-0.45269 z m 1.584449,0 c 0,-0.3018 0.150901,-0.45271 0.452699,-0.45271 0.301799,0 0.4527,0.15091 0.4527,0.45271 0,0.30179 -0.150901,0.45269 -0.4527,0.45269 -0.301798,0 -0.452699,-0.1509 -0.452699,-0.45269 z m 1.584448,0 c 0,-0.3018 0.150901,-0.45271 0.4527,-0.45271 0.301799,0 0.4527,0.15091 0.4527,0.45271 0,0.30179 -0.150901,0.45269 -0.4527,0.45269 -0.301799,0 -0.4527,-0.1509 -0.4527,-0.45269 z m 1.358098,0 c 0,-0.3018 0.150901,-0.45271 0.4527,-0.45271 0.301799,0 0.4527,0.15091 0.4527,0.45271 0,0.30179 -0.150901,0.45269 -0.4527,0.45269 -0.301799,0 -0.4527,-0.1509 -0.4527,-0.45269 z m 1.584449,0 c 0,-0.3018 0.1509,-0.45271 0.452699,-0.45271 0.301799,0 0.4527,0.15091 0.4527,0.45271 0,0.30179 -0.150901,0.45269 -0.4527,0.45269 -0.301799,0 -0.452699,-0.1509 -0.452699,-0.45269 z m 1.584448,0 c 0,-0.3018 0.150901,-0.45271 0.4527,-0.45271 0.301799,0 0.452699,0.15091 0.452699,0.45271 0,0.30179 -0.1509,0.45269 -0.452699,0.45269 -0.301799,0 -0.4527,-0.1509 -0.4527,-0.45269 z m 1.584448,0 c 0,-0.3018 0.150901,-0.45271 0.4527,-0.45271 0.301799,0 0.4527,0.15091 0.4527,0.45271 0,0.30179 -0.150901,0.45269 -0.4527,0.45269 -0.301799,0 -0.4527,-0.1509 -0.4527,-0.45269 z m 1.358099,0 c 0,-0.3018 0.150901,-0.45271 0.4527,-0.45271 0.301799,0 0.4527,0.15091 0.4527,0.45271 0,0.30179 -0.150901,0.45269 -0.4527,0.45269 -0.301799,0 -0.4527,-0.1509 -0.4527,-0.45269 z m 1.584449,0 c 0,-0.3018 0.150901,-0.45271 0.452699,-0.45271 0.301799,0 0.4527,0.15091 0.4527,0.45271 0,0.30179 -0.150901,0.45269 -0.4527,0.45269 -0.301798,0 -0.452699,-0.1509 -0.452699,-0.45269 z m 1.584448,0 c 0,-0.3018 0.150901,-0.45271 0.4527,-0.45271 0.301799,0 0.452699,0.15091 0.452699,0.45271 0,0.30179 -0.1509,0.45269 -0.452699,0.45269 -0.301799,0 -0.4527,-0.1509 -0.4527,-0.45269 z m 1.358098,0 c 0,-0.3018 0.150901,-0.45271 0.4527,-0.45271 0.301799,0 0.4527,0.15091 0.4527,0.45271 0,0.30179 -0.150901,0.45269 -0.4527,0.45269 -0.301799,0 -0.4527,-0.1509 -0.4527,-0.45269 z m 1.584449,0 c 0,-0.3018 0.1509,-0.45271 0.452699,-0.45271 0.301799,0 0.4527,0.15091 0.4527,0.45271 0,0.30179 -0.150901,0.45269 -0.4527,0.45269 -0.301799,0 -0.452699,-0.1509 -0.452699,-0.45269 z m 1.358099,0 c 0,-0.3018 0.1509,-0.45271 0.452699,-0.45271 0.301799,0 0.4527,0.15091 0.4527,0.45271 0,0.30179 -0.150901,0.45269 -0.4527,0.45269 -0.301799,0 -0.452699,-0.1509 -0.452699,-0.45269 z m -31.688967,-1.58446 c 0,-0.30179 0.150899,-0.45269 0.452699,-0.45269 0.301799,0 0.452699,0.1509 0.452699,0.45269 0,0.3018 -0.1509,0.45271 -0.452699,0.45271 -0.3018,0 -0.452699,-0.15091 -0.452699,-0.45271 z m 1.358098,0 c 0,-0.30179 0.1509,-0.45269 0.4527,-0.45269 0.301799,0 0.452699,0.1509 0.452699,0.45269 0,0.3018 -0.1509,0.45271 -0.452699,0.45271 -0.3018,0 -0.4527,-0.15091 -0.4527,-0.45271 z m 1.584448,0 c 0,-0.30179 0.1509,-0.45269 0.4527,-0.45269 0.3018,0 0.4527,0.1509 0.4527,0.45269 0,0.3018 -0.1509,0.45271 -0.4527,0.45271 -0.3018,0 -0.4527,-0.15091 -0.4527,-0.45271 z m 1.584449,0 c 0,-0.30179 0.1509,-0.45269 0.452699,-0.45269 0.3018,0 0.4527,0.1509 0.4527,0.45269 0,0.3018 -0.1509,0.45271 -0.4527,0.45271 -0.301799,0 -0.452699,-0.15091 -0.452699,-0.45271 z m 1.358099,0 c 0,-0.30179 0.150899,-0.45269 0.452698,-0.45269 0.3018,0 0.4527,0.1509 0.4527,0.45269 0,0.3018 -0.1509,0.45271 -0.4527,0.45271 -0.301799,0 -0.452698,-0.15091 -0.452698,-0.45271 z m 1.584448,0 c 0,-0.30179 0.150899,-0.45269 0.452699,-0.45269 0.3018,0 0.4527,0.1509 0.4527,0.45269 0,0.3018 -0.1509,0.45271 -0.4527,0.45271 -0.3018,0 -0.452699,-0.15091 -0.452699,-0.45271 z m 1.584448,0 c 0,-0.30179 0.1509,-0.45269 0.452699,-0.45269 0.3018,0 0.4527,0.1509 0.4527,0.45269 0,0.3018 -0.1509,0.45271 -0.4527,0.45271 -0.301799,0 -0.452699,-0.15091 -0.452699,-0.45271 z m 1.584448,0 c 0,-0.30179 0.1509,-0.45269 0.4527,-0.45269 0.301799,0 0.452699,0.1509 0.452699,0.45269 0,0.3018 -0.1509,0.45271 -0.452699,0.45271 -0.3018,0 -0.4527,-0.15091 -0.4527,-0.45271 z m 1.358099,0 c 0,-0.30179 0.1509,-0.45269 0.4527,-0.45269 0.301799,0 0.452699,0.1509 0.452699,0.45269 0,0.3018 -0.1509,0.45271 -0.452699,0.45271 -0.3018,0 -0.4527,-0.15091 -0.4527,-0.45271 z m 1.584448,0 c 0,-0.30179 0.1509,-0.45269 0.4527,-0.45269 0.301799,0 0.4527,0.1509 0.4527,0.45269 0,0.3018 -0.150901,0.45271 -0.4527,0.45271 -0.3018,0 -0.4527,-0.15091 -0.4527,-0.45271 z m 1.584449,0 c 0,-0.30179 0.150901,-0.45269 0.452699,-0.45269 0.301799,0 0.4527,0.1509 0.4527,0.45269 0,0.3018 -0.150901,0.45271 -0.4527,0.45271 -0.301798,0 -0.452699,-0.15091 -0.452699,-0.45271 z m 1.584448,0 c 0,-0.30179 0.150901,-0.45269 0.4527,-0.45269 0.301799,0 0.4527,0.1509 0.4527,0.45269 0,0.3018 -0.150901,0.45271 -0.4527,0.45271 -0.301799,0 -0.4527,-0.15091 -0.4527,-0.45271 z m 1.358098,0 c 0,-0.30179 0.150901,-0.45269 0.4527,-0.45269 0.301799,0 0.4527,0.1509 0.4527,0.45269 0,0.3018 -0.150901,0.45271 -0.4527,0.45271 -0.301799,0 -0.4527,-0.15091 -0.4527,-0.45271 z m 1.584449,0 c 0,-0.30179 0.1509,-0.45269 0.452699,-0.45269 0.301799,0 0.4527,0.1509 0.4527,0.45269 0,0.3018 -0.150901,0.45271 -0.4527,0.45271 -0.301799,0 -0.452699,-0.15091 -0.452699,-0.45271 z m 1.584448,0 c 0,-0.30179 0.150901,-0.45269 0.4527,-0.45269 0.301799,0 0.452699,0.1509 0.452699,0.45269 0,0.3018 -0.1509,0.45271 -0.452699,0.45271 -0.301799,0 -0.4527,-0.15091 -0.4527,-0.45271 z m 1.584448,0 c 0,-0.30179 0.150901,-0.45269 0.4527,-0.45269 0.301799,0 0.4527,0.1509 0.4527,0.45269 0,0.3018 -0.150901,0.45271 -0.4527,0.45271 -0.301799,0 -0.4527,-0.15091 -0.4527,-0.45271 z m 1.358099,0 c 0,-0.30179 0.150901,-0.45269 0.4527,-0.45269 0.301799,0 0.4527,0.1509 0.4527,0.45269 0,0.3018 -0.150901,0.45271 -0.4527,0.45271 -0.301799,0 -0.4527,-0.15091 -0.4527,-0.45271 z m 1.584449,0 c 0,-0.30179 0.150901,-0.45269 0.452699,-0.45269 0.301799,0 0.4527,0.1509 0.4527,0.45269 0,0.3018 -0.150901,0.45271 -0.4527,0.45271 -0.301798,0 -0.452699,-0.15091 -0.452699,-0.45271 z m 1.584448,0 c 0,-0.30179 0.150901,-0.45269 0.4527,-0.45269 0.301799,0 0.452699,0.1509 0.452699,0.45269 0,0.3018 -0.1509,0.45271 -0.452699,0.45271 -0.301799,0 -0.4527,-0.15091 -0.4527,-0.45271 z m 1.358098,0 c 0,-0.30179 0.150901,-0.45269 0.4527,-0.45269 0.301799,0 0.4527,0.1509 0.4527,0.45269 0,0.3018 -0.150901,0.45271 -0.4527,0.45271 -0.301799,0 -0.4527,-0.15091 -0.4527,-0.45271 z m 1.584449,0 c 0,-0.30179 0.1509,-0.45269 0.452699,-0.45269 0.301799,0 0.4527,0.1509 0.4527,0.45269 0,0.3018 -0.150901,0.45271 -0.4527,0.45271 -0.301799,0 -0.452699,-0.15091 -0.452699,-0.45271 z m 1.358099,0 c 0,-0.30179 0.1509,-0.45269 0.452699,-0.45269 0.301799,0 0.4527,0.1509 0.4527,0.45269 0,0.3018 -0.150901,0.45271 -0.4527,0.45271 -0.301799,0 -0.452699,-0.15091 -0.452699,-0.45271 z m -31.688967,-1.3581 c 0,-0.30179 0.150899,-0.45269 0.452699,-0.45269 0.301799,0 0.452699,0.1509 0.452699,0.45269 0,0.30181 -0.1509,0.45271 -0.452699,0.45271 -0.3018,0 -0.452699,-0.1509 -0.452699,-0.45271 z m 1.358098,0 c 0,-0.30179 0.1509,-0.45269 0.4527,-0.45269 0.301799,0 0.452699,0.1509 0.452699,0.45269 0,0.30181 -0.1509,0.45271 -0.452699,0.45271 -0.3018,0 -0.4527,-0.1509 -0.4527,-0.45271 z m 1.584448,0 c 0,-0.30179 0.1509,-0.45269 0.4527,-0.45269 0.3018,0 0.4527,0.1509 0.4527,0.45269 0,0.30181 -0.1509,0.45271 -0.4527,0.45271 -0.3018,0 -0.4527,-0.1509 -0.4527,-0.45271 z m 1.584449,0 c 0,-0.30179 0.1509,-0.45269 0.452699,-0.45269 0.3018,0 0.4527,0.1509 0.4527,0.45269 0,0.30181 -0.1509,0.45271 -0.4527,0.45271 -0.301799,0 -0.452699,-0.1509 -0.452699,-0.45271 z m 1.358099,0 c 0,-0.30179 0.150899,-0.45269 0.452698,-0.45269 0.3018,0 0.4527,0.1509 0.4527,0.45269 0,0.30181 -0.1509,0.45271 -0.4527,0.45271 -0.301799,0 -0.452698,-0.1509 -0.452698,-0.45271 z m 1.584448,0 c 0,-0.30179 0.150899,-0.45269 0.452699,-0.45269 0.3018,0 0.4527,0.1509 0.4527,0.45269 0,0.30181 -0.1509,0.45271 -0.4527,0.45271 -0.3018,0 -0.452699,-0.1509 -0.452699,-0.45271 z m 1.584448,0 c 0,-0.30179 0.1509,-0.45269 0.452699,-0.45269 0.3018,0 0.4527,0.1509 0.4527,0.45269 0,0.30181 -0.1509,0.45271 -0.4527,0.45271 -0.301799,0 -0.452699,-0.1509 -0.452699,-0.45271 z m 1.584448,0 c 0,-0.30179 0.1509,-0.45269 0.4527,-0.45269 0.301799,0 0.452699,0.1509 0.452699,0.45269 0,0.30181 -0.1509,0.45271 -0.452699,0.45271 -0.3018,0 -0.4527,-0.1509 -0.4527,-0.45271 z m 1.358099,0 c 0,-0.30179 0.1509,-0.45269 0.4527,-0.45269 0.301799,0 0.452699,0.1509 0.452699,0.45269 0,0.30181 -0.1509,0.45271 -0.452699,0.45271 -0.3018,0 -0.4527,-0.1509 -0.4527,-0.45271 z m 1.584448,0 c 0,-0.30179 0.1509,-0.45269 0.4527,-0.45269 0.301799,0 0.4527,0.1509 0.4527,0.45269 0,0.30181 -0.150901,0.45271 -0.4527,0.45271 -0.3018,0 -0.4527,-0.1509 -0.4527,-0.45271 z m 1.584449,0 c 0,-0.30179 0.150901,-0.45269 0.452699,-0.45269 0.301799,0 0.4527,0.1509 0.4527,0.45269 0,0.30181 -0.150901,0.45271 -0.4527,0.45271 -0.301798,0 -0.452699,-0.1509 -0.452699,-0.45271 z m 1.584448,0 c 0,-0.30179 0.150901,-0.45269 0.4527,-0.45269 0.301799,0 0.4527,0.1509 0.4527,0.45269 0,0.30181 -0.150901,0.45271 -0.4527,0.45271 -0.301799,0 -0.4527,-0.1509 -0.4527,-0.45271 z m 1.358098,0 c 0,-0.30179 0.150901,-0.45269 0.4527,-0.45269 0.301799,0 0.4527,0.1509 0.4527,0.45269 0,0.30181 -0.150901,0.45271 -0.4527,0.45271 -0.301799,0 -0.4527,-0.1509 -0.4527,-0.45271 z m 1.584449,0 c 0,-0.30179 0.1509,-0.45269 0.452699,-0.45269 0.301799,0 0.4527,0.1509 0.4527,0.45269 0,0.30181 -0.150901,0.45271 -0.4527,0.45271 -0.301799,0 -0.452699,-0.1509 -0.452699,-0.45271 z m 1.584448,0 c 0,-0.30179 0.150901,-0.45269 0.4527,-0.45269 0.301799,0 0.452699,0.1509 0.452699,0.45269 0,0.30181 -0.1509,0.45271 -0.452699,0.45271 -0.301799,0 -0.4527,-0.1509 -0.4527,-0.45271 z m 1.584448,0 c 0,-0.30179 0.150901,-0.45269 0.4527,-0.45269 0.301799,0 0.4527,0.1509 0.4527,0.45269 0,0.30181 -0.150901,0.45271 -0.4527,0.45271 -0.301799,0 -0.4527,-0.1509 -0.4527,-0.45271 z m 1.358099,0 c 0,-0.30179 0.150901,-0.45269 0.4527,-0.45269 0.301799,0 0.4527,0.1509 0.4527,0.45269 0,0.30181 -0.150901,0.45271 -0.4527,0.45271 -0.301799,0 -0.4527,-0.1509 -0.4527,-0.45271 z m 1.584449,0 c 0,-0.30179 0.150901,-0.45269 0.452699,-0.45269 0.301799,0 0.4527,0.1509 0.4527,0.45269 0,0.30181 -0.150901,0.45271 -0.4527,0.45271 -0.301798,0 -0.452699,-0.1509 -0.452699,-0.45271 z m 1.584448,0 c 0,-0.30179 0.150901,-0.45269 0.4527,-0.45269 0.301799,0 0.452699,0.1509 0.452699,0.45269 0,0.30181 -0.1509,0.45271 -0.452699,0.45271 -0.301799,0 -0.4527,-0.1509 -0.4527,-0.45271 z m 1.358098,0 c 0,-0.30179 0.150901,-0.45269 0.4527,-0.45269 0.301799,0 0.4527,0.1509 0.4527,0.45269 0,0.30181 -0.150901,0.45271 -0.4527,0.45271 -0.301799,0 -0.4527,-0.1509 -0.4527,-0.45271 z m 1.584449,0 c 0,-0.30179 0.1509,-0.45269 0.452699,-0.45269 0.301799,0 0.4527,0.1509 0.4527,0.45269 0,0.30181 -0.150901,0.45271 -0.4527,0.45271 -0.301799,0 -0.452699,-0.1509 -0.452699,-0.45271 z m 1.358099,0 c 0,-0.30179 0.1509,-0.45269 0.452699,-0.45269 0.301799,0 0.4527,0.1509 0.4527,0.45269 0,0.30181 -0.150901,0.45271 -0.4527,0.45271 -0.301799,0 -0.452699,-0.1509 -0.452699,-0.45271 z m -31.688967,-1.58444 c 0,-0.3018 0.150899,-0.4527 0.452699,-0.4527 0.301799,0 0.452699,0.1509 0.452699,0.4527 0,0.3018 -0.1509,0.4527 -0.452699,0.4527 -0.3018,0 -0.452699,-0.1509 -0.452699,-0.4527 z m 1.358098,0 c 0,-0.3018 0.1509,-0.4527 0.4527,-0.4527 0.301799,0 0.452699,0.1509 0.452699,0.4527 0,0.3018 -0.1509,0.4527 -0.452699,0.4527 -0.3018,0 -0.4527,-0.1509 -0.4527,-0.4527 z m 1.584448,0 c 0,-0.3018 0.1509,-0.4527 0.4527,-0.4527 0.3018,0 0.4527,0.1509 0.4527,0.4527 0,0.3018 -0.1509,0.4527 -0.4527,0.4527 -0.3018,0 -0.4527,-0.1509 -0.4527,-0.4527 z m 1.584449,0 c 0,-0.3018 0.1509,-0.4527 0.452699,-0.4527 0.3018,0 0.4527,0.1509 0.4527,0.4527 0,0.3018 -0.1509,0.4527 -0.4527,0.4527 -0.301799,0 -0.452699,-0.1509 -0.452699,-0.4527 z m 1.358099,0 c 0,-0.3018 0.150899,-0.4527 0.452698,-0.4527 0.3018,0 0.4527,0.1509 0.4527,0.4527 0,0.3018 -0.1509,0.4527 -0.4527,0.4527 -0.301799,0 -0.452698,-0.1509 -0.452698,-0.4527 z m 1.584448,0 c 0,-0.3018 0.150899,-0.4527 0.452699,-0.4527 0.3018,0 0.4527,0.1509 0.4527,0.4527 0,0.3018 -0.1509,0.4527 -0.4527,0.4527 -0.3018,0 -0.452699,-0.1509 -0.452699,-0.4527 z m 1.584448,0 c 0,-0.3018 0.1509,-0.4527 0.452699,-0.4527 0.3018,0 0.4527,0.1509 0.4527,0.4527 0,0.3018 -0.1509,0.4527 -0.4527,0.4527 -0.301799,0 -0.452699,-0.1509 -0.452699,-0.4527 z m 1.584448,0 c 0,-0.3018 0.1509,-0.4527 0.4527,-0.4527 0.301799,0 0.452699,0.1509 0.452699,0.4527 0,0.3018 -0.1509,0.4527 -0.452699,0.4527 -0.3018,0 -0.4527,-0.1509 -0.4527,-0.4527 z m 1.358099,0 c 0,-0.3018 0.1509,-0.4527 0.4527,-0.4527 0.301799,0 0.452699,0.1509 0.452699,0.4527 0,0.3018 -0.1509,0.4527 -0.452699,0.4527 -0.3018,0 -0.4527,-0.1509 -0.4527,-0.4527 z m 1.584448,0 c 0,-0.3018 0.1509,-0.4527 0.4527,-0.4527 0.301799,0 0.4527,0.1509 0.4527,0.4527 0,0.3018 -0.150901,0.4527 -0.4527,0.4527 -0.3018,0 -0.4527,-0.1509 -0.4527,-0.4527 z m 1.584449,0 c 0,-0.3018 0.150901,-0.4527 0.452699,-0.4527 0.301799,0 0.4527,0.1509 0.4527,0.4527 0,0.3018 -0.150901,0.4527 -0.4527,0.4527 -0.301798,0 -0.452699,-0.1509 -0.452699,-0.4527 z m 1.584448,0 c 0,-0.3018 0.150901,-0.4527 0.4527,-0.4527 0.301799,0 0.4527,0.1509 0.4527,0.4527 0,0.3018 -0.150901,0.4527 -0.4527,0.4527 -0.301799,0 -0.4527,-0.1509 -0.4527,-0.4527 z m 1.358098,0 c 0,-0.3018 0.150901,-0.4527 0.4527,-0.4527 0.301799,0 0.4527,0.1509 0.4527,0.4527 0,0.3018 -0.150901,0.4527 -0.4527,0.4527 -0.301799,0 -0.4527,-0.1509 -0.4527,-0.4527 z m 1.584449,0 c 0,-0.3018 0.1509,-0.4527 0.452699,-0.4527 0.301799,0 0.4527,0.1509 0.4527,0.4527 0,0.3018 -0.150901,0.4527 -0.4527,0.4527 -0.301799,0 -0.452699,-0.1509 -0.452699,-0.4527 z m 1.584448,0 c 0,-0.3018 0.150901,-0.4527 0.4527,-0.4527 0.301799,0 0.452699,0.1509 0.452699,0.4527 0,0.3018 -0.1509,0.4527 -0.452699,0.4527 -0.301799,0 -0.4527,-0.1509 -0.4527,-0.4527 z m 1.584448,0 c 0,-0.3018 0.150901,-0.4527 0.4527,-0.4527 0.301799,0 0.4527,0.1509 0.4527,0.4527 0,0.3018 -0.150901,0.4527 -0.4527,0.4527 -0.301799,0 -0.4527,-0.1509 -0.4527,-0.4527 z m 1.358099,0 c 0,-0.3018 0.150901,-0.4527 0.4527,-0.4527 0.301799,0 0.4527,0.1509 0.4527,0.4527 0,0.3018 -0.150901,0.4527 -0.4527,0.4527 -0.301799,0 -0.4527,-0.1509 -0.4527,-0.4527 z m 1.584449,0 c 0,-0.3018 0.150901,-0.4527 0.452699,-0.4527 0.301799,0 0.4527,0.1509 0.4527,0.4527 0,0.3018 -0.150901,0.4527 -0.4527,0.4527 -0.301798,0 -0.452699,-0.1509 -0.452699,-0.4527 z m 1.584448,0 c 0,-0.3018 0.150901,-0.4527 0.4527,-0.4527 0.301799,0 0.452699,0.1509 0.452699,0.4527 0,0.3018 -0.1509,0.4527 -0.452699,0.4527 -0.301799,0 -0.4527,-0.1509 -0.4527,-0.4527 z m 1.358098,0 c 0,-0.3018 0.150901,-0.4527 0.4527,-0.4527 0.301799,0 0.4527,0.1509 0.4527,0.4527 0,0.3018 -0.150901,0.4527 -0.4527,0.4527 -0.301799,0 -0.4527,-0.1509 -0.4527,-0.4527 z m 1.584449,0 c 0,-0.3018 0.1509,-0.4527 0.452699,-0.4527 0.301799,0 0.4527,0.1509 0.4527,0.4527 0,0.3018 -0.150901,0.4527 -0.4527,0.4527 -0.301799,0 -0.452699,-0.1509 -0.452699,-0.4527 z m 1.358099,0 c 0,-0.3018 0.1509,-0.4527 0.452699,-0.4527 0.301799,0 0.4527,0.1509 0.4527,0.4527 0,0.3018 -0.150901,0.4527 -0.4527,0.4527 -0.301799,0 -0.452699,-0.1509 -0.452699,-0.4527 z m 2.603022,-6.11144 v -4.64018 h -10.751614 -10.751614 l -0.07701,0.67832 c -0.04236,0.37307 -0.195143,0.76279 -0.339525,0.86604 -0.19635,0.14041 -0.191201,0.21667 0.02042,0.30254 0.47478,0.19265 0.338305,0.98247 -0.169763,0.98247 -0.248984,0 -0.452699,-0.0986 -0.452699,-0.21924 0,-0.12058 -0.155386,-0.15962 -0.345302,-0.0867 -0.22716,0.0872 -0.272748,0.22026 -0.133243,0.38901 0.353401,0.42747 0.0292,1.50143 -0.453241,1.50143 -0.247461,0 -0.426312,-0.15871 -0.426312,-0.37829 0,-0.52183 -0.662023,-1.20617 -1.166831,-1.20617 -0.553823,0 -0.575093,-0.90253 -0.02151,-0.91259 0.551089,-0.01 1.188337,-0.5354 1.188337,-0.97974 0,-0.245 0.192339,-0.37116 0.565874,-0.37116 0.352099,0 0.565874,-0.12826 0.565874,-0.33952 0,-0.28576 -0.50569,-0.33953 -3.193113,-0.33953 -2.95132,0 -3.180957,0.03 -3.032571,0.39611 0.0883,0.21786 0.261948,0.67622 0.385885,1.01858 0.138258,0.38191 0.391727,0.62246 0.655897,0.62246 0.279657,0 0.430557,0.15866 0.430557,0.4527 0,0.2864 -0.1509,0.45269 -0.410777,0.45269 -0.2466,0 -0.561767,0.31664 -0.788562,0.79224 -0.433387,0.90881 -1.290509,1.12358 -1.290509,0.32335 0,-0.60047 -0.51512,-1.11559 -1.11558,-1.11559 -0.317968,0 -0.468868,-0.14569 -0.468868,-0.45269 0,-0.307 0.1509,-0.4527 0.468868,-0.4527 0.257876,0 0.625246,-0.15638 0.816377,-0.34751 0.291368,-0.29137 0.302178,-0.45696 0.06691,-1.02494 l -0.280598,-0.67742 -2.969039,0.063 -2.969039,0.063 -0.06165,4.40715 c -0.03391,2.42393 -0.0114,4.53808 0.05,4.69811 0.08993,0.23437 3.645786,0.27968 18.282805,0.23302 l 18.171155,-0.0579 z m -34.518339,3.62159 c 0,-0.30179 0.1509,-0.45269 0.452699,-0.45269 0.3018,0 0.4527,0.1509 0.4527,0.45269 0,0.3018 -0.1509,0.4527 -0.4527,0.4527 -0.301799,0 -0.452699,-0.1509 -0.452699,-0.4527 z m 1.584448,0 c 0,-0.30179 0.1509,-0.45269 0.4527,-0.45269 0.301799,0 0.452699,0.1509 0.452699,0.45269 0,0.3018 -0.1509,0.4527 -0.452699,0.4527 -0.3018,0 -0.4527,-0.1509 -0.4527,-0.4527 z m 1.358099,0 c 0,-0.30179 0.1509,-0.45269 0.452699,-0.45269 0.301799,0 0.452699,0.1509 0.452699,0.45269 0,0.3018 -0.1509,0.4527 -0.452699,0.4527 -0.301799,0 -0.452699,-0.1509 -0.452699,-0.4527 z m 1.584448,0 c 0,-0.30179 0.1509,-0.45269 0.452699,-0.45269 0.3018,0 0.4527,0.1509 0.4527,0.45269 0,0.3018 -0.1509,0.4527 -0.4527,0.4527 -0.301799,0 -0.452699,-0.1509 -0.452699,-0.4527 z m 1.584449,0 c 0,-0.30179 0.150899,-0.45269 0.452698,-0.45269 0.3018,0 0.4527,0.1509 0.4527,0.45269 0,0.3018 -0.1509,0.4527 -0.4527,0.4527 -0.301799,0 -0.452698,-0.1509 -0.452698,-0.4527 z m 1.358098,0 c 0,-0.30179 0.1509,-0.45269 0.4527,-0.45269 0.301799,0 0.452699,0.1509 0.452699,0.45269 0,0.3018 -0.1509,0.4527 -0.452699,0.4527 -0.3018,0 -0.4527,-0.1509 -0.4527,-0.4527 z m 1.584448,0 c 0,-0.30179 0.1509,-0.45269 0.4527,-0.45269 0.3018,0 0.4527,0.1509 0.4527,0.45269 0,0.3018 -0.1509,0.4527 -0.4527,0.4527 -0.3018,0 -0.4527,-0.1509 -0.4527,-0.4527 z m 1.584449,0 c 0,-0.30179 0.1509,-0.45269 0.452699,-0.45269 0.3018,0 0.4527,0.1509 0.4527,0.45269 0,0.3018 -0.1509,0.4527 -0.4527,0.4527 -0.301799,0 -0.452699,-0.1509 -0.452699,-0.4527 z m 1.358099,0 c 0,-0.30179 0.150899,-0.45269 0.452698,-0.45269 0.3018,0 0.4527,0.1509 0.4527,0.45269 0,0.3018 -0.1509,0.4527 -0.4527,0.4527 -0.301799,0 -0.452698,-0.1509 -0.452698,-0.4527 z m 1.584448,0 c 0,-0.30179 0.150899,-0.45269 0.452699,-0.45269 0.301799,0 0.452699,0.1509 0.452699,0.45269 0,0.3018 -0.1509,0.4527 -0.452699,0.4527 -0.3018,0 -0.452699,-0.1509 -0.452699,-0.4527 z m 1.584448,0 c 0,-0.30179 0.1509,-0.45269 0.452699,-0.45269 0.301799,0 0.4527,0.1509 0.4527,0.45269 0,0.3018 -0.150901,0.4527 -0.4527,0.4527 -0.301799,0 -0.452699,-0.1509 -0.452699,-0.4527 z m 1.584448,0 c 0,-0.30179 0.150901,-0.45269 0.452699,-0.45269 0.301799,0 0.4527,0.1509 0.4527,0.45269 0,0.3018 -0.150901,0.4527 -0.4527,0.4527 -0.301798,0 -0.452699,-0.1509 -0.452699,-0.4527 z m 1.358099,0 c 0,-0.30179 0.150901,-0.45269 0.4527,-0.45269 0.301798,0 0.452699,0.1509 0.452699,0.45269 0,0.3018 -0.150901,0.4527 -0.452699,0.4527 -0.301799,0 -0.4527,-0.1509 -0.4527,-0.4527 z m 1.584448,0 c 0,-0.30179 0.150901,-0.45269 0.4527,-0.45269 0.301799,0 0.4527,0.1509 0.4527,0.45269 0,0.3018 -0.150901,0.4527 -0.4527,0.4527 -0.301799,0 -0.4527,-0.1509 -0.4527,-0.4527 z m 1.584449,0 c 0,-0.30179 0.1509,-0.45269 0.452699,-0.45269 0.301799,0 0.4527,0.1509 0.4527,0.45269 0,0.3018 -0.150901,0.4527 -0.4527,0.4527 -0.301799,0 -0.452699,-0.1509 -0.452699,-0.4527 z m 1.584448,0 c 0,-0.30179 0.150901,-0.45269 0.4527,-0.45269 0.301799,0 0.452699,0.1509 0.452699,0.45269 0,0.3018 -0.1509,0.4527 -0.452699,0.4527 -0.301799,0 -0.4527,-0.1509 -0.4527,-0.4527 z m 1.358098,0 c 0,-0.30179 0.150901,-0.45269 0.4527,-0.45269 0.301799,0 0.452699,0.1509 0.452699,0.45269 0,0.3018 -0.1509,0.4527 -0.452699,0.4527 -0.301799,0 -0.4527,-0.1509 -0.4527,-0.4527 z m 1.584448,0 c 0,-0.30179 0.150901,-0.45269 0.4527,-0.45269 0.301799,0 0.4527,0.1509 0.4527,0.45269 0,0.3018 -0.150901,0.4527 -0.4527,0.4527 -0.301799,0 -0.4527,-0.1509 -0.4527,-0.4527 z m 1.584449,0 c 0,-0.30179 0.150901,-0.45269 0.452699,-0.45269 0.301799,0 0.4527,0.1509 0.4527,0.45269 0,0.3018 -0.150901,0.4527 -0.4527,0.4527 -0.301798,0 -0.452699,-0.1509 -0.452699,-0.4527 z m 1.358099,0 c 0,-0.30179 0.150901,-0.45269 0.4527,-0.45269 0.301798,0 0.452699,0.1509 0.452699,0.45269 0,0.3018 -0.150901,0.4527 -0.452699,0.4527 -0.301799,0 -0.4527,-0.1509 -0.4527,-0.4527 z m 1.584448,0 c 0,-0.30179 0.150901,-0.45269 0.4527,-0.45269 0.301799,0 0.4527,0.1509 0.4527,0.45269 0,0.3018 -0.150901,0.4527 -0.4527,0.4527 -0.301799,0 -0.4527,-0.1509 -0.4527,-0.4527 z m 1.584449,0 c 0,-0.30179 0.1509,-0.45269 0.452699,-0.45269 0.301799,0 0.4527,0.1509 0.4527,0.45269 0,0.3018 -0.150901,0.4527 -0.4527,0.4527 -0.301799,0 -0.452699,-0.1509 -0.452699,-0.4527 z m -31.915317,-1.3581 c 0,-0.30179 0.1509,-0.45269 0.452699,-0.45269 0.3018,0 0.4527,0.1509 0.4527,0.45269 0,0.3018 -0.1509,0.4527 -0.4527,0.4527 -0.301799,0 -0.452699,-0.1509 -0.452699,-0.4527 z m 1.584448,0 c 0,-0.30179 0.1509,-0.45269 0.4527,-0.45269 0.301799,0 0.452699,0.1509 0.452699,0.45269 0,0.3018 -0.1509,0.4527 -0.452699,0.4527 -0.3018,0 -0.4527,-0.1509 -0.4527,-0.4527 z m 1.358099,0 c 0,-0.30179 0.1509,-0.45269 0.452699,-0.45269 0.301799,0 0.452699,0.1509 0.452699,0.45269 0,0.3018 -0.1509,0.4527 -0.452699,0.4527 -0.301799,0 -0.452699,-0.1509 -0.452699,-0.4527 z m 1.584448,0 c 0,-0.30179 0.1509,-0.45269 0.452699,-0.45269 0.3018,0 0.4527,0.1509 0.4527,0.45269 0,0.3018 -0.1509,0.4527 -0.4527,0.4527 -0.301799,0 -0.452699,-0.1509 -0.452699,-0.4527 z m 1.584449,0 c 0,-0.30179 0.150899,-0.45269 0.452698,-0.45269 0.3018,0 0.4527,0.1509 0.4527,0.45269 0,0.3018 -0.1509,0.4527 -0.4527,0.4527 -0.301799,0 -0.452698,-0.1509 -0.452698,-0.4527 z m 1.358098,0 c 0,-0.30179 0.1509,-0.45269 0.4527,-0.45269 0.301799,0 0.452699,0.1509 0.452699,0.45269 0,0.3018 -0.1509,0.4527 -0.452699,0.4527 -0.3018,0 -0.4527,-0.1509 -0.4527,-0.4527 z m 1.584448,0 c 0,-0.30179 0.1509,-0.45269 0.4527,-0.45269 0.3018,0 0.4527,0.1509 0.4527,0.45269 0,0.3018 -0.1509,0.4527 -0.4527,0.4527 -0.3018,0 -0.4527,-0.1509 -0.4527,-0.4527 z m 1.584449,0 c 0,-0.30179 0.1509,-0.45269 0.452699,-0.45269 0.3018,0 0.4527,0.1509 0.4527,0.45269 0,0.3018 -0.1509,0.4527 -0.4527,0.4527 -0.301799,0 -0.452699,-0.1509 -0.452699,-0.4527 z m 1.358099,0 c 0,-0.30179 0.150899,-0.45269 0.452698,-0.45269 0.3018,0 0.4527,0.1509 0.4527,0.45269 0,0.3018 -0.1509,0.4527 -0.4527,0.4527 -0.301799,0 -0.452698,-0.1509 -0.452698,-0.4527 z m 1.584448,0 c 0,-0.30179 0.150899,-0.45269 0.452699,-0.45269 0.301799,0 0.452699,0.1509 0.452699,0.45269 0,0.3018 -0.1509,0.4527 -0.452699,0.4527 -0.3018,0 -0.452699,-0.1509 -0.452699,-0.4527 z m 1.584448,0 c 0,-0.30179 0.1509,-0.45269 0.452699,-0.45269 0.301799,0 0.4527,0.1509 0.4527,0.45269 0,0.3018 -0.150901,0.4527 -0.4527,0.4527 -0.301799,0 -0.452699,-0.1509 -0.452699,-0.4527 z m 1.584448,0 c 0,-0.30179 0.150901,-0.45269 0.452699,-0.45269 0.301799,0 0.4527,0.1509 0.4527,0.45269 0,0.3018 -0.150901,0.4527 -0.4527,0.4527 -0.301798,0 -0.452699,-0.1509 -0.452699,-0.4527 z m 1.358099,0 c 0,-0.30179 0.150901,-0.45269 0.4527,-0.45269 0.301798,0 0.452699,0.1509 0.452699,0.45269 0,0.3018 -0.150901,0.4527 -0.452699,0.4527 -0.301799,0 -0.4527,-0.1509 -0.4527,-0.4527 z m 1.584448,0 c 0,-0.30179 0.150901,-0.45269 0.4527,-0.45269 0.301799,0 0.4527,0.1509 0.4527,0.45269 0,0.3018 -0.150901,0.4527 -0.4527,0.4527 -0.301799,0 -0.4527,-0.1509 -0.4527,-0.4527 z m 1.584449,0 c 0,-0.30179 0.1509,-0.45269 0.452699,-0.45269 0.301799,0 0.4527,0.1509 0.4527,0.45269 0,0.3018 -0.150901,0.4527 -0.4527,0.4527 -0.301799,0 -0.452699,-0.1509 -0.452699,-0.4527 z m 1.584448,0 c 0,-0.30179 0.150901,-0.45269 0.4527,-0.45269 0.301799,0 0.452699,0.1509 0.452699,0.45269 0,0.3018 -0.1509,0.4527 -0.452699,0.4527 -0.301799,0 -0.4527,-0.1509 -0.4527,-0.4527 z m 1.358098,0 c 0,-0.30179 0.150901,-0.45269 0.4527,-0.45269 0.301799,0 0.452699,0.1509 0.452699,0.45269 0,0.3018 -0.1509,0.4527 -0.452699,0.4527 -0.301799,0 -0.4527,-0.1509 -0.4527,-0.4527 z m 1.584448,0 c 0,-0.30179 0.150901,-0.45269 0.4527,-0.45269 0.301799,0 0.4527,0.1509 0.4527,0.45269 0,0.3018 -0.150901,0.4527 -0.4527,0.4527 -0.301799,0 -0.4527,-0.1509 -0.4527,-0.4527 z m 1.584449,0 c 0,-0.30179 0.150901,-0.45269 0.452699,-0.45269 0.301799,0 0.4527,0.1509 0.4527,0.45269 0,0.3018 -0.150901,0.4527 -0.4527,0.4527 -0.301798,0 -0.452699,-0.1509 -0.452699,-0.4527 z m 1.358099,0 c 0,-0.30179 0.150901,-0.45269 0.4527,-0.45269 0.301798,0 0.452699,0.1509 0.452699,0.45269 0,0.3018 -0.150901,0.4527 -0.452699,0.4527 -0.301799,0 -0.4527,-0.1509 -0.4527,-0.4527 z m 1.584448,0 c 0,-0.30179 0.150901,-0.45269 0.4527,-0.45269 0.301799,0 0.4527,0.1509 0.4527,0.45269 0,0.3018 -0.150901,0.4527 -0.4527,0.4527 -0.301799,0 -0.4527,-0.1509 -0.4527,-0.4527 z m 1.584449,0 c 0,-0.30179 0.1509,-0.45269 0.452699,-0.45269 0.301799,0 0.4527,0.1509 0.4527,0.45269 0,0.3018 -0.150901,0.4527 -0.4527,0.4527 -0.301799,0 -0.452699,-0.1509 -0.452699,-0.4527 z m -31.915317,-1.58445 c 0,-0.3018 0.1509,-0.4527 0.452699,-0.4527 0.3018,0 0.4527,0.1509 0.4527,0.4527 0,0.30181 -0.1509,0.45271 -0.4527,0.45271 -0.301799,0 -0.452699,-0.1509 -0.452699,-0.45271 z m 1.584448,0 c 0,-0.3018 0.1509,-0.4527 0.4527,-0.4527 0.301799,0 0.452699,0.1509 0.452699,0.4527 0,0.30181 -0.1509,0.45271 -0.452699,0.45271 -0.3018,0 -0.4527,-0.1509 -0.4527,-0.45271 z m 1.358099,0 c 0,-0.3018 0.1509,-0.4527 0.452699,-0.4527 0.301799,0 0.452699,0.1509 0.452699,0.4527 0,0.30181 -0.1509,0.45271 -0.452699,0.45271 -0.301799,0 -0.452699,-0.1509 -0.452699,-0.45271 z m 1.584448,0 c 0,-0.3018 0.1509,-0.4527 0.452699,-0.4527 0.3018,0 0.4527,0.1509 0.4527,0.4527 0,0.30181 -0.1509,0.45271 -0.4527,0.45271 -0.301799,0 -0.452699,-0.1509 -0.452699,-0.45271 z m 1.584449,0 c 0,-0.3018 0.150899,-0.4527 0.452698,-0.4527 0.3018,0 0.4527,0.1509 0.4527,0.4527 0,0.30181 -0.1509,0.45271 -0.4527,0.45271 -0.301799,0 -0.452698,-0.1509 -0.452698,-0.45271 z m 1.358098,0 c 0,-0.3018 0.1509,-0.4527 0.4527,-0.4527 0.301799,0 0.452699,0.1509 0.452699,0.4527 0,0.30181 -0.1509,0.45271 -0.452699,0.45271 -0.3018,0 -0.4527,-0.1509 -0.4527,-0.45271 z m 1.584448,0 c 0,-0.3018 0.1509,-0.4527 0.4527,-0.4527 0.3018,0 0.4527,0.1509 0.4527,0.4527 0,0.30181 -0.1509,0.45271 -0.4527,0.45271 -0.3018,0 -0.4527,-0.1509 -0.4527,-0.45271 z m 1.584449,0 c 0,-0.3018 0.1509,-0.4527 0.452699,-0.4527 0.3018,0 0.4527,0.1509 0.4527,0.4527 0,0.30181 -0.1509,0.45271 -0.4527,0.45271 -0.301799,0 -0.452699,-0.1509 -0.452699,-0.45271 z m 1.358099,0 c 0,-0.3018 0.150899,-0.4527 0.452698,-0.4527 0.3018,0 0.4527,0.1509 0.4527,0.4527 0,0.30181 -0.1509,0.45271 -0.4527,0.45271 -0.301799,0 -0.452698,-0.1509 -0.452698,-0.45271 z m 1.584448,0 c 0,-0.3018 0.150899,-0.4527 0.452699,-0.4527 0.301799,0 0.452699,0.1509 0.452699,0.4527 0,0.30181 -0.1509,0.45271 -0.452699,0.45271 -0.3018,0 -0.452699,-0.1509 -0.452699,-0.45271 z m 1.584448,0 c 0,-0.3018 0.1509,-0.4527 0.452699,-0.4527 0.301799,0 0.4527,0.1509 0.4527,0.4527 0,0.30181 -0.150901,0.45271 -0.4527,0.45271 -0.301799,0 -0.452699,-0.1509 -0.452699,-0.45271 z m 1.584448,0 c 0,-0.3018 0.150901,-0.4527 0.452699,-0.4527 0.301799,0 0.4527,0.1509 0.4527,0.4527 0,0.30181 -0.150901,0.45271 -0.4527,0.45271 -0.301798,0 -0.452699,-0.1509 -0.452699,-0.45271 z m 1.358099,0 c 0,-0.3018 0.150901,-0.4527 0.4527,-0.4527 0.301798,0 0.452699,0.1509 0.452699,0.4527 0,0.30181 -0.150901,0.45271 -0.452699,0.45271 -0.301799,0 -0.4527,-0.1509 -0.4527,-0.45271 z m 1.584448,0 c 0,-0.3018 0.150901,-0.4527 0.4527,-0.4527 0.301799,0 0.4527,0.1509 0.4527,0.4527 0,0.30181 -0.150901,0.45271 -0.4527,0.45271 -0.301799,0 -0.4527,-0.1509 -0.4527,-0.45271 z m 1.584449,0 c 0,-0.3018 0.1509,-0.4527 0.452699,-0.4527 0.301799,0 0.4527,0.1509 0.4527,0.4527 0,0.30181 -0.150901,0.45271 -0.4527,0.45271 -0.301799,0 -0.452699,-0.1509 -0.452699,-0.45271 z m 1.584448,0 c 0,-0.3018 0.150901,-0.4527 0.4527,-0.4527 0.301799,0 0.452699,0.1509 0.452699,0.4527 0,0.30181 -0.1509,0.45271 -0.452699,0.45271 -0.301799,0 -0.4527,-0.1509 -0.4527,-0.45271 z m 1.358098,0 c 0,-0.3018 0.150901,-0.4527 0.4527,-0.4527 0.301799,0 0.452699,0.1509 0.452699,0.4527 0,0.30181 -0.1509,0.45271 -0.452699,0.45271 -0.301799,0 -0.4527,-0.1509 -0.4527,-0.45271 z m 1.584448,0 c 0,-0.3018 0.150901,-0.4527 0.4527,-0.4527 0.301799,0 0.4527,0.1509 0.4527,0.4527 0,0.30181 -0.150901,0.45271 -0.4527,0.45271 -0.301799,0 -0.4527,-0.1509 -0.4527,-0.45271 z m 1.584449,0 c 0,-0.3018 0.150901,-0.4527 0.452699,-0.4527 0.301799,0 0.4527,0.1509 0.4527,0.4527 0,0.30181 -0.150901,0.45271 -0.4527,0.45271 -0.301798,0 -0.452699,-0.1509 -0.452699,-0.45271 z m 1.358099,0 c 0,-0.3018 0.150901,-0.4527 0.4527,-0.4527 0.301798,0 0.452699,0.1509 0.452699,0.4527 0,0.30181 -0.150901,0.45271 -0.452699,0.45271 -0.301799,0 -0.4527,-0.1509 -0.4527,-0.45271 z m 1.584448,0 c 0,-0.3018 0.150901,-0.4527 0.4527,-0.4527 0.301799,0 0.4527,0.1509 0.4527,0.4527 0,0.30181 -0.150901,0.45271 -0.4527,0.45271 -0.301799,0 -0.4527,-0.1509 -0.4527,-0.45271 z m 1.584449,0 c 0,-0.3018 0.1509,-0.4527 0.452699,-0.4527 0.301799,0 0.4527,0.1509 0.4527,0.4527 0,0.30181 -0.150901,0.45271 -0.4527,0.45271 -0.301799,0 -0.452699,-0.1509 -0.452699,-0.45271 z m -31.915317,-1.35809 c 0,-0.30181 0.1509,-0.45271 0.452699,-0.45271 0.3018,0 0.4527,0.1509 0.4527,0.45271 0,0.3018 -0.1509,0.4527 -0.4527,0.4527 -0.301799,0 -0.452699,-0.1509 -0.452699,-0.4527 z m 1.584448,0 c 0,-0.30181 0.1509,-0.45271 0.4527,-0.45271 0.301799,0 0.452699,0.1509 0.452699,0.45271 0,0.3018 -0.1509,0.4527 -0.452699,0.4527 -0.3018,0 -0.4527,-0.1509 -0.4527,-0.4527 z m 1.358099,0 c 0,-0.30181 0.1509,-0.45271 0.452699,-0.45271 0.301799,0 0.452699,0.1509 0.452699,0.45271 0,0.3018 -0.1509,0.4527 -0.452699,0.4527 -0.301799,0 -0.452699,-0.1509 -0.452699,-0.4527 z m 3.168897,0 c 0,-0.30181 0.150899,-0.45271 0.452698,-0.45271 0.3018,0 0.4527,0.1509 0.4527,0.45271 0,0.3018 -0.1509,0.4527 -0.4527,0.4527 -0.301799,0 -0.452698,-0.1509 -0.452698,-0.4527 z m 1.358098,0 c 0,-0.30181 0.1509,-0.45271 0.4527,-0.45271 0.301799,0 0.452699,0.1509 0.452699,0.45271 0,0.3018 -0.1509,0.4527 -0.452699,0.4527 -0.3018,0 -0.4527,-0.1509 -0.4527,-0.4527 z m 1.584448,0 c 0,-0.30181 0.1509,-0.45271 0.4527,-0.45271 0.3018,0 0.4527,0.1509 0.4527,0.45271 0,0.3018 -0.1509,0.4527 -0.4527,0.4527 -0.3018,0 -0.4527,-0.1509 -0.4527,-0.4527 z m 2.942548,0 c 0,-0.30181 0.150899,-0.45271 0.452698,-0.45271 0.3018,0 0.4527,0.1509 0.4527,0.45271 0,0.3018 -0.1509,0.4527 -0.4527,0.4527 -0.301799,0 -0.452698,-0.1509 -0.452698,-0.4527 z m 1.584448,0 c 0,-0.30181 0.150899,-0.45271 0.452699,-0.45271 0.301799,0 0.452699,0.1509 0.452699,0.45271 0,0.3018 -0.1509,0.4527 -0.452699,0.4527 -0.3018,0 -0.452699,-0.1509 -0.452699,-0.4527 z m 1.584448,0 c 0,-0.30181 0.1509,-0.45271 0.452699,-0.45271 0.301799,0 0.4527,0.1509 0.4527,0.45271 0,0.3018 -0.150901,0.4527 -0.4527,0.4527 -0.301799,0 -0.452699,-0.1509 -0.452699,-0.4527 z m 1.584448,0 c 0,-0.30181 0.150901,-0.45271 0.452699,-0.45271 0.301799,0 0.4527,0.1509 0.4527,0.45271 0,0.3018 -0.150901,0.4527 -0.4527,0.4527 -0.301798,0 -0.452699,-0.1509 -0.452699,-0.4527 z m 1.358099,0 c 0,-0.30181 0.150901,-0.45271 0.4527,-0.45271 0.301798,0 0.452699,0.1509 0.452699,0.45271 0,0.3018 -0.150901,0.4527 -0.452699,0.4527 -0.301799,0 -0.4527,-0.1509 -0.4527,-0.4527 z m 1.584448,0 c 0,-0.30181 0.150901,-0.45271 0.4527,-0.45271 0.301799,0 0.4527,0.1509 0.4527,0.45271 0,0.3018 -0.150901,0.4527 -0.4527,0.4527 -0.301799,0 -0.4527,-0.1509 -0.4527,-0.4527 z m 1.584449,0 c 0,-0.30181 0.1509,-0.45271 0.452699,-0.45271 0.301799,0 0.4527,0.1509 0.4527,0.45271 0,0.3018 -0.150901,0.4527 -0.4527,0.4527 -0.301799,0 -0.452699,-0.1509 -0.452699,-0.4527 z m 1.584448,0 c 0,-0.30181 0.150901,-0.45271 0.4527,-0.45271 0.301799,0 0.452699,0.1509 0.452699,0.45271 0,0.3018 -0.1509,0.4527 -0.452699,0.4527 -0.301799,0 -0.4527,-0.1509 -0.4527,-0.4527 z m 1.358098,0 c 0,-0.30181 0.150901,-0.45271 0.4527,-0.45271 0.301799,0 0.452699,0.1509 0.452699,0.45271 0,0.3018 -0.1509,0.4527 -0.452699,0.4527 -0.301799,0 -0.4527,-0.1509 -0.4527,-0.4527 z m 1.584448,0 c 0,-0.30181 0.150901,-0.45271 0.4527,-0.45271 0.301799,0 0.4527,0.1509 0.4527,0.45271 0,0.3018 -0.150901,0.4527 -0.4527,0.4527 -0.301799,0 -0.4527,-0.1509 -0.4527,-0.4527 z m 1.584449,0 c 0,-0.30181 0.150901,-0.45271 0.452699,-0.45271 0.301799,0 0.4527,0.1509 0.4527,0.45271 0,0.3018 -0.150901,0.4527 -0.4527,0.4527 -0.301798,0 -0.452699,-0.1509 -0.452699,-0.4527 z m 1.358099,0 c 0,-0.30181 0.150901,-0.45271 0.4527,-0.45271 0.301798,0 0.452699,0.1509 0.452699,0.45271 0,0.3018 -0.150901,0.4527 -0.452699,0.4527 -0.301799,0 -0.4527,-0.1509 -0.4527,-0.4527 z m 1.584448,0 c 0,-0.30181 0.150901,-0.45271 0.4527,-0.45271 0.301799,0 0.4527,0.1509 0.4527,0.45271 0,0.3018 -0.150901,0.4527 -0.4527,0.4527 -0.301799,0 -0.4527,-0.1509 -0.4527,-0.4527 z m 1.584449,0 c 0,-0.30181 0.1509,-0.45271 0.452699,-0.45271 0.301799,0 0.4527,0.1509 0.4527,0.45271 0,0.3018 -0.150901,0.4527 -0.4527,0.4527 -0.301799,0 -0.452699,-0.1509 -0.452699,-0.4527 z m -31.915317,-1.58445 c 0,-0.3018 0.1509,-0.4527 0.452699,-0.4527 0.3018,0 0.4527,0.1509 0.4527,0.4527 0,0.30179 -0.1509,0.45269 -0.4527,0.45269 -0.301799,0 -0.452699,-0.1509 -0.452699,-0.45269 z m 1.584448,0 c 0,-0.3018 0.1509,-0.4527 0.4527,-0.4527 0.301799,0 0.452699,0.1509 0.452699,0.4527 0,0.30179 -0.1509,0.45269 -0.452699,0.45269 -0.3018,0 -0.4527,-0.1509 -0.4527,-0.45269 z m 5.885094,0 c 0,-0.3018 0.1509,-0.4527 0.4527,-0.4527 0.301799,0 0.452699,0.1509 0.452699,0.4527 0,0.30179 -0.1509,0.45269 -0.452699,0.45269 -0.3018,0 -0.4527,-0.1509 -0.4527,-0.45269 z m 6.111444,0 c 0,-0.3018 0.150899,-0.4527 0.452699,-0.4527 0.301799,0 0.452699,0.1509 0.452699,0.4527 0,0.30179 -0.1509,0.45269 -0.452699,0.45269 -0.3018,0 -0.452699,-0.1509 -0.452699,-0.45269 z m 1.584448,0 c 0,-0.3018 0.1509,-0.4527 0.452699,-0.4527 0.301799,0 0.4527,0.1509 0.4527,0.4527 0,0.30179 -0.150901,0.45269 -0.4527,0.45269 -0.301799,0 -0.452699,-0.1509 -0.452699,-0.45269 z m 1.584448,0 c 0,-0.3018 0.150901,-0.4527 0.452699,-0.4527 0.301799,0 0.4527,0.1509 0.4527,0.4527 0,0.30179 -0.150901,0.45269 -0.4527,0.45269 -0.301798,0 -0.452699,-0.1509 -0.452699,-0.45269 z m 1.358099,0 c 0,-0.3018 0.150901,-0.4527 0.4527,-0.4527 0.301798,0 0.452699,0.1509 0.452699,0.4527 0,0.30179 -0.150901,0.45269 -0.452699,0.45269 -0.301799,0 -0.4527,-0.1509 -0.4527,-0.45269 z m 1.584448,0 c 0,-0.3018 0.150901,-0.4527 0.4527,-0.4527 0.301799,0 0.4527,0.1509 0.4527,0.4527 0,0.30179 -0.150901,0.45269 -0.4527,0.45269 -0.301799,0 -0.4527,-0.1509 -0.4527,-0.45269 z m 1.584449,0 c 0,-0.3018 0.1509,-0.4527 0.452699,-0.4527 0.301799,0 0.4527,0.1509 0.4527,0.4527 0,0.30179 -0.150901,0.45269 -0.4527,0.45269 -0.301799,0 -0.452699,-0.1509 -0.452699,-0.45269 z m 1.584448,0 c 0,-0.3018 0.150901,-0.4527 0.4527,-0.4527 0.301799,0 0.452699,0.1509 0.452699,0.4527 0,0.30179 -0.1509,0.45269 -0.452699,0.45269 -0.301799,0 -0.4527,-0.1509 -0.4527,-0.45269 z m 1.358098,0 c 0,-0.3018 0.150901,-0.4527 0.4527,-0.4527 0.301799,0 0.452699,0.1509 0.452699,0.4527 0,0.30179 -0.1509,0.45269 -0.452699,0.45269 -0.301799,0 -0.4527,-0.1509 -0.4527,-0.45269 z m 1.584448,0 c 0,-0.3018 0.150901,-0.4527 0.4527,-0.4527 0.301799,0 0.4527,0.1509 0.4527,0.4527 0,0.30179 -0.150901,0.45269 -0.4527,0.45269 -0.301799,0 -0.4527,-0.1509 -0.4527,-0.45269 z m 1.584449,0 c 0,-0.3018 0.150901,-0.4527 0.452699,-0.4527 0.301799,0 0.4527,0.1509 0.4527,0.4527 0,0.30179 -0.150901,0.45269 -0.4527,0.45269 -0.301798,0 -0.452699,-0.1509 -0.452699,-0.45269 z m 1.358099,0 c 0,-0.3018 0.150901,-0.4527 0.4527,-0.4527 0.301798,0 0.452699,0.1509 0.452699,0.4527 0,0.30179 -0.150901,0.45269 -0.452699,0.45269 -0.301799,0 -0.4527,-0.1509 -0.4527,-0.45269 z m 1.584448,0 c 0,-0.3018 0.150901,-0.4527 0.4527,-0.4527 0.301799,0 0.4527,0.1509 0.4527,0.4527 0,0.30179 -0.150901,0.45269 -0.4527,0.45269 -0.301799,0 -0.4527,-0.1509 -0.4527,-0.45269 z m 1.584449,0 c 0,-0.3018 0.1509,-0.4527 0.452699,-0.4527 0.301799,0 0.4527,0.1509 0.4527,0.4527 0,0.30179 -0.150901,0.45269 -0.4527,0.45269 -0.301799,0 -0.452699,-0.1509 -0.452699,-0.45269 z m -31.915317,-1.3581 c 0,-0.3018 0.1509,-0.4527 0.452699,-0.4527 0.3018,0 0.4527,0.1509 0.4527,0.4527 0,0.3018 -0.1509,0.4527 -0.4527,0.4527 -0.301799,0 -0.452699,-0.1509 -0.452699,-0.4527 z m 1.584448,0 c 0,-0.3018 0.1509,-0.4527 0.4527,-0.4527 0.301799,0 0.452699,0.1509 0.452699,0.4527 0,0.3018 -0.1509,0.4527 -0.452699,0.4527 -0.3018,0 -0.4527,-0.1509 -0.4527,-0.4527 z m 1.358099,0 c 0,-0.3018 0.1509,-0.4527 0.452699,-0.4527 0.301799,0 0.452699,0.1509 0.452699,0.4527 0,0.3018 -0.1509,0.4527 -0.452699,0.4527 -0.301799,0 -0.452699,-0.1509 -0.452699,-0.4527 z m 3.168897,0 c 0,-0.3018 0.150899,-0.4527 0.452698,-0.4527 0.3018,0 0.4527,0.1509 0.4527,0.4527 0,0.3018 -0.1509,0.4527 -0.4527,0.4527 -0.301799,0 -0.452698,-0.1509 -0.452698,-0.4527 z m 1.358098,0 c 0,-0.3018 0.1509,-0.4527 0.4527,-0.4527 0.301799,0 0.452699,0.1509 0.452699,0.4527 0,0.3018 -0.1509,0.4527 -0.452699,0.4527 -0.3018,0 -0.4527,-0.1509 -0.4527,-0.4527 z m 1.584448,0 c 0,-0.3018 0.1509,-0.4527 0.4527,-0.4527 0.3018,0 0.4527,0.1509 0.4527,0.4527 0,0.3018 -0.1509,0.4527 -0.4527,0.4527 -0.3018,0 -0.4527,-0.1509 -0.4527,-0.4527 z m 4.526996,0 c 0,-0.3018 0.150899,-0.4527 0.452699,-0.4527 0.301799,0 0.452699,0.1509 0.452699,0.4527 0,0.3018 -0.1509,0.4527 -0.452699,0.4527 -0.3018,0 -0.452699,-0.1509 -0.452699,-0.4527 z m 1.584448,0 c 0,-0.3018 0.1509,-0.4527 0.452699,-0.4527 0.301799,0 0.4527,0.1509 0.4527,0.4527 0,0.3018 -0.150901,0.4527 -0.4527,0.4527 -0.301799,0 -0.452699,-0.1509 -0.452699,-0.4527 z m 1.584448,0 c 0,-0.3018 0.150901,-0.4527 0.452699,-0.4527 0.301799,0 0.4527,0.1509 0.4527,0.4527 0,0.3018 -0.150901,0.4527 -0.4527,0.4527 -0.301798,0 -0.452699,-0.1509 -0.452699,-0.4527 z m 1.358099,0 c 0,-0.3018 0.150901,-0.4527 0.4527,-0.4527 0.301798,0 0.452699,0.1509 0.452699,0.4527 0,0.3018 -0.150901,0.4527 -0.452699,0.4527 -0.301799,0 -0.4527,-0.1509 -0.4527,-0.4527 z m 1.584448,0 c 0,-0.3018 0.150901,-0.4527 0.4527,-0.4527 0.301799,0 0.4527,0.1509 0.4527,0.4527 0,0.3018 -0.150901,0.4527 -0.4527,0.4527 -0.301799,0 -0.4527,-0.1509 -0.4527,-0.4527 z m 1.584449,0 c 0,-0.3018 0.1509,-0.4527 0.452699,-0.4527 0.301799,0 0.4527,0.1509 0.4527,0.4527 0,0.3018 -0.150901,0.4527 -0.4527,0.4527 -0.301799,0 -0.452699,-0.1509 -0.452699,-0.4527 z m 1.584448,0 c 0,-0.3018 0.150901,-0.4527 0.4527,-0.4527 0.301799,0 0.452699,0.1509 0.452699,0.4527 0,0.3018 -0.1509,0.4527 -0.452699,0.4527 -0.301799,0 -0.4527,-0.1509 -0.4527,-0.4527 z m 1.358098,0 c 0,-0.3018 0.150901,-0.4527 0.4527,-0.4527 0.301799,0 0.452699,0.1509 0.452699,0.4527 0,0.3018 -0.1509,0.4527 -0.452699,0.4527 -0.301799,0 -0.4527,-0.1509 -0.4527,-0.4527 z m 1.584448,0 c 0,-0.3018 0.150901,-0.4527 0.4527,-0.4527 0.301799,0 0.4527,0.1509 0.4527,0.4527 0,0.3018 -0.150901,0.4527 -0.4527,0.4527 -0.301799,0 -0.4527,-0.1509 -0.4527,-0.4527 z m 1.584449,0 c 0,-0.3018 0.150901,-0.4527 0.452699,-0.4527 0.301799,0 0.4527,0.1509 0.4527,0.4527 0,0.3018 -0.150901,0.4527 -0.4527,0.4527 -0.301798,0 -0.452699,-0.1509 -0.452699,-0.4527 z m 1.358099,0 c 0,-0.3018 0.150901,-0.4527 0.4527,-0.4527 0.301798,0 0.452699,0.1509 0.452699,0.4527 0,0.3018 -0.150901,0.4527 -0.452699,0.4527 -0.301799,0 -0.4527,-0.1509 -0.4527,-0.4527 z m 1.584448,0 c 0,-0.3018 0.150901,-0.4527 0.4527,-0.4527 0.301799,0 0.4527,0.1509 0.4527,0.4527 0,0.3018 -0.150901,0.4527 -0.4527,0.4527 -0.301799,0 -0.4527,-0.1509 -0.4527,-0.4527 z m 1.584449,0 c 0,-0.3018 0.1509,-0.4527 0.452699,-0.4527 0.301799,0 0.4527,0.1509 0.4527,0.4527 0,0.3018 -0.150901,0.4527 -0.4527,0.4527 -0.301799,0 -0.452699,-0.1509 -0.452699,-0.4527 z m -28.350309,-1.89954 c -0.217861,-0.16537 -0.400706,-0.49317 -0.406321,-0.72844 -0.0142,-0.59492 -0.626617,-1.90338 -0.650456,-1.38973 -0.0269,0.57945 -0.923783,0.52451 -0.923783,-0.0566 0,-0.30784 0.1509,-0.4527 0.471562,-0.4527 0.27665,0 0.432579,-0.11695 0.37725,-0.28294 -0.06655,-0.19964 -0.721804,-0.28294 -2.225773,-0.28294 h -2.13146 l -0.06611,1.75421 -0.06611,1.75421 3.008656,-0.007 c 2.550549,-0.006 2.948343,-0.053 2.612544,-0.30789 z m -3.338658,-0.59031 c 0,-0.3018 0.150899,-0.4527 0.452699,-0.4527 0.301799,0 0.452699,0.1509 0.452699,0.4527 0,0.3018 -0.1509,0.4527 -0.452699,0.4527 -0.3018,0 -0.452699,-0.1509 -0.452699,-0.4527 z m 1.358098,0 c 0,-0.3018 0.1509,-0.4527 0.4527,-0.4527 0.301799,0 0.452699,0.1509 0.452699,0.4527 0,0.3018 -0.1509,0.4527 -0.452699,0.4527 -0.3018,0 -0.4527,-0.1509 -0.4527,-0.4527 z m -1.358098,-1.58444 c 0,-0.3018 0.150899,-0.45271 0.452699,-0.45271 0.301799,0 0.452699,0.15091 0.452699,0.45271 0,0.30179 -0.1509,0.45269 -0.452699,0.45269 -0.3018,0 -0.452699,-0.1509 -0.452699,-0.45269 z m 11.867028,1.52785 c 0.06852,-0.52909 0.151152,-1.31848 0.183631,-1.75421 l 0.05906,-0.79222 -4.357234,-0.0615 c -2.396478,-0.0338 -4.357232,-0.007 -4.357232,0.0596 0,0.0666 0.09336,0.298 0.207468,0.51417 0.114108,0.21617 0.323852,0.7088 0.466099,1.09473 0.212499,0.57653 0.357169,0.68285 0.811105,0.59608 0.444984,-0.085 0.552475,-0.0124 0.552475,0.37347 0,0.27495 -0.144666,0.47909 -0.339524,0.47909 -0.186739,0 -0.339525,0.10185 -0.339525,0.22634 0,0.14113 1.315751,0.22635 3.494552,0.22635 h 3.494553 z m -5.981934,0.0566 c 0,-0.3018 0.150899,-0.4527 0.452698,-0.4527 0.3018,0 0.4527,0.1509 0.4527,0.4527 0,0.3018 -0.1509,0.4527 -0.4527,0.4527 -0.301799,0 -0.452698,-0.1509 -0.452698,-0.4527 z m 1.584448,0 c 0,-0.3018 0.150899,-0.4527 0.452699,-0.4527 0.3018,0 0.4527,0.1509 0.4527,0.4527 0,0.3018 -0.1509,0.4527 -0.4527,0.4527 -0.3018,0 -0.452699,-0.1509 -0.452699,-0.4527 z m 1.584448,0 c 0,-0.3018 0.1509,-0.4527 0.452699,-0.4527 0.3018,0 0.4527,0.1509 0.4527,0.4527 0,0.3018 -0.1509,0.4527 -0.4527,0.4527 -0.301799,0 -0.452699,-0.1509 -0.452699,-0.4527 z m 1.584448,0 c 0,-0.3018 0.1509,-0.4527 0.4527,-0.4527 0.301799,0 0.452699,0.1509 0.452699,0.4527 0,0.3018 -0.1509,0.4527 -0.452699,0.4527 -0.3018,0 -0.4527,-0.1509 -0.4527,-0.4527 z m -6.111443,-1.58445 c 0,-0.3018 0.1509,-0.4527 0.452699,-0.4527 0.3018,0 0.4527,0.1509 0.4527,0.4527 0,0.3018 -0.1509,0.4527 -0.4527,0.4527 -0.301799,0 -0.452699,-0.1509 -0.452699,-0.4527 z m 1.358099,0 c 0,-0.3018 0.150899,-0.4527 0.452698,-0.4527 0.3018,0 0.4527,0.1509 0.4527,0.4527 0,0.3018 -0.1509,0.4527 -0.4527,0.4527 -0.301799,0 -0.452698,-0.1509 -0.452698,-0.4527 z m 1.584448,0 c 0,-0.3018 0.150899,-0.4527 0.452699,-0.4527 0.3018,0 0.4527,0.1509 0.4527,0.4527 0,0.3018 -0.1509,0.4527 -0.4527,0.4527 -0.3018,0 -0.452699,-0.1509 -0.452699,-0.4527 z m 1.584448,0 c 0,-0.3018 0.1509,-0.4527 0.452699,-0.4527 0.3018,0 0.4527,0.1509 0.4527,0.4527 0,0.3018 -0.1509,0.4527 -0.4527,0.4527 -0.301799,0 -0.452699,-0.1509 -0.452699,-0.4527 z m 1.584448,0 c 0,-0.3018 0.1509,-0.4527 0.4527,-0.4527 0.301799,0 0.452699,0.1509 0.452699,0.4527 0,0.3018 -0.1509,0.4527 -0.452699,0.4527 -0.3018,0 -0.4527,-0.1509 -0.4527,-0.4527 z m 23.719658,0.73564 -0.0661,-1.75421 -10.436241,-0.0589 -10.436238,-0.0589 -0.211159,1.81303 -0.21116,1.81304 h 10.713508 10.713508 z m -20.777111,0.84881 c 0,-0.3018 0.1509,-0.4527 0.4527,-0.4527 0.301799,0 0.4527,0.1509 0.4527,0.4527 0,0.3018 -0.150901,0.4527 -0.4527,0.4527 -0.3018,0 -0.4527,-0.1509 -0.4527,-0.4527 z m 1.584449,0 c 0,-0.3018 0.150901,-0.4527 0.452699,-0.4527 0.301799,0 0.4527,0.1509 0.4527,0.4527 0,0.3018 -0.150901,0.4527 -0.4527,0.4527 -0.301798,0 -0.452699,-0.1509 -0.452699,-0.4527 z m 1.584448,0 c 0,-0.3018 0.150901,-0.4527 0.4527,-0.4527 0.301799,0 0.4527,0.1509 0.4527,0.4527 0,0.3018 -0.150901,0.4527 -0.4527,0.4527 -0.301799,0 -0.4527,-0.1509 -0.4527,-0.4527 z m 1.358098,0 c 0,-0.3018 0.150901,-0.4527 0.4527,-0.4527 0.301799,0 0.4527,0.1509 0.4527,0.4527 0,0.3018 -0.150901,0.4527 -0.4527,0.4527 -0.301799,0 -0.4527,-0.1509 -0.4527,-0.4527 z m 1.584449,0 c 0,-0.3018 0.1509,-0.4527 0.452699,-0.4527 0.301799,0 0.4527,0.1509 0.4527,0.4527 0,0.3018 -0.150901,0.4527 -0.4527,0.4527 -0.301799,0 -0.452699,-0.1509 -0.452699,-0.4527 z m 1.584448,0 c 0,-0.3018 0.150901,-0.4527 0.4527,-0.4527 0.301799,0 0.452699,0.1509 0.452699,0.4527 0,0.3018 -0.1509,0.4527 -0.452699,0.4527 -0.301799,0 -0.4527,-0.1509 -0.4527,-0.4527 z m 1.584448,0 c 0,-0.3018 0.150901,-0.4527 0.4527,-0.4527 0.301799,0 0.4527,0.1509 0.4527,0.4527 0,0.3018 -0.150901,0.4527 -0.4527,0.4527 -0.301799,0 -0.4527,-0.1509 -0.4527,-0.4527 z m 1.358099,0 c 0,-0.3018 0.150901,-0.4527 0.4527,-0.4527 0.301799,0 0.4527,0.1509 0.4527,0.4527 0,0.3018 -0.150901,0.4527 -0.4527,0.4527 -0.301799,0 -0.4527,-0.1509 -0.4527,-0.4527 z m 1.584449,0 c 0,-0.3018 0.150901,-0.4527 0.452699,-0.4527 0.301799,0 0.4527,0.1509 0.4527,0.4527 0,0.3018 -0.150901,0.4527 -0.4527,0.4527 -0.301798,0 -0.452699,-0.1509 -0.452699,-0.4527 z m 1.584448,0 c 0,-0.3018 0.150901,-0.4527 0.4527,-0.4527 0.301799,0 0.452699,0.1509 0.452699,0.4527 0,0.3018 -0.1509,0.4527 -0.452699,0.4527 -0.301799,0 -0.4527,-0.1509 -0.4527,-0.4527 z m 1.358098,0 c 0,-0.3018 0.150901,-0.4527 0.4527,-0.4527 0.301799,0 0.4527,0.1509 0.4527,0.4527 0,0.3018 -0.150901,0.4527 -0.4527,0.4527 -0.301799,0 -0.4527,-0.1509 -0.4527,-0.4527 z m 1.584449,0 c 0,-0.3018 0.1509,-0.4527 0.452699,-0.4527 0.301799,0 0.4527,0.1509 0.4527,0.4527 0,0.3018 -0.150901,0.4527 -0.4527,0.4527 -0.301799,0 -0.452699,-0.1509 -0.452699,-0.4527 z m 1.358099,0 c 0,-0.3018 0.1509,-0.4527 0.452699,-0.4527 0.301799,0 0.4527,0.1509 0.4527,0.4527 0,0.3018 -0.150901,0.4527 -0.4527,0.4527 -0.301799,0 -0.452699,-0.1509 -0.452699,-0.4527 z m -18.107982,-1.58445 c 0,-0.3018 0.1509,-0.4527 0.4527,-0.4527 0.301799,0 0.4527,0.1509 0.4527,0.4527 0,0.3018 -0.150901,0.4527 -0.4527,0.4527 -0.3018,0 -0.4527,-0.1509 -0.4527,-0.4527 z m 1.584449,0 c 0,-0.3018 0.150901,-0.4527 0.452699,-0.4527 0.301799,0 0.4527,0.1509 0.4527,0.4527 0,0.3018 -0.150901,0.4527 -0.4527,0.4527 -0.301798,0 -0.452699,-0.1509 -0.452699,-0.4527 z m 1.584448,0 c 0,-0.3018 0.150901,-0.4527 0.4527,-0.4527 0.301799,0 0.4527,0.1509 0.4527,0.4527 0,0.3018 -0.150901,0.4527 -0.4527,0.4527 -0.301799,0 -0.4527,-0.1509 -0.4527,-0.4527 z m 1.358098,0 c 0,-0.3018 0.150901,-0.4527 0.4527,-0.4527 0.301799,0 0.4527,0.1509 0.4527,0.4527 0,0.3018 -0.150901,0.4527 -0.4527,0.4527 -0.301799,0 -0.4527,-0.1509 -0.4527,-0.4527 z m 1.584449,0 c 0,-0.3018 0.1509,-0.4527 0.452699,-0.4527 0.301799,0 0.4527,0.1509 0.4527,0.4527 0,0.3018 -0.150901,0.4527 -0.4527,0.4527 -0.301799,0 -0.452699,-0.1509 -0.452699,-0.4527 z m 1.584448,0 c 0,-0.3018 0.150901,-0.4527 0.4527,-0.4527 0.301799,0 0.452699,0.1509 0.452699,0.4527 0,0.3018 -0.1509,0.4527 -0.452699,0.4527 -0.301799,0 -0.4527,-0.1509 -0.4527,-0.4527 z m 1.584448,0 c 0,-0.3018 0.150901,-0.4527 0.4527,-0.4527 0.301799,0 0.4527,0.1509 0.4527,0.4527 0,0.3018 -0.150901,0.4527 -0.4527,0.4527 -0.301799,0 -0.4527,-0.1509 -0.4527,-0.4527 z m 1.358099,0 c 0,-0.3018 0.150901,-0.4527 0.4527,-0.4527 0.301799,0 0.4527,0.1509 0.4527,0.4527 0,0.3018 -0.150901,0.4527 -0.4527,0.4527 -0.301799,0 -0.4527,-0.1509 -0.4527,-0.4527 z m 1.584449,0 c 0,-0.3018 0.150901,-0.4527 0.452699,-0.4527 0.301799,0 0.4527,0.1509 0.4527,0.4527 0,0.3018 -0.150901,0.4527 -0.4527,0.4527 -0.301798,0 -0.452699,-0.1509 -0.452699,-0.4527 z m 1.584448,0 c 0,-0.3018 0.150901,-0.4527 0.4527,-0.4527 0.301799,0 0.452699,0.1509 0.452699,0.4527 0,0.3018 -0.1509,0.4527 -0.452699,0.4527 -0.301799,0 -0.4527,-0.1509 -0.4527,-0.4527 z m 1.358098,0 c 0,-0.3018 0.150901,-0.4527 0.4527,-0.4527 0.301799,0 0.4527,0.1509 0.4527,0.4527 0,0.3018 -0.150901,0.4527 -0.4527,0.4527 -0.301799,0 -0.4527,-0.1509 -0.4527,-0.4527 z m 1.584449,0 c 0,-0.3018 0.1509,-0.4527 0.452699,-0.4527 0.301799,0 0.4527,0.1509 0.4527,0.4527 0,0.3018 -0.150901,0.4527 -0.4527,0.4527 -0.301799,0 -0.452699,-0.1509 -0.452699,-0.4527 z m 1.358099,0 c 0,-0.3018 0.1509,-0.4527 0.452699,-0.4527 0.301799,0 0.4527,0.1509 0.4527,0.4527 0,0.3018 -0.150901,0.4527 -0.4527,0.4527 -0.301799,0 -0.452699,-0.1509 -0.452699,-0.4527 z m -19.546121,-3.56501 c -0.270429,-2.84858 -0.987132,-4.36439 -2.414318,-5.10619 -2.154984,-1.12008 -6.096265,0.90374 -6.792046,3.48767 -0.220606,0.81928 -0.131761,2.48559 0.158708,2.97662 0.05523,0.0934 2.146186,0.16977 4.646563,0.16977 h 4.546141 z"
       id="path400" /></g></svg>
