<?xml version="1.0" encoding="UTF-8" standalone="no"?>
<!-- Created with Inkscape (http://www.inkscape.org/) -->

<svg
   width="72.648537mm"
   height="41.218067mm"
   viewBox="0 0 72.648537 41.218067"
   version="1.1"
   id="svg5"
   xml:space="preserve"
   xmlns="http://www.w3.org/2000/svg"
   xmlns:svg="http://www.w3.org/2000/svg"><defs
     id="defs2" /><g
     id="layer1"
     transform="translate(94.97062,-121.92888)"><path
       style="fill:#000000;stroke-width:0.264583"
       d="m -80.983224,161.8756 c -0.231325,-0.23132 -0.3175,-2.26387 -0.3175,-7.48867 0,-7.16621 4.77e-4,-7.17212 0.678239,-8.53223 1.221767,-2.45176 3.795706,-3.61666 6.537819,-2.95883 1.290694,0.30963 1.716806,0.66185 6.59162,5.44851 2.994507,2.94035 5.420842,5.11747 5.703274,5.11747 0.598948,0 1.126548,-0.49008 1.126548,-1.04644 0,-0.2263 -4.417504,-4.81616 -9.816679,-10.19969 -6.465604,-6.44687 -9.986085,-10.14952 -10.312939,-10.84657 -2.275356,-4.85247 3.444427,-9.83584 7.854394,-6.84316 0.650148,0.44121 1.215938,0.62638 1.656507,0.54216 1.210539,-0.2314 3.209904,0.64035 4.775247,2.08209 1.662114,1.53088 2.375862,1.96995 3.202317,1.96995 0.68988,0 5.116841,3.85432 5.24115,4.5632 0.106807,0.60904 -0.402232,1.2598 -0.978746,1.25123 -0.236845,-0.004 -1.356032,-0.81298 -2.487087,-1.7988 -1.408911,-1.22799 -2.423919,-1.89067 -3.223418,-2.10451 -0.811485,-0.21704 -1.610655,-0.7453 -2.62356,-1.73421 -2.297574,-2.24315 -3.870519,-2.62711 -3.870519,-0.94481 0,0.67051 0.316971,1.1522 1.599549,2.43081 1.183867,1.1802 1.682367,1.90446 1.918229,2.78696 0.272083,1.01801 1.089894,2.00027 5.593011,6.71766 l 5.274335,5.5253 2.319522,-2.30877 2.319526,-2.30878 -0.648544,-0.60105 c -0.356698,-0.33058 -0.648544,-0.76152 -0.648544,-0.95764 0,-0.52405 0.557567,-0.99206 1.177395,-0.98829 0.755492,0.005 2.791355,1.95377 2.791355,2.67249 0,0.33421 0.565935,1.17876 1.334275,1.99117 1.195866,1.26445 1.301932,1.47122 1.022506,1.99334 -0.28997,0.54181 0.0506,0.93523 4.870426,5.62623 2.850206,2.77402 5.250611,5.29584 5.33423,5.60404 0.08362,0.3082 0.02609,0.89163 -0.127841,1.29651 -0.251746,0.66214 -0.196567,0.80569 0.548965,1.42808 1.750431,1.46133 0.290817,2.87718 -1.558864,1.51213 -0.831024,-0.61329 -0.919213,-0.62618 -1.602369,-0.2341 -0.428816,0.24611 -0.986949,0.34865 -1.371854,0.25205 -0.356902,-0.0896 -2.978611,-2.42008 -5.826022,-5.17888 -3.883549,-3.76271 -5.271262,-4.95643 -5.553927,-4.77753 -0.601366,0.3806 -0.730179,0.31769 -2.204157,-1.07633 -0.901094,-0.85222 -1.6311,-1.32292 -2.051706,-1.32292 -0.499033,0 -1.620036,-1.01332 -4.756356,-4.29948 -7.990375,-8.37211 -8.16564,-8.57584 -8.16564,-9.49213 0,-0.67559 -0.281958,-1.10169 -1.448336,-2.18875 -1.704291,-1.5884 -2.652605,-3.47267 -2.406893,-4.78243 0.138997,-0.74092 0.05835,-0.93293 -0.562795,-1.33992 -0.398774,-0.26129 -1.208632,-0.47507 -1.799684,-0.47507 -2.380837,0 -3.895855,2.20988 -3.04652,4.4438 0.143425,0.37723 4.757097,5.13356 10.252604,10.56962 l 9.991833,9.88374 v 1.64014 c 0,1.51804 -0.06432,1.69761 -0.864072,2.41218 -0.716862,0.64052 -1.095449,0.77205 -2.222219,0.77205 h -1.358152 l -5.189349,-5.12957 c -4.143941,-4.0962 -5.398653,-5.18736 -6.228325,-5.41644 -1.205573,-0.33288 -2.089836,-0.17302 -3.151672,0.56976 -1.381996,0.96674 -1.49142,1.63914 -1.49142,9.16469 0,6.52964 -0.02595,6.89224 -0.511773,7.15225 -0.659948,0.35319 -0.898679,0.34511 -1.287394,-0.0436 z m 41.23049,-4.05707 0.629814,-0.6704 -4.880491,-4.88585 c -2.684269,-2.68721 -4.962888,-4.88584 -5.063593,-4.88584 -0.100706,0 -0.44594,0.36912 -0.767186,0.82027 l -0.584084,0.82027 4.730499,4.73598 c 2.601772,2.60478 4.859811,4.73598 5.017863,4.73598 0.158048,0 0.57078,-0.30169 0.917178,-0.67041 z m -11.52203,-11.23155 1.566688,-1.5832 -0.769216,-0.80289 -0.769212,-0.80289 -1.662293,1.64752 -1.662292,1.64751 0.707602,0.73858 c 0.389178,0.40622 0.778348,0.73858 0.864817,0.73858 0.08647,0 0.862229,-0.71245 1.723906,-1.58321 z m 8.97731,0.86118 c -0.904116,-0.90412 -1.529461,-2.78009 -1.535539,-4.60645 -0.0049,-1.48585 0.135094,-2.0345 0.908526,-3.55947 1.137262,-2.24233 1.238957,-4.18462 0.302221,-5.77227 -0.659316,-1.11746 -0.572411,-1.89082 0.241503,-2.14915 0.667192,-0.21176 1.182982,0.21514 1.906757,1.57813 0.448509,0.84462 0.571201,1.53124 0.5705,3.1927 -7.94e-4,1.86807 -0.101245,2.30999 -0.855318,3.76276 -1.037818,1.99943 -1.151176,3.89347 -0.325253,5.43446 0.666107,1.24282 0.67147,1.95279 0.01738,2.30284 -0.667284,0.35712 -0.694121,0.35312 -1.230791,-0.18355 z m 5.116001,-6.44292 c -0.612264,-0.35661 -0.583969,-0.88623 0.125146,-2.34266 0.895858,-1.83997 0.796464,-3.66072 -0.332732,-6.09519 -0.771679,-1.66369 -0.916893,-2.27129 -0.916893,-3.83646 0,-2.03353 0.602605,-3.99852 1.465792,-4.7797 0.429003,-0.38824 0.637064,-0.41825 1.181116,-0.17036 0.809051,0.36863 0.826376,0.80328 0.08932,2.241 -0.889323,1.73475 -0.783699,3.69044 0.327519,6.06419 0.779799,1.66577 0.902002,2.19963 0.895774,3.91329 -0.0079,2.16739 -0.827842,4.55467 -1.730293,5.03765 -0.567894,0.30392 -0.526376,0.30512 -1.10475,-0.0318 z m -19.236351,-3.53611 c -0.505534,-0.60914 -0.235352,-1.58917 0.465497,-1.68852 1.170263,-0.1659 1.760591,0.85319 0.958726,1.65505 -0.518242,0.51825 -1.012256,0.52985 -1.424223,0.0335 z"
       id="path381" /></g></svg>
