<?xml version="1.0" encoding="UTF-8" standalone="no"?>
<!-- Created with Inkscape (http://www.inkscape.org/) -->

<svg
   width="72.648537mm"
   height="41.218067mm"
   viewBox="0 0 72.648537 41.218067"
   version="1.1"
   id="svg5"
   xml:space="preserve"
   xmlns="http://www.w3.org/2000/svg"
   xmlns:svg="http://www.w3.org/2000/svg"><defs
     id="defs2" /><g
     id="layer1"
     transform="translate(94.97062,-121.92888)"><path
       style="fill:#000000;stroke-width:0.17127"
       d="m -70.919655,151.09266 v -6.4389 h -9.505486 -9.505488 v -1.45579 -1.4558 h 9.505488 9.505486 v -6.42263 c 0,-3.53244 0.03135,-6.42262 0.06966,-6.42262 0.03831,0 5.073248,2.89018 11.188751,6.42262 8.244831,4.76239 11.259523,6.42263 11.662341,6.42263 h 0.543247 v -6.42263 -6.42262 h 1.455794 1.455796 v 6.42262 6.42263 h 8.912968 8.912969 l -0.04974,1.41298 -0.04975,1.41298 -8.863224,0.0443 -8.863225,0.0443 v 6.42108 6.42109 h -1.455795 -1.455795 v -6.42262 -6.42263 h -0.585194 c -0.524472,0 -7.330816,3.82679 -22.150904,12.45407 l -0.727898,0.42373 z"
       id="path495" /></g></svg>
