<?xml version="1.0" encoding="UTF-8" standalone="no"?>
<!-- Created with Inkscape (http://www.inkscape.org/) -->

<svg
   width="72.648537mm"
   height="41.218067mm"
   viewBox="0 0 72.648537 41.218067"
   version="1.1"
   id="svg5"
   xml:space="preserve"
   xmlns="http://www.w3.org/2000/svg"
   xmlns:svg="http://www.w3.org/2000/svg"><defs
     id="defs2" /><g
     id="layer1"
     transform="translate(94.97062,-121.92888)"><path
       style="fill:#000000;stroke-width:0.216006"
       d="m -54.030051,161.71855 c -0.05743,-0.15538 -0.129445,-2.04912 -0.160027,-4.2083 l -0.05561,-3.92578 -6.9122,4.00017 c -3.801707,2.20008 -7.033702,4.04998 -7.182206,4.11089 -0.210852,0.0865 -0.270008,-0.86447 -0.270008,-4.34052 v -4.45123 H -80.27444 -91.938778 v -1.08003 -1.08003 h 11.664338 11.664338 v -8.20824 -8.20824 H -80.27444 -91.938778 v -1.08003 -1.08003 h 11.658713 11.658713 l 0.0596,-3.22383 0.0596,-3.22384 6.912199,4.00025 c 3.801711,2.20012 7.031476,4.0492 7.177254,4.10906 0.202504,0.0831 0.278966,-0.82648 0.32401,-3.85449 l 0.05895,-3.96333 h 0.972028 0.972028 l 0.06198,4.64413 0.06198,4.64414 6.479192,3.72611 6.479194,3.7261 h 7.985243 7.985245 v 0.96452 0.96451 l -8.046234,0.0616 -8.046233,0.0615 -6.372184,3.70331 -6.372184,3.70331 -0.108004,4.82894 -0.108003,4.82894 -0.920003,0.0665 c -0.610873,0.0442 -0.955091,-0.0284 -1.024427,-0.216 z"
       id="path828" /></g></svg>
