<?xml version="1.0" encoding="UTF-8" standalone="no"?>
<!-- Created with Inkscape (http://www.inkscape.org/) -->

<svg
   width="72.648537mm"
   height="41.218067mm"
   viewBox="0 0 72.648537 41.218067"
   version="1.1"
   id="svg5"
   xml:space="preserve"
   xmlns="http://www.w3.org/2000/svg"
   xmlns:svg="http://www.w3.org/2000/svg"><defs
     id="defs2" /><g
     id="layer1"
     transform="translate(94.97062,-121.92888)"><path
       style="fill:#000000;stroke-width:0.366226"
       d="m -63.094337,161.76452 c -2.908075,-1.02817 -4.631247,-4.2222 -3.847712,-7.13203 0.21567,-0.80094 1.050978,-2.2175 1.856242,-3.14791 l 1.464113,-1.69164 -0.102553,-4.45131 -0.102552,-4.4513 -1.919475,-0.19298 c -2.307398,-0.23198 -3.171078,-0.97739 -3.171078,-2.73684 0,-1.73534 0.775676,-2.4032 3.12405,-2.68981 l 1.966503,-0.24 0.203051,-2.74671 c 0.223475,-3.02293 0.608023,-3.98777 2.302935,-5.77811 1.513536,-1.59873 3.949107,-2.27887 8.160638,-2.27887 3.025811,0 3.499579,0.0923 4.385717,0.85453 0.73066,0.62849 0.984317,1.17601 0.958905,2.06981 -0.05769,2.02888 -0.722415,2.35827 -5.287405,2.62001 -4.748485,0.27227 -5.047328,0.47694 -5.047328,3.45687 v 1.90292 l 2.562413,0.1448 c 3.015047,0.17036 3.809933,0.73921 3.809933,2.72651 0,1.82394 -1.124533,2.70475 -3.453151,2.70475 -3.002341,0 -2.919195,-0.14459 -2.919195,5.07598 v 4.6314 l 1.150954,1.08632 c 3.447869,3.25424 2.629983,8.12294 -1.700294,10.12149 -1.74501,0.80538 -2.453898,0.8283 -4.394721,0.14212 z m 3.479155,-4.21088 c 0.89059,-0.89059 0.941317,-2.09201 0.126346,-2.99254 -0.795438,-0.87894 -2.142135,-0.8513 -3.056166,0.0627 -0.945166,0.94517 -0.926679,1.76029 0.06384,2.81465 0.978049,1.04109 1.902889,1.07825 2.865976,0.11517 z"
       id="path742" /></g></svg>
