<?xml version="1.0" encoding="UTF-8" standalone="no"?>
<!-- Created with Inkscape (http://www.inkscape.org/) -->

<svg
   width="72.648537mm"
   height="41.218067mm"
   viewBox="0 0 72.648537 41.218067"
   version="1.1"
   id="svg5"
   xml:space="preserve"
   xmlns="http://www.w3.org/2000/svg"
   xmlns:svg="http://www.w3.org/2000/svg"><defs
     id="defs2" /><g
     id="layer1"
     transform="translate(94.97062,-121.92888)"><g
       id="g1457"
       transform="translate(56.03777,28.804462)"><path
         style="fill:#000000;stroke-width:0.264583"
         d="m -115.71137,131.15664 c -0.3684,-0.28979 -2.44237,-1.73597 -4.60881,-3.21373 -6.72393,-4.58652 -9.84545,-7.37105 -12.13586,-10.82572 -2.27915,-3.43768 -3.18821,-6.62119 -3.00213,-10.51334 0.0915,-1.91366 0.25989,-2.64562 0.94597,-4.11172 1.15846,-2.47559 3.11476,-4.46717 5.58937,-5.69019 1.93567,-0.95666 2.07119,-0.98371 4.92826,-0.98371 2.85369,0 2.99433,0.028 4.90852,0.97603 1.08386,0.53681 2.43574,1.45385 3.00418,2.03787 l 1.03353,1.06184 1.34772,-1.21835 c 2.12947,-1.92507 4.30367,-2.81699 7.16855,-2.94076 1.92627,-0.0832 2.70119,0.005 4.05572,0.4631 9.189032,3.10588 10.868782,13.87772 3.560902,22.83515 -2.046242,2.50812 -4.376092,4.49628 -9.230282,7.8766 -2.31394,1.61137 -4.74295,3.3117 -5.3978,3.77852 -0.65484,0.46681 -1.25978,0.88173 -1.34431,0.92203 -0.0845,0.0403 -0.45511,-0.16382 -0.82353,-0.45362 z m 3.90171,-3.82914 c 7.42604,-5.15872 11.50089,-8.79213 13.314892,-11.87246 1.66772,-2.83194 2.22084,-4.76247 2.25281,-7.86285 0.0271,-2.62797 -0.018,-2.87348 -0.83443,-4.5424 -3.349642,-6.84727 -12.750532,-7.58175 -17.050382,-1.33213 l -0.83133,1.20831 -0.40229,-0.64345 c -0.74359,-1.18938 -3.08001,-3.31134 -4.29204,-3.89807 -4.84252,-2.34423 -10.92368,-0.2181 -13.19465,4.61318 -2.57564,5.47944 -0.0155,12.6435 6.50702,18.20884 1.09306,0.93265 3.48119,2.74559 5.30695,4.02875 1.82576,1.28315 3.9304,2.76755 4.67697,3.29865 0.74657,0.53111 1.48281,0.8883 1.63607,0.79375 0.15326,-0.0945 1.46295,-0.99459 2.91041,-2.00012 z"
         id="path1877" /></g></g></svg>
