<?xml version="1.0" encoding="UTF-8" standalone="no"?>
<!-- Created with Inkscape (http://www.inkscape.org/) -->

<svg
   width="72.648537mm"
   height="41.218067mm"
   viewBox="0 0 72.648537 41.218067"
   version="1.1"
   id="svg5"
   xml:space="preserve"
   xmlns="http://www.w3.org/2000/svg"
   xmlns:svg="http://www.w3.org/2000/svg"><defs
     id="defs2" /><g
     id="layer1"
     transform="translate(94.97062,-121.92888)"><g
       id="g1457"
       transform="translate(56.03777,28.804462)"><path
         style="fill:#000000;stroke-width:0.240791"
         d="m -135.53906,129.66426 v -1.32435 l -1.74574,-0.006 c -2.31053,-0.009 -3.6309,-0.65843 -4.63524,-2.27994 l -0.72237,-1.16627 -0.0769,-11.57724 c -0.0545,-8.20275 0.005,-11.95457 0.20467,-12.8718 0.3681,-1.692278 1.79249,-3.190585 3.42368,-3.601322 1.5923,-0.400944 49.817185,-0.400944 51.409485,0 1.428228,0.359636 3.052653,1.925562 3.422567,3.299312 0.177123,0.65779 0.240702,4.8318 0.195631,12.84353 -0.06471,11.50192 -0.08234,11.89882 -0.569799,12.8322 -0.276665,0.52974 -0.963131,1.28823 -1.52548,1.68554 -0.903614,0.63841 -1.25795,0.73224 -3.048647,0.80728 l -2.026199,0.0849 v 1.29965 1.29965 h -3.732264 -3.73227 v -1.32436 -1.32435 h -14.688284 -14.68829 v 1.32435 1.32436 h -3.73226 -3.73227 z m 47.895562,-4.0821 c 1.229962,-0.63604 1.244623,-0.80405 1.172485,-13.43619 l -0.06697,-11.72726 -0.667646,-0.66748 -0.667651,-0.667488 h -25.51296 -25.51295 l -0.66766,0.667488 -0.66765,0.6675 -0.0668,11.93135 -0.0668,11.93136 0.82528,0.82528 0.82528,0.82528 h 25.19875 c 21.564409,0 25.296322,-0.0504 25.875259,-0.34984 z m -41.730122,-5.51338 -1.10882,-1.04738 v -2.84656 -2.84655 l 1.08779,-1.04229 1.08779,-1.04228 h 2.64448 2.64448 v -2.40793 -2.40791 h -2.62203 c -2.21499,0 -2.70952,-0.0708 -3.18564,-0.45637 -0.48506,-0.39279 -0.52992,-0.55218 -0.32186,-1.14377 l 0.24173,-0.68738 h 3.24489 c 3.05755,0 3.25762,0.0289 3.4654,0.50187 0.12128,0.27602 0.44634,0.60109 0.72237,0.72237 0.47295,0.20781 0.50187,0.40777 0.50187,3.47119 0,3.06343 -0.0289,3.26339 -0.50187,3.4712 -0.27603,0.12127 -0.60109,0.44635 -0.72237,0.72237 -0.20282,0.46161 -0.44748,0.50732 -3.04981,0.56971 l -2.8293,0.0678 v 2.52067 2.52067 h 2.72094 c 2.95132,0 3.29885,0.13102 3.29885,1.24364 0,0.97137 -0.59165,1.16428 -3.57078,1.16428 h -2.63928 z m 17.67292,0.5658 c -0.52939,-0.52939 -0.59206,-0.89653 -0.24661,-1.44474 0.17356,-0.27545 0.9015,-0.38978 3.06641,-0.48159 l 2.8388,-0.12039 v -2.40793 -2.40791 l -2.8388,-0.12039 c -2.16491,-0.0918 -2.89285,-0.20614 -3.06641,-0.48159 -0.34545,-0.54821 -0.28278,-0.91535 0.24661,-1.44475 0.42322,-0.4232 0.80264,-0.48157 3.13029,-0.48157 h 2.64871 v -2.40793 -2.40791 h -2.64871 c -2.32765,0 -2.70707,-0.0583 -3.13029,-0.48158 -0.57975,-0.57976 -0.61049,-1.04066 -0.10319,-1.54795 0.30229,-0.30229 0.96431,-0.37838 3.29196,-0.37838 h 2.91357 l 1.04229,1.08779 1.04228,1.08779 v 2.6178 c 0,2.1828 -0.0736,2.70869 -0.44289,3.16475 -0.42999,0.53102 -0.42999,0.55985 0,0.98984 0.37865,0.37865 0.44289,0.84458 0.44289,3.21199 0,2.44805 -0.0559,2.82494 -0.48158,3.25069 -0.26487,0.26487 -0.58994,0.48159 -0.72237,0.48159 -0.13243,0 -0.2408,0.15872 -0.2408,0.35271 0,0.63897 -0.89675,0.85124 -3.59604,0.85124 -2.34348,0 -2.72256,-0.0581 -3.14612,-0.48158 z m -23.06241,-1.09721 c -0.50378,-0.35287 -0.53516,-0.54881 -0.53516,-3.3416 0,-2.36518 0.0744,-3.02857 0.36726,-3.27156 0.32916,-0.27318 0.32916,-0.34691 0,-0.71062 -0.47204,-0.52161 -0.53887,-6.24015 -0.0784,-6.70072 0.45975,-0.45974 1.33634,-0.336 1.74413,0.24621 0.58426,0.83415 0.53347,5.47617 -0.0681,6.21902 -0.42999,0.53102 -0.42999,0.55985 0,0.98984 0.37865,0.37865 0.4429,0.84458 0.4429,3.21199 0,2.44805 -0.0559,2.82494 -0.48159,3.25069 -0.57971,0.57972 -0.70247,0.58913 -1.39117,0.10675 z m 41.374888,-0.0944 c -0.438139,-0.43814 -0.493899,-0.79294 -0.493899,-3.1426 v -2.64871 h -2.774265 c -2.72554,0 -2.77908,-0.0106 -3.04854,-0.60198 -0.15086,-0.33109 -0.357514,-0.60198 -0.459224,-0.60198 -0.10172,0 -0.35523,-0.17028 -0.56333,-0.37839 -0.55204,-0.55204 -0.55204,-5.91493 0,-6.46697 0.48327,-0.48328 1.167864,-0.48328 1.651144,0 0.29782,0.29783 0.37838,0.93867 0.37838,3.0099 v 2.63151 h 2.40791 2.407925 v -2.47474 c 0,-2.71182 0.303165,-3.54506 1.289845,-3.54506 0.994051,0 1.118067,0.40269 1.118067,3.63055 0,2.47456 -0.07126,3.1118 -0.376399,3.36503 -0.341343,0.28329 -0.341343,0.33201 0,0.52303 0.310846,0.17396 0.375753,0.74325 0.372713,3.26878 -0.0018,1.68197 -0.08327,3.17896 -0.180596,3.32666 -0.37052,0.56244 -1.220678,0.61402 -1.729731,0.10497 z m -24.109988,-1.67933 c -0.9472,-0.94719 -0.96032,-2.13182 -0.035,-3.16733 1.61239,-1.80458 4.48618,-0.29953 4.03368,2.1125 -0.33035,1.76092 -2.67421,2.37923 -3.9986,1.05483 z m 0.6205,-6.79938 c -1.18686,-0.65269 -1.68652,-2.20575 -1.07643,-3.34573 0.29164,-0.54494 1.4504,-1.19062 2.1367,-1.19062 1.24272,0 2.4312,1.16572 2.4312,2.38463 0,1.74756 -1.99298,2.97579 -3.49147,2.15172 z"
         id="path1571" /></g></g></svg>
