<?xml version="1.0" encoding="UTF-8" standalone="no"?>
<!-- Created with Inkscape (http://www.inkscape.org/) -->

<svg
   width="72.648537mm"
   height="41.218067mm"
   viewBox="0 0 72.648537 41.218067"
   version="1.1"
   id="svg5"
   xml:space="preserve"
   xmlns="http://www.w3.org/2000/svg"
   xmlns:svg="http://www.w3.org/2000/svg"><defs
     id="defs2" /><g
     id="layer1"
     transform="translate(94.97062,-121.92888)"><g
       id="g1457"
       transform="translate(56.03777,28.804462)"><path
         style="fill:#000000;stroke-width:0.196948"
         d="m -132.38877,131.38294 c -0.13219,-0.13219 -0.24036,-0.65638 -0.24036,-1.16485 v -0.9245 l -1.56228,-0.0709 c -1.67595,-0.0761 -2.24464,-0.3415 -3.05383,-1.42516 -0.40049,-0.53632 -0.40679,-0.74567 -0.45894,-15.25145 l -0.0528,-14.707674 0.44677,-0.87155 c 0.88267,-1.721929 -1.09512,-1.59003 23.84108,-1.59003 23.901203,0 22.508693,-0.06377 23.577852,1.080311 l 0.492371,0.526885 0.05279,15.114808 0.0528,15.11482 -0.450614,0.67449 c -0.645709,0.9665 -1.562243,1.36312 -3.1508,1.36348 l -1.329401,3.1e-4 v 0.94535 c 0,0.51994 -0.106352,1.05171 -0.23634,1.18169 -0.333462,0.33347 -7.662638,0.33347 -7.996098,0 -0.12998,-0.12998 -0.23634,-0.66175 -0.23634,-1.18169 v -0.94535 h -10.82233 -10.82232 l -0.0591,1.13245 -0.0591,1.13246 -3.84632,0.0533 c -2.82569,0.0392 -3.9101,-0.0103 -4.08668,-0.18712 z m 7.01057,-1.58945 0.0623,-0.54161 h -3.06577 -3.06578 v 0.59598 0.59597 l 3.00346,-0.0543 3.00346,-0.0543 z m 29.972297,0.0492 v -0.59085 h -3.052693 -3.052704 v 0.59085 0.59084 h 3.052704 3.052693 z m 4.54724,-2.33596 c 0.363177,-0.44853 0.376472,-0.98611 0.376472,-15.2232 V 97.525314 l -0.48342,-0.48343 -0.483417,-0.483418 h -21.983832 -21.98384 l -0.5757,0.575694 -0.57569,0.575706 v 14.604474 14.60447 l 0.57821,0.57821 0.57822,0.57821 22.08826,-0.0517 22.088267,-0.0517 z m -44.388127,-1.92294 c -0.0768,-0.0768 -0.13962,-1.63428 -0.13962,-3.46109 0,-2.78316 0.0483,-3.34 0.29794,-3.4358 0.16386,-0.0629 0.43183,-0.003 0.59548,0.13261 0.24777,0.20565 0.28854,0.79411 0.24368,3.51788 -0.0515,3.12229 -0.0722,3.27353 -0.45588,3.32846 -0.2211,0.0316 -0.46482,-0.006 -0.5416,-0.082 z m 7.64061,-1.43679 c -0.21622,-0.0843 -0.76341,-0.11168 -1.21596,-0.0608 -0.68828,0.0776 -0.90432,0.0115 -1.32132,-0.40575 -0.5221,-0.52211 -0.51121,-0.44394 -0.56815,-4.07917 -0.0371,-2.3676 1.92205,-4.37479 4.26504,-4.36966 0.89982,0.002 3.34593,0.13868 3.70642,0.20715 0.077,0.0147 0.324,0.22404 0.54882,0.46537 0.30161,0.32374 0.40117,0.67229 0.37973,1.3294 -0.016,0.48984 0.0372,1.35384 0.11814,1.91999 0.39498,2.762 -1.72099,5.19757 -4.48346,5.16066 -0.56987,-0.008 -1.21304,-0.0828 -1.42926,-0.16729 z m 3.1504,-1.44692 c 1.00682,-0.56219 1.72557,-1.91719 1.63704,-3.08617 l -0.0615,-0.81132 -2.16308,2.17194 -2.16307,2.17192 0.98138,-0.003 c 0.64425,-0.002 1.252,-0.15435 1.76918,-0.44312 z m -1.43025,-2.6531 c 1.59905,-1.59639 2.90737,-3.0172 2.90737,-3.15735 0,-0.14016 -0.14131,-0.30906 -0.31402,-0.37534 -0.38758,-0.14872 -6.18528,5.55786 -6.18528,6.08809 0,0.79162 0.83274,0.19919 3.59193,-2.5554 z m -1.45009,-1.50413 c 2.1557,-2.16306 2.24252,-2.43063 0.71436,-2.20147 -1.17204,0.17575 -2.08148,0.82924 -2.61,1.87545 -0.42273,0.83676 -0.61153,2.36929 -0.29192,2.36929 0.0832,0 1.06759,-0.91947 2.18756,-2.04327 z m 18.16552,5.51044 c -1.75161,-0.97083 -1.01644,-3.86107 0.98211,-3.86107 0.71957,0 1.58096,0.60119 1.87718,1.31015 0.72843,1.74338 -1.20467,3.46802 -2.85929,2.55092 z m 1.66281,-1.31226 c 0.39521,-0.4367 0.2741,-0.84928 -0.36825,-1.25447 -0.70138,-0.44243 -1.46618,0.70919 -0.91335,1.37531 0.33367,0.40204 0.85269,0.3531 1.2816,-0.12084 z m 3.53464,1.40093 c -1.27752,-0.52289 -1.62274,-2.31805 -0.63561,-3.30517 0.43711,-0.43712 0.72527,-0.54609 1.44404,-0.54609 0.76533,0 0.98281,0.095 1.47264,0.64319 0.82176,0.91973 0.7897,1.83999 -0.0949,2.72463 -0.68381,0.68379 -1.34134,0.8292 -2.18613,0.48344 z m 1.43772,-1.23185 c 0.52337,-0.52337 0.1431,-1.53619 -0.57677,-1.53619 -0.40605,0 -0.95943,0.51118 -0.95943,0.88627 0,0.68888 1.05212,1.13401 1.5362,0.64992 z m 3.343233,1.11103 c -0.690376,-0.37465 -0.940463,-0.85801 -0.940463,-1.81772 0,-0.54322 0.140944,-0.92406 0.475589,-1.28515 1.273723,-1.37437 3.46338,-0.5857 3.46338,1.24744 0,1.01423 -0.248172,1.48611 -0.980796,1.86497 -0.715355,0.36992 -1.323773,0.36705 -2.01771,-0.009 z m 1.704573,-1.30868 c 0.25903,-0.36983 0.264477,-0.49361 0.03688,-0.83704 -0.510718,-0.77058 -1.500213,-0.52689 -1.500213,0.36949 0,0.91029 0.94234,1.21137 1.46333,0.46755 z m -11.433196,-3.59579 c -0.82433,-0.35237 -1.2562,-1.01852 -1.2562,-1.93764 0,-2.14416 3.00695,-2.65567 3.84338,-0.65379 0.33781,0.80849 0.17718,1.54911 -0.46551,2.14633 -0.67713,0.62921 -1.35718,0.77188 -2.12167,0.4451 z m 1.30412,-1.28782 c 0.46293,-0.46292 0.48005,-0.5947 0.13801,-1.06247 -0.17025,-0.23283 -0.45041,-0.32782 -0.83704,-0.28383 -0.47852,0.0545 -0.5928,0.16875 -0.64726,0.64727 -0.044,0.38662 0.051,0.66679 0.28382,0.83702 0.46777,0.34205 0.59955,0.32493 1.06247,-0.13799 z m 3.78376,1.33873 c -0.71075,-0.18899 -1.41841,-1.13117 -1.41964,-1.89012 -0.002,-1.68544 2.18385,-2.66891 3.40914,-1.53335 1.63395,1.51429 0.18799,4.00249 -1.9895,3.42347 z m 1.17369,-1.27078 c 0.64438,-0.58316 0.33036,-1.44659 -0.52611,-1.44659 -0.8989,0 -1.18881,0.94744 -0.44854,1.46595 0.54046,0.37856 0.53482,0.37867 0.97465,-0.0194 z m 3.782786,1.21987 c -2.038106,-0.87121 -1.486296,-3.84815 0.713287,-3.84815 1.767194,0 2.641823,2.03731 1.427871,3.32602 -0.663983,0.70489 -1.332321,0.86786 -2.141158,0.52213 z m 1.304136,-1.28782 c 0.46292,-0.46292 0.48004,-0.5947 0.137995,-1.06247 -0.170247,-0.23283 -0.450408,-0.32782 -0.837023,-0.28383 -0.478534,0.0545 -0.592814,0.16875 -0.647276,0.64727 -0.04401,0.38662 0.05102,0.66679 0.283837,0.83702 0.467769,0.34205 0.599536,0.32493 1.062467,-0.13799 z m -37.737362,-0.0841 c -0.21875,-0.57009 0.0123,-1.19467 0.46577,-1.25906 0.51997,-0.0739 0.73737,0.3344 0.55822,1.04823 -0.13675,0.54485 -0.84023,0.6897 -1.02399,0.21083 z m 2.728,-4.83849 c -0.35303,-0.21524 -0.81799,-0.68021 -1.03324,-1.03324 -0.36376,-0.59661 -0.39141,-1.00023 -0.3921,-5.72308 -7.4e-4,-5.47617 0.0283,-5.65472 1.07952,-6.637221 0.45723,-0.427324 0.74217,-0.501389 2.15677,-0.560654 1.34086,-0.05619 1.65094,-0.01356 1.74841,0.240485 0.21827,0.568812 -0.40539,0.91101 -1.66034,0.91101 -0.9866,0 -1.25461,0.078 -1.65999,0.48341 l -0.48342,0.48343 v 5.04009 5.04008 l 0.48342,0.48342 0.48342,0.48342 h 18.03867 18.03868 l 0.483418,-0.48342 0.483419,-0.48342 v -5.04008 -5.04009 l -0.483419,-0.48343 -0.483418,-0.48341 h -14.25006 c -15.03636,0 -15.18182,-0.008 -14.85449,-0.861453 0.11592,-0.302095 1.27398,-0.323455 14.8858,-0.274668 l 14.760089,0.05297 0.526885,0.492369 c 1.051318,0.982452 1.080359,1.161012 1.079566,6.637232 -5.92e-4,4.72284 -0.02833,5.12646 -0.392098,5.72307 -0.215248,0.35304 -0.680206,0.818 -1.033236,1.03325 -0.628226,0.38303 -1.027676,0.39136 -18.761136,0.39136 -17.73344,0 -18.1329,-0.008 -18.76112,-0.39136 z m 17.9445,-3.79672 c -0.30911,-0.35445 -1.40127,-1.77249 -2.42701,-3.15116 -1.02576,-1.37868 -1.94447,-2.5067 -2.0416,-2.5067 -0.0971,0 -0.76453,0.51577 -1.48313,1.14618 -2.16461,1.89894 -1.89991,1.80804 -5.26519,1.80804 -2.40149,0 -3.03226,-0.0572 -3.22786,-0.29291 -0.13369,-0.1611 -0.19165,-0.42698 -0.12877,-0.59085 0.095,-0.24762 0.62254,-0.29882 3.12397,-0.30325 l 3.00964,-0.006 1.93463,-1.66872 c 1.06404,-0.9178 2.05901,-1.66873 2.21105,-1.66873 0.15203,0 1.35498,1.43247 2.6732,3.18327 l 2.39679,3.18326 2.48231,-2.61696 c 1.67296,-1.76372 2.59255,-2.59291 2.82044,-2.54319 0.18598,0.0406 0.89891,0.87142 1.58429,1.84631 l 1.24613,1.77254 2.0182,0.0562 c 2.01622,0.0562 2.01879,0.0556 2.61602,-0.54162 0.98073,-0.98072 2.421954,-0.7877 3.039828,0.40714 0.410169,0.79316 0.216069,1.60956 -0.532412,2.23936 -0.854636,0.71913 -1.642496,0.6593 -2.438966,-0.1852 l -0.64406,-0.6829 -2.32272,-0.0557 -2.32273,-0.0557 -1.02331,-1.4459 c -0.56282,-0.79526 -1.11143,-1.53403 -1.21913,-1.64173 -0.12978,-0.12979 -1.04313,0.67322 -2.70863,2.38142 -1.38205,1.41746 -2.57945,2.57721 -2.66089,2.57721 -0.0815,0 -0.40099,-0.29002 -0.71009,-0.64448 z m 15.481427,-1.21708 c 0.359499,-0.43316 0.06492,-1.09267 -0.488014,-1.09267 -0.576843,0 -0.924093,0.53954 -0.662203,1.0289 0.22637,0.42295 0.824591,0.45613 1.150217,0.0638 z"
         id="path1591" /></g></g></svg>
