<?xml version="1.0" encoding="UTF-8" standalone="no"?>
<!-- Created with Inkscape (http://www.inkscape.org/) -->

<svg
   width="72.648537mm"
   height="41.218067mm"
   viewBox="0 0 72.648537 41.218067"
   version="1.1"
   id="svg5"
   xml:space="preserve"
   xmlns="http://www.w3.org/2000/svg"
   xmlns:svg="http://www.w3.org/2000/svg"><defs
     id="defs2" /><g
     id="layer1"
     transform="translate(94.97062,-121.92888)"><path
       style="fill:#000000;stroke-width:0.357329"
       d="m -65.540592,161.41881 c -0.131002,-0.131 -0.238221,-1.80237 -0.238221,-3.71409 0,-3.78434 -0.489353,-9.25471 -1.198033,-13.39241 l -0.450038,-2.62768 1.736639,-0.41661 c 0.955152,-0.22913 1.787865,-0.3583 1.850449,-0.28702 0.300399,0.34211 1.322768,8.93553 1.630865,13.70811 0.499577,7.73864 0.650701,6.96792 -1.366363,6.96792 -0.949899,0 -1.834283,-0.10723 -1.965298,-0.23822 z m 5.479039,-10.83899 v -11.07719 h 1.786649 1.786636 v 11.07719 11.07721 h -1.786636 -1.786649 z m 5.806368,5.27061 c 0.214762,-6.59069 1.236361,-14.54373 1.900959,-14.79877 0.239976,-0.0921 1.065126,0.001 1.83366,0.20882 l 1.397324,0.37626 -0.624255,4.02489 c -0.343341,2.21368 -0.739224,6.71824 -0.879746,10.01014 l -0.255481,5.98526 h -1.780829 -1.780842 z m -18.866595,-7.9172 c -1.862198,-0.81112 -3.730258,-3.69096 -3.730258,-5.75063 0,-1.01818 0.840424,-3.13666 1.604625,-4.04486 0.784309,-0.9321 0.83829,-1.20818 0.569142,-2.91076 -0.349545,-2.21123 -0.05929,-3.77509 1.026812,-5.53244 1.45069,-2.34727 5.236618,-3.83706 7.82246,-3.07818 1.027055,0.30143 1.385203,0.22678 2.47942,-0.51675 2.887241,-1.96194 7.260165,-1.96326 10.144867,-0.003 1.121795,0.76227 1.435484,0.82157 2.618297,0.49498 1.572606,-0.43422 3.358891,-0.16479 5.227364,0.78843 2.770535,1.41342 4.330827,4.9464 3.551452,8.04157 -0.395792,1.57183 -0.370297,1.68369 0.648081,2.84357 2.106972,2.39969 1.805987,6.27588 -0.660337,8.50406 -1.259871,1.13821 -3.381547,1.94795 -4.227708,1.61351 -0.176589,-0.0698 -0.096,-1.39433 0.181575,-2.98413 1.078871,-6.17931 -0.481594,-8.04604 -7.791099,-9.32023 -3.747681,-0.65329 -7.249536,-0.53425 -11.285313,0.38367 -3.339765,0.75961 -4.655091,1.62474 -5.551576,3.65138 -0.742835,1.67929 -0.698713,2.89946 0.271889,7.51848 0.143535,0.68309 0.02012,0.80189 -0.820531,0.79001 -0.544198,-0.008 -1.479821,-0.22758 -2.079162,-0.48864 z"
       id="path723" /></g></svg>
