<?xml version="1.0" encoding="UTF-8" standalone="no"?>
<!-- Created with Inkscape (http://www.inkscape.org/) -->

<svg
   width="72.648537mm"
   height="41.218067mm"
   viewBox="0 0 72.648537 41.218067"
   version="1.1"
   id="svg5"
   xml:space="preserve"
   xmlns="http://www.w3.org/2000/svg"
   xmlns:svg="http://www.w3.org/2000/svg"><defs
     id="defs2" /><g
     id="layer1"
     transform="translate(94.97062,-121.92888)"><g
       id="g1457"
       transform="translate(56.03777,28.804462)"><path
         style="fill:#000000;stroke-width:0.196214"
         d="m -123.2538,128.75957 c -1.0531,-0.70968 -1.55435,-1.60985 -1.55435,-2.79138 0,-1.31706 0.56832,-2.19819 1.81758,-2.81799 1.25345,-0.62188 2.33428,-0.47196 3.44372,0.47769 l 0.79994,0.68473 2.40373,-0.0552 2.40372,-0.0552 0.37366,-0.64046 c 0.21183,-0.36307 0.57672,-1.82118 0.84251,-3.36663 0.25787,-1.4994 0.55806,-2.9608 0.66708,-3.24756 0.10903,-0.28676 0.19823,-0.55978 0.19823,-0.60671 0,-0.047 -4.41125,-0.0853 -9.8028,-0.0853 h -9.8028 l -0.057,1.56763 -0.057,1.56764 -3.97695,-2.38042 -3.97694,-2.38041 3.97694,-2.38677 3.97695,-2.38676 0.057,1.53172 0.057,1.53172 h 8.03687 c 4.42028,0 8.03686,-0.047 8.03686,-0.10441 0,-0.0574 -0.13326,-0.42337 -0.29615,-0.81321 -0.16288,-0.38984 -0.60765,-1.86597 -0.98838,-3.28029 -0.89151,-3.31179 -1.21003,-4.13762 -1.8672,-4.84113 -0.52917,-0.56648 -0.57008,-0.57548 -2.61721,-0.57548 h -2.07964 v 0.78486 0.78486 h -3.23755 -3.23753 v -3.23754 -3.237538 h 3.23753 3.23755 v 0.76067 0.76068 l 2.30552,0.0827 c 2.08894,0.0749 2.40356,0.13612 3.34916,0.65136 1.98358,1.08083 2.7403,2.3581 3.83678,6.47614 0.86272,3.2401 1.38523,4.62982 1.98339,5.27525 0.4618,0.49828 0.5433,0.51308 2.82623,0.51308 2.20332,0 2.35879,-0.0254 2.47936,-0.40532 0.2307,-0.72686 1.34545,-1.80539 2.34906,-2.27275 1.88885,-0.8796 3.7773,-0.52268 5.310083,1.0036 1.645622,1.63863 1.94568,3.99974 0.75339,5.92823 -0.858334,1.38832 -2.123663,2.1006 -3.884573,2.18671 -1.22662,0.06 -1.51993,10e-4 -2.46071,-0.4927 -0.76448,-0.40139 -1.26432,-0.85238 -1.75833,-1.58647 -0.50532,-0.7509 -0.81397,-1.02565 -1.1522,-1.02565 -1.18796,0 -1.60279,0.79266 -2.10813,4.02824 -0.64574,4.13459 -1.375,5.63044 -3.24857,6.66353 -1.00152,0.55223 -1.21396,0.5907 -3.61484,0.65461 -2.49529,0.0664 -2.5636,0.0801 -3.13944,0.62759 -1.13104,1.07543 -2.70915,1.29317 -3.84155,0.53004 z"
         id="path1737" /></g></g></svg>
