<?xml version="1.0" encoding="UTF-8" standalone="no"?>
<!-- Created with Inkscape (http://www.inkscape.org/) -->

<svg
   width="72.648537mm"
   height="41.218067mm"
   viewBox="0 0 72.648537 41.218067"
   version="1.1"
   id="svg5"
   xml:space="preserve"
   xmlns="http://www.w3.org/2000/svg"
   xmlns:svg="http://www.w3.org/2000/svg"><defs
     id="defs2" /><g
     id="layer1"
     transform="translate(94.97062,-121.92888)"><g
       id="g1457"
       transform="translate(56.03777,28.804462)"><path
         style="fill:#000000;stroke-width:0.164371"
         d="m -130.57438,131.66916 c -0.51876,-0.28729 -0.64018,-0.61911 -0.65433,-1.78816 -0.0105,-0.86787 2.37163,-14.61853 2.7912,-16.11196 0.31965,-1.13772 -0.18884,-1.09676 13.61841,-1.09676 7.43335,0 12.48631,0.0623 12.73547,0.15703 0.22716,0.0864 0.52229,0.32676 0.65584,0.53421 0.29834,0.46342 3.061814,15.57143 3.061814,16.73901 0,0.70955 -0.0748,0.915 -0.48047,1.32073 l -0.48047,0.48047 -15.422474,-0.006 c -12.66635,-0.005 -15.4944,-0.0457 -15.82499,-0.22874 z m 29.3432,-3.01176 c -0.0988,-0.46024 -2.39468,-13.06614 -2.39468,-13.14817 0,-0.0247 -5.04336,-0.0259 -11.20748,-0.002 l -11.20746,0.0423 -1.19929,6.57485 c -0.65961,3.61617 -1.20077,6.66732 -1.20258,6.78032 -0.002,0.16275 2.83572,0.20547 13.65261,0.20547 h 13.65588 z m -23.10549,-2.5343 c 0,-0.196 0.0816,-0.82472 0.18125,-1.39715 l 0.18125,-1.04079 h 2.04342 2.04344 l -0.096,0.86295 c -0.0528,0.47462 -0.13268,1.10334 -0.17749,1.39716 l -0.0815,0.53421 h -2.04719 c -1.99052,0 -2.0472,-0.01 -2.0472,-0.35638 z m 6.50493,-0.83168 c 0.0536,-0.65744 0.1259,-1.28779 0.1607,-1.4008 0.0474,-0.1538 0.76415,-0.20546 2.85093,-0.20546 h 2.78765 l 0.10287,0.94514 c 0.0566,0.51982 0.11738,1.13005 0.13511,1.35606 l 0.0322,0.41093 -3.08345,0.0447 -3.08345,0.0447 z m 8.39735,1.06478 c -0.0412,-0.0678 -0.12824,-0.69653 -0.19338,-1.39716 l -0.11846,-1.27388 h 2.05277 2.05279 l 0.10909,0.86295 c 0.06,0.47462 0.15173,1.10334 0.20384,1.39716 l 0.0947,0.53421 h -2.06324 c -1.13478,0 -2.09695,-0.0555 -2.13816,-0.12328 z m -14.00499,-6.41049 c 0.2196,-1.8317 0.0291,-1.68481 2.1843,-1.68481 h 1.89535 l -0.10366,0.86295 c -0.057,0.47463 -0.10429,1.06636 -0.10507,1.31497 l -0.001,0.45202 h -1.99139 -1.9914 z m 6.09381,0.41093 c 0.0368,-0.29381 0.1106,-0.88555 0.1641,-1.31497 l 0.0973,-0.78077 h 2.26823 2.26824 l 0.10365,0.86295 c 0.057,0.47463 0.1043,1.06636 0.10508,1.31497 l 0.001,0.45202 h -2.53742 -2.53742 z m 7.24938,-0.22841 c -0.0575,-0.41943 -0.10453,-1.01117 -0.10453,-1.31497 v -0.55236 h 1.8716 1.87161 l 0.10915,0.78077 c 0.06,0.42942 0.15063,1.02116 0.20133,1.31497 l 0.0922,0.5342 h -1.96841 -1.9684 z m -16.53609,-10.54813 c -0.58514,-0.58514 -0.65541,-1.28028 -0.1878,-1.85775 0.26574,-0.32818 0.49185,-0.39309 1.55647,-0.44685 1.20448,-0.0608 1.26198,-0.0465 1.74373,0.43528 0.60399,0.60397 0.63769,1.16481 0.10708,1.78168 -0.34488,0.40094 -0.52883,0.46248 -1.55595,0.52052 -1.11709,0.0631 -1.18526,0.0454 -1.66353,-0.43288 z m 6.46127,0.20767 c -0.21539,-0.5613 0.0519,-2.78309 0.42119,-3.50123 0.55461,-1.07848 1.58675,-2.10246 2.62202,-2.60129 0.76411,-0.36818 1.15971,-0.44845 2.24546,-0.45562 1.16776,-0.008 1.44324,0.0529 2.41758,0.5324 1.19387,0.58747 2.0357,1.43352 2.58128,2.5942 0.39278,0.83561 0.59313,2.2587 0.43594,3.09658 l -0.11059,0.58952 h -5.2576 c -4.59523,0 -5.2699,-0.032 -5.35528,-0.25456 z m 14.11205,-0.15427 c -0.62075,-0.52232 -0.70829,-1.30159 -0.21469,-1.91115 0.26574,-0.32818 0.49185,-0.39309 1.55647,-0.44685 1.20448,-0.0608 1.26198,-0.0465 1.74374,0.43528 0.60397,0.60397 0.63767,1.16481 0.10706,1.78168 -0.34317,0.39897 -0.53059,0.46258 -1.52905,0.519 -1.04325,0.0589 -1.18168,0.0275 -1.66353,-0.37796 z m -16.80853,-7.09881 c -0.69514,-0.62802 -1.14043,-1.32453 -1.14043,-1.78383 0,-0.14705 0.21621,-0.48357 0.48047,-0.74783 0.73436,-0.734363 1.33172,-0.657421 2.33143,0.30029 0.99786,0.95596 1.1939,1.68284 0.64281,2.38344 -0.54602,0.69416 -1.44283,0.63523 -2.31428,-0.15207 z m 13.84602,0.22361 c -0.63508,-0.67601 -0.48614,-1.34894 0.52164,-2.35671 1.02819,-1.028199 1.6536,-1.155648 2.33368,-0.475575 0.66247,0.662475 0.54589,1.273705 -0.44224,2.318515 -0.72592,0.76754 -0.9314,0.8942 -1.45069,0.8942 -0.41987,0 -0.71436,-0.11641 -0.96239,-0.38043 z m -6.73923,-2.794315 c -0.2977,-0.316885 -0.35739,-0.575448 -0.35739,-1.548084 0,-1.418392 0.0738,-1.632381 0.66924,-1.940289 0.66818,-0.345537 0.93853,-0.301702 1.48023,0.239987 0.43877,0.438768 0.48047,0.579524 0.48047,1.621553 0,0.905504 -0.0703,1.230484 -0.34067,1.57417 -0.45505,0.578488 -1.41335,0.604618 -1.93188,0.05268 z"
         id="path1651" /></g></g></svg>
