<?xml version="1.0" encoding="UTF-8" standalone="no"?>
<!-- Created with Inkscape (http://www.inkscape.org/) -->

<svg
   width="72.648537mm"
   height="41.218067mm"
   viewBox="0 0 72.648537 41.218067"
   version="1.1"
   id="svg5"
   xml:space="preserve"
   xmlns="http://www.w3.org/2000/svg"
   xmlns:svg="http://www.w3.org/2000/svg"><defs
     id="defs2" /><g
     id="layer1"
     transform="translate(94.97062,-121.92888)"><path
       style="fill:#000000;stroke-width:0.264583"
       d="m -72.939798,161.9285 c 0,-0.13105 0.238125,-1.63117 0.529167,-3.33358 0.629909,-3.68458 0.661097,-5.74821 0.121959,-8.06979 -0.466406,-2.00838 -2.153456,-7.22826 -2.66189,-8.23611 -0.307008,-0.60857 -0.291614,-0.74909 0.123185,-1.12448 0.260721,-0.23594 0.837488,-0.42899 1.281705,-0.42899 1.191131,0 2.287373,1.28832 3.418682,4.01769 l 0.969298,2.33851 1.506145,-1.43662 c 1.825729,-1.74145 5.22636,-3.99237 8.21513,-5.43771 2.410437,-1.16566 2.819982,-1.24797 3.55069,-0.71367 0.949296,0.69415 0.343456,1.52426 -2.150118,2.94607 -3.749589,2.13798 -6.200612,4.10656 -5.11296,4.10656 0.146295,0 1.307155,-0.69637 2.579689,-1.54748 5.37219,-3.5931 7.908454,-4.49636 8.387474,-2.9871 0.275799,0.86896 -0.15014,1.36772 -1.9401,2.27178 -2.551639,1.28877 -6.700028,4.07997 -6.513166,4.38232 0.194355,0.31447 0.618514,0.10289 4.628444,-2.30875 1.67349,-1.00646 3.259693,-1.91098 3.524896,-2.01003 0.637847,-0.23823 1.502187,0.24483 1.502187,0.83953 0,0.62462 -0.61609,1.15875 -4.165319,3.61119 -3.214762,2.22132 -3.683749,2.63553 -3.272158,2.8899 0.143624,0.0888 1.574104,-0.73407 3.178844,-1.82853 3.002984,-2.04807 3.397896,-2.21565 3.941133,-1.67241 0.757886,0.75788 0.322099,1.4133 -2.432637,3.65863 -1.512575,1.23286 -3.10062,2.77736 -3.528989,3.4322 -0.428371,0.65484 -1.213276,1.871 -1.744236,2.70257 -0.530961,0.83157 -1.711119,2.10746 -2.622574,2.83531 l -1.657189,1.32337 -4.828646,0.009 c -2.694154,0.005 -4.828646,-0.0964 -4.828646,-0.22934 z m 12.664282,0.11438 c -0.289751,-0.28975 2.898701,-3.24157 4.004469,-3.70727 1.920094,-0.80867 4.574564,-2.41296 5.333161,-3.22321 0.898729,-0.95992 1.213181,-2.14583 1.566593,-5.90816 0.294693,-3.13725 0.467116,-3.60293 1.476055,-3.98653 0.936625,-0.35611 1.463563,-1.4329 1.613154,-3.29646 0.113008,-1.40786 0.0527,-1.81931 -0.328359,-2.24038 -0.562242,-0.62127 -1.256842,-0.35632 -1.804096,0.68815 -0.342588,0.65386 -0.37711,0.59672 -0.950179,-1.57258 -0.755814,-2.86106 -1.804792,-4.57249 -2.990993,-4.87987 -1.248958,-0.32364 -1.792238,-0.15755 -4.243843,1.29738 -4.214612,2.50122 -5.446196,3.00374 -7.34441,2.99676 -0.950739,-0.004 -2.345235,-0.22037 -3.118435,-0.48498 -1.985403,-0.67946 -2.173232,-0.45779 -2.173232,2.56485 v 2.40065 l -0.767881,-1.21082 c -0.422334,-0.66595 -0.905929,-1.29614 -1.074654,-1.40042 -0.505878,-0.31265 -0.755875,-1.27148 -1.065748,-4.08755 -0.249074,-2.26354 -0.229722,-2.92906 0.125489,-4.31559 0.803296,-3.13557 3.144494,-5.7946 6.580955,-7.47437 2.90822,-1.42157 4.851013,-1.81994 7.975798,-1.63546 6.178489,0.36476 10.500275,2.67454 12.506695,6.68421 1.260031,2.51806 1.418508,3.67879 1.3163,9.6409 -0.103034,6.01016 -0.267674,6.74426 -1.896933,8.458 -0.819076,0.86155 -0.890852,1.08267 -1.030605,3.175 -0.08262,1.23693 -0.394227,3.03462 -0.692462,3.99488 -0.444656,1.4317 -0.792554,1.9824 -1.933038,3.05988 -1.696321,1.60261 -4.155827,3.00343 -6.8614,3.90792 -1.826999,0.61078 -3.894858,0.88262 -4.222401,0.55507 z"
       id="path419" /></g></svg>
