<?xml version="1.0" encoding="UTF-8" standalone="no"?>
<!-- Created with Inkscape (http://www.inkscape.org/) -->

<svg
   width="72.648537mm"
   height="41.218067mm"
   viewBox="0 0 72.648537 41.218067"
   version="1.1"
   id="svg5"
   xml:space="preserve"
   xmlns="http://www.w3.org/2000/svg"
   xmlns:svg="http://www.w3.org/2000/svg"><defs
     id="defs2" /><g
     id="layer1"
     transform="translate(94.97062,-121.92888)"><g
       id="g1457"
       transform="translate(56.03777,28.804462)"><path
         style="fill:#000000;stroke-width:0.237494"
         d="m -130.17232,119.87528 c 0.075,-11.26587 0.0564,-11.07884 1.22852,-12.37228 1.20795,-1.33299 1.21222,-1.33356 10.93024,-1.46177 l 9.0006,-0.11875 -6.15066,-2.88016 c -4.96306,-2.32405 -6.29824,-2.85787 -6.91495,-2.76471 -0.61999,0.0937 -0.90022,-0.0205 -1.48433,-0.604617 -1.42523,-1.425218 -0.62736,-3.606526 1.31917,-3.606526 0.6887,0 1.03737,0.173895 1.64904,0.822451 0.59781,0.633879 3.00033,1.863551 10.4778,5.362822 5.33616,2.49721 9.95275,4.7722 10.259055,5.05553 1.360993,1.25893 1.33708,1.04634 1.413764,12.56801 l 0.07073,10.62788 h -15.934859 -15.93486 z m 28.92632,-1.02015 v -8.79809 l -0.58294,-0.58294 -0.58294,-0.58294 h -11.89632 -11.89631 l -0.58295,0.58294 -0.58294,0.58294 v 8.79809 8.79809 h 13.0622 13.0622 z m -21.56495,5.55088 c -1.57914,-0.77825 -1.99594,-3.04627 -0.80481,-4.37937 0.53678,-0.60076 0.9007,-0.76919 1.86149,-0.8615 1.08364,-0.10413 1.27416,-0.0446 2.05662,0.64239 1.04507,0.91758 1.30254,1.94866 0.79182,3.17096 -0.39963,0.95648 -1.60734,1.82551 -2.5272,1.81851 -0.32656,-0.003 -0.94663,-0.17844 -1.37792,-0.39099 z m 14.2477,-0.0838 c -0.43597,-0.2658 -0.94703,-0.86434 -1.14732,-1.34373 -0.51072,-1.2223 -0.25325,-2.25337 0.79182,-3.17095 0.78246,-0.68701 0.97298,-0.74652 2.05662,-0.64239 0.96079,0.0923 1.32471,0.26074 1.86149,0.8615 1.20503,1.34866 0.76816,3.62404 -0.84256,4.38838 -1.07914,0.51208 -1.76636,0.48864 -2.72005,-0.0928 z m -15.71971,-11.15615 v -1.42497 h 9.97476 9.97477 v 1.42497 1.42497 h -9.97477 -9.97476 z"
         id="path1817" /></g></g></svg>
